<svg version="1.1" id="_x31_0" xmlns="http://www.w3.org/2000/svg" x="0" y="0" viewBox="0 0 512 512" style="width:256px;height:256px" xml:space="preserve" opacity="1"><style>.st0{fill:#374149}</style><path class="st0" d="M168.984 153.84c-42.082 0-73.484 17.008-73.484 32.274v146.16a105.84 105.84 0 0 1 6.734-3.832c18.054-9.402 41.734-14.625 66.75-14.625 24.962 0 48.649 5.222 66.696 14.625 2.382 1.218 4.648 2.496 6.734 3.832v-146.16c0-15.266-31.402-32.274-73.43-32.274zm174.024 0c-42.024 0-73.43 17.008-73.43 32.274v146.16c2.094-1.336 4.359-2.614 6.734-3.832 17.996-9.402 41.734-14.625 66.695-14.625 25.019 0 48.703 5.222 66.758 14.625a105.456 105.456 0 0 1 6.73 3.832v-146.16c.001-15.266-31.401-32.274-73.487-32.274z" fill="#364148"/><path class="st0" d="M256 0C114.614 0 0 114.617 0 256c0 141.386 114.614 256 256 256 141.383 0 256-114.614 256-256C512 114.617 397.383 0 256 0zm172.453 361.473h-30.5c-1.82 0-3.586-.402-5.258-1.118-12.844-5.484-30.09-9.16-49.687-9.16-34.246 0-61.469 11.321-70.352 23.801-.23.289-.461.578-.695.926A20.612 20.612 0 0 1 256 383.473c-6.211 0-12.078-2.79-15.965-7.551-.23-.347-.465-.637-.699-.926-8.875-12.48-36.102-23.801-70.352-23.801-19.538 0-36.781 3.676-49.625 9.16-1.676.715-3.438 1.118-5.262 1.118H83.539c-7.336 0-13.289-5.954-13.289-13.293V186.114c0-16.95 11.374-32.219 31.984-42.958 18.054-9.402 41.734-14.625 66.75-14.625 24.962 0 48.649 5.222 66.696 14.625 8.359 4.297 15.148 9.406 20.32 15.035 5.164-5.629 11.953-10.738 20.313-15.035 17.996-9.402 41.734-14.625 66.695-14.625 25.019 0 48.703 5.222 66.758 14.625 20.602 10.738 31.981 26.008 31.981 42.958V348.18c-.001 7.339-5.95 13.293-13.294 13.293z" fill="#364148"/></svg>