<svg version="1.1" id="_x31_0" xmlns="http://www.w3.org/2000/svg" x="0" y="0" viewBox="0 0 512 512" style="width:256px;height:256px" xml:space="preserve" opacity="1"><style>.st0{fill:#374149}</style><path class="st0" d="M216.328 171.711c-13.305 0-24.125 10.824-24.125 24.129 0 13.305 10.82 24.129 24.125 24.129s24.129-10.824 24.129-24.129c0-13.305-10.824-24.129-24.129-24.129zm113.84 48.258c13.305 0 24.129-10.824 24.129-24.129 0-13.305-10.824-24.129-24.129-24.129-13.301 0-24.125 10.824-24.125 24.129 0 13.305 10.824 24.129 24.125 24.129z"/><path class="st0" d="M256 0C114.617 0 0 114.614 0 256c0 141.383 114.617 256 256 256 141.386 0 256-114.617 256-256C512 114.614 397.386 0 256 0zm7.953 155.558a63.189 63.189 0 0 1 4.989 6.762 61.927 61.927 0 0 1 4.234 7.922c.007-.02.019-.035.027-.055.015.031.031.055.047.086 9.773-21.719 31.554-36.871 56.918-36.871 34.484 0 62.438 27.957 62.438 62.438 0 34.48-27.954 62.434-62.438 62.434-25.363 0-47.145-15.149-56.918-36.867-9.774 21.718-31.559 36.867-56.922 36.867-34.48 0-62.434-27.954-62.434-62.434 0-34.481 27.954-62.438 62.434-62.438 19.02 0 36.027 8.523 47.469 21.946.054.066.101.144.156.21zM112.054 351.539c-.414-.57-.656-1.27-.656-2.086v-76.789c0-.816.242-1.515.656-2.086.008-.016.024-.028.031-.043 1.274-1.707 4.133-2.222 6.95-.957l49.641 22.336c.941.453 1.602 1.538 1.602 2.582v33.106c0 1.039-.661 2.125-1.602 2.578l-49.641 22.359c-2.817 1.266-5.676.75-6.95-.957-.007-.016-.019-.028-.031-.043zm72.489 17.469v-89.535c0-5.27 4.312-9.586 9.582-9.586h158.246c5.274 0 9.586 4.317 9.586 9.586v89.535c0 5.274-4.312 9.586-9.586 9.586H194.125c-5.27 0-9.582-4.312-9.582-9.586z"/></svg>