<svg id="svg" version="1.1" xmlns="http://www.w3.org/2000/svg" xmlns:xlink="http://www.w3.org/1999/xlink" width="400" height="400" viewBox="0, 0, 400,400"><g id="svgg"><path id="path0" d="M177.743 90.790 C 175.529 91.700,175.600 90.755,175.598 119.189 C 175.595 151.664,175.987 149.715,169.660 148.736 C 155.504 146.544,136.729 149.463,124.003 155.834 C 101.889 166.904,89.413 191.558,91.587 219.892 C 94.101 252.667,111.585 270.398,146.800 275.883 C 152.604 276.788,176.446 276.910,184.400 276.076 C 195.888 274.872,210.847 272.410,212.796 271.402 C 214.918 270.305,214.843 273.880,214.717 180.111 L 214.600 92.422 213.689 91.511 L 212.778 90.600 195.689 90.519 C 186.290 90.474,178.214 90.596,177.743 90.790 M239.608 91.314 C 237.610 92.325,237.591 92.523,237.699 111.489 L 237.800 129.178 238.711 130.089 L 239.622 131.000 256.511 131.115 C 274.642 131.239,274.767 131.232,275.989 129.920 C 276.779 129.071,276.800 128.587,276.787 111.025 C 276.774 92.027,276.796 92.261,274.926 91.265 C 273.632 90.576,240.977 90.621,239.608 91.314 M240.142 151.069 C 237.633 151.583,237.825 147.706,237.555 203.142 C 237.311 253.431,237.226 256.458,235.780 266.600 C 232.971 286.305,224.254 299.219,208.200 307.457 C 199.553 311.893,199.649 312.648,209.431 317.141 C 212.714 318.649,217.380 320.874,219.800 322.086 C 235.071 329.734,235.586 329.827,242.221 326.150 C 260.226 316.170,270.197 302.112,274.384 280.800 C 276.524 269.913,276.520 270.031,276.684 209.543 L 276.836 153.286 275.853 152.143 L 274.870 151.000 257.935 150.946 C 248.621 150.917,240.614 150.972,240.142 151.069 M171.901 180.966 C 175.659 182.156,175.384 179.792,175.510 212.019 C 175.648 247.251,176.408 244.150,167.449 244.897 C 144.491 246.809,131.600 235.340,131.600 213.000 C 131.600 197.234,138.561 185.597,150.245 181.831 C 156.358 179.861,167.061 179.434,171.901 180.966 " stroke="none" fill="#f8f8f8" fill-rule="evenodd"></path><path id="path1" d="M190.367 13.762 C 190.275 13.852,187.230 14.124,183.600 14.367 C 157.839 16.091,126.303 25.925,105.600 38.688 C 95.160 45.125,90.346 48.454,81.426 55.408 C 74.079 61.136,60.306 74.988,55.111 81.875 C 47.039 92.574,45.319 94.953,43.597 97.800 C 42.532 99.560,40.827 102.260,39.809 103.800 C 19.575 134.398,9.399 185.836,15.436 227.000 C 19.899 257.430,33.310 290.150,49.908 311.104 C 51.388 312.973,53.388 315.604,54.351 316.951 C 61.169 326.486,78.489 342.891,91.400 352.042 C 117.369 370.449,148.366 382.114,179.400 385.159 C 181.820 385.397,185.651 385.773,187.914 385.995 C 203.908 387.568,229.053 385.089,248.600 380.013 C 286.850 370.079,321.343 347.391,346.401 315.681 C 353.612 306.556,356.825 301.604,365.451 286.317 C 370.299 277.725,377.680 258.273,380.369 247.000 C 383.464 234.027,384.372 228.575,385.700 215.000 C 386.257 209.307,386.255 190.665,385.697 185.000 C 384.719 175.070,384.381 172.113,384.028 170.400 C 383.824 169.410,383.360 166.980,382.998 165.000 C 379.966 148.434,374.124 130.785,366.983 116.609 C 340.100 63.247,290.077 25.916,232.501 16.248 C 226.968 15.319,224.345 15.031,212.137 14.008 C 207.466 13.616,190.711 13.427,190.367 13.762 M213.689 91.511 L 214.600 92.422 214.717 180.111 C 214.800 242.127,214.708 268.238,214.402 269.298 C 213.867 271.148,212.706 271.801,208.511 272.607 C 183.010 277.509,154.775 278.137,138.000 274.175 C 108.777 267.273,93.886 249.857,91.587 219.892 C 89.413 191.558,101.889 166.904,124.003 155.834 C 136.729 149.463,155.504 146.544,169.660 148.736 C 175.987 149.715,175.595 151.664,175.598 119.189 C 175.600 90.755,175.529 91.700,177.743 90.790 C 178.214 90.596,186.290 90.474,195.689 90.519 L 212.778 90.600 213.689 91.511 M274.926 91.265 C 276.796 92.261,276.774 92.027,276.787 111.025 C 276.800 128.587,276.779 129.071,275.989 129.920 C 274.767 131.232,274.642 131.239,256.511 131.115 L 239.622 131.000 238.711 130.089 L 237.800 129.178 237.699 111.489 C 237.591 92.523,237.610 92.325,239.608 91.314 C 240.977 90.621,273.632 90.576,274.926 91.265 M275.853 152.143 L 276.836 153.286 276.684 209.543 C 276.520 270.031,276.524 269.913,274.384 280.800 C 270.197 302.112,260.226 316.170,242.221 326.150 C 235.586 329.827,235.071 329.734,219.800 322.086 C 217.380 320.874,212.714 318.649,209.431 317.141 C 199.649 312.648,199.553 311.893,208.200 307.457 C 224.254 299.219,232.971 286.305,235.780 266.600 C 237.226 256.458,237.311 253.431,237.555 203.142 C 237.790 154.949,237.830 152.850,238.542 152.064 C 239.615 150.878,239.446 150.888,257.935 150.946 L 274.870 151.000 275.853 152.143 M154.845 180.595 C 139.472 184.069,131.600 195.042,131.600 213.000 C 131.600 235.340,144.491 246.809,167.449 244.897 C 173.263 244.412,174.416 243.951,175.110 241.832 C 176.003 239.105,175.623 184.104,174.701 182.698 C 173.199 180.406,161.273 179.142,154.845 180.595 " stroke="none" fill="#0c2c23" fill-rule="evenodd"></path></g></svg>