<svg id="svg" version="1.1" xmlns="http://www.w3.org/2000/svg" xmlns:xlink="http://www.w3.org/1999/xlink" width="400" height="347.4452554744526" viewBox="0, 0, 400,347.4452554744526"><g id="svgg"><path id="path0" d="M215.986 1.408 C 215.301 1.594,215.658 1.624,217.029 1.497 C 218.175 1.390,219.179 1.244,219.259 1.173 C 219.517 0.940,217.058 1.117,215.986 1.408 M207.124 3.128 L 206.255 3.406 207.124 3.435 C 207.602 3.451,208.228 3.313,208.514 3.128 C 209.178 2.699,208.464 2.699,207.124 3.128 M295.048 3.417 C 295.334 3.594,295.960 3.843,296.438 3.971 C 297.042 4.133,297.148 4.105,296.785 3.881 C 296.499 3.704,295.873 3.455,295.395 3.327 C 294.791 3.165,294.685 3.193,295.048 3.417 M197.915 5.213 L 197.220 5.512 197.915 5.501 C 198.297 5.496,199.001 5.366,199.479 5.213 L 200.348 4.935 199.479 4.924 C 199.001 4.919,198.297 5.049,197.915 5.213 M193.571 6.260 C 193.204 6.501,193.410 6.536,194.266 6.379 C 195.765 6.104,196.047 5.906,194.932 5.913 C 194.470 5.916,193.858 6.072,193.571 6.260 M187.402 8.004 C 186.296 8.448,186.429 8.712,187.576 8.350 C 189.537 7.730,189.595 7.701,188.879 7.695 C 188.497 7.692,187.832 7.831,187.402 8.004 M182.103 9.731 C 181.412 10.177,182.280 10.177,183.319 9.731 L 184.014 9.432 183.319 9.413 C 182.937 9.402,182.389 9.545,182.103 9.731 M316.594 10.078 C 317.783 10.459,318.696 10.459,317.811 10.078 C 317.428 9.914,316.803 9.784,316.421 9.790 C 315.862 9.798,315.896 9.855,316.594 10.078 M177.063 11.468 C 176.625 11.657,176.561 11.767,176.890 11.767 C 177.176 11.767,177.724 11.633,178.106 11.468 C 178.544 11.280,178.608 11.170,178.280 11.170 C 177.993 11.170,177.446 11.304,177.063 11.468 M322.184 11.593 C 322.263 11.662,322.798 11.823,323.371 11.951 C 324.132 12.122,324.273 12.089,323.892 11.832 C 323.423 11.514,321.835 11.292,322.184 11.593 M331.364 14.248 C 331.746 14.413,332.294 14.547,332.580 14.547 C 332.909 14.547,332.845 14.437,332.407 14.248 C 332.024 14.084,331.477 13.950,331.190 13.950 C 330.862 13.950,330.926 14.060,331.364 14.248 M164.379 16.062 C 163.710 16.261,163.327 16.484,163.527 16.558 C 163.728 16.632,164.510 16.467,165.265 16.190 C 166.838 15.614,166.199 15.522,164.379 16.062 M337.475 16.111 C 337.554 16.180,338.089 16.341,338.662 16.469 C 339.423 16.639,339.564 16.607,339.183 16.350 C 338.714 16.032,337.126 15.810,337.475 16.111 M344.396 18.245 C 346.042 18.879,346.951 18.868,345.486 18.231 C 344.843 17.952,344.061 17.736,343.748 17.750 C 343.436 17.765,343.727 17.987,344.396 18.245 M155.380 19.838 C 154.922 20.021,154.634 20.258,154.741 20.365 C 154.847 20.471,155.378 20.318,155.921 20.024 C 157.012 19.432,156.680 19.318,155.380 19.838 M151.347 21.875 C 150.582 22.237,150.079 22.545,150.228 22.561 C 150.636 22.603,152.911 21.611,152.911 21.390 C 152.911 21.132,152.927 21.127,151.347 21.875 M145.439 24.513 C 144.570 24.931,144.541 24.979,145.265 24.802 C 146.250 24.562,147.357 23.998,146.829 24.005 C 146.638 24.008,146.012 24.236,145.439 24.513 M361.512 24.718 C 361.620 25.207,359.881 25.677,351.347 27.460 C 347.619 28.240,340.973 29.669,336.577 30.637 C 332.181 31.605,327.176 32.690,325.456 33.049 C 323.736 33.408,320.843 34.029,319.027 34.428 C 317.211 34.828,314.396 35.447,312.772 35.805 C 311.147 36.162,308.527 36.724,306.950 37.053 C 305.374 37.382,304.083 37.796,304.083 37.973 C 304.083 38.151,306.560 41.995,309.588 46.515 C 312.615 51.036,315.506 55.361,316.012 56.125 C 316.518 56.890,317.051 57.672,317.198 57.863 C 317.438 58.177,322.563 65.840,354.622 113.814 C 359.987 121.842,364.501 128.566,364.655 128.758 C 364.808 128.949,366.998 132.206,369.522 135.997 C 372.045 139.787,374.260 143.103,374.445 143.365 C 375.208 144.450,374.572 144.363,366.638 142.295 C 364.822 141.822,360.365 140.722,356.733 139.851 C 353.102 138.981,345.752 137.193,340.400 135.879 C 335.048 134.565,326.447 132.457,321.286 131.193 C 316.125 129.930,308.071 127.955,303.388 126.804 C 290.073 123.531,277.388 120.429,265.856 117.625 C 260.026 116.208,254.776 114.888,254.189 114.692 C 252.643 114.175,251.957 114.252,251.942 114.944 C 251.929 115.566,251.567 120.590,250.936 128.931 C 250.740 131.512,250.341 137.142,250.048 141.442 C 249.449 150.225,248.054 169.858,247.244 180.886 C 246.587 189.825,244.399 220.502,243.959 226.933 C 243.057 240.114,242.862 242.857,242.442 248.306 C 242.191 251.555,242.082 254.292,242.200 254.387 C 242.426 254.571,243.665 256.403,243.963 256.994 C 244.059 257.185,244.742 258.280,245.480 259.427 C 248.139 263.559,250.212 266.844,254.579 273.849 C 257.021 277.767,259.611 281.911,260.333 283.058 C 261.056 284.205,262.522 286.551,263.591 288.271 C 264.661 289.991,266.622 293.119,267.950 295.222 C 269.277 297.324,270.468 299.279,270.595 299.566 C 270.723 299.852,271.021 300.321,271.259 300.608 C 271.497 300.895,272.700 302.772,273.932 304.778 C 278.342 311.959,280.944 316.118,282.848 319.027 C 283.912 320.652,285.098 322.528,285.484 323.197 C 286.491 324.942,287.989 327.356,290.201 330.795 C 292.523 334.407,296.285 340.418,298.601 344.218 C 300.305 347.013,301.609 348.393,301.002 346.758 C 300.808 346.237,301.051 343.730,301.702 339.531 C 302.250 335.995,303.009 330.990,303.389 328.410 C 303.769 325.830,304.471 321.216,304.950 318.158 C 305.428 315.100,305.971 311.581,306.157 310.339 C 306.342 309.096,306.819 305.969,307.217 303.388 C 307.614 300.808,308.164 297.133,308.440 295.222 C 308.716 293.310,309.252 289.870,309.631 287.576 C 310.011 285.282,310.628 281.216,311.003 278.540 C 311.377 275.864,312.252 270.078,312.946 265.682 C 313.641 261.286,314.427 256.203,314.694 254.387 C 314.961 252.572,315.421 249.522,315.717 247.611 C 316.013 245.699,316.487 242.572,316.769 240.660 C 317.052 238.749,317.429 236.247,317.609 235.100 C 317.788 233.953,318.254 230.904,318.643 228.323 C 320.165 218.246,321.525 209.296,321.812 207.472 C 321.978 206.421,322.338 204.102,322.613 202.319 C 322.888 200.536,323.249 198.959,323.416 198.816 C 335.402 188.502,343.325 181.043,351.889 172.012 C 357.922 165.650,360.921 162.275,366.240 155.864 C 371.837 149.118,384.709 130.469,384.709 129.105 C 384.709 128.585,387.951 123.748,388.256 123.813 C 388.463 123.856,388.780 123.345,388.962 122.676 C 389.143 122.008,389.394 121.382,389.520 121.286 C 389.906 120.991,390.964 118.824,390.964 118.329 C 390.964 118.071,391.174 117.650,391.431 117.394 C 391.687 117.137,392.252 115.836,392.687 114.502 C 393.121 113.168,393.669 111.920,393.906 111.729 C 394.142 111.538,394.423 110.912,394.531 110.339 C 394.867 108.551,395.585 106.176,395.845 105.995 C 396.159 105.774,397.567 100.658,397.567 99.735 C 397.567 99.355,397.696 99.044,397.854 99.044 C 398.145 99.044,398.773 96.371,399.364 92.615 C 399.916 89.105,400.132 70.429,399.659 67.072 C 399.223 63.984,398.446 60.438,397.944 59.253 C 397.782 58.871,397.285 57.385,396.839 55.951 C 396.393 54.518,395.931 53.267,395.814 53.171 C 395.696 53.076,395.222 52.220,394.759 51.270 C 394.297 50.320,393.645 49.265,393.310 48.924 C 392.976 48.584,392.702 48.075,392.702 47.793 C 392.702 47.510,392.311 47.023,391.833 46.710 C 391.355 46.397,390.964 45.971,390.964 45.764 C 390.964 45.557,390.521 44.910,389.979 44.327 C 387.708 41.884,384.431 38.667,383.057 37.533 C 382.247 36.864,381.153 35.949,380.627 35.499 C 380.101 35.050,379.248 34.464,378.731 34.196 C 378.215 33.929,377.668 33.514,377.515 33.275 C 377.190 32.767,376.104 32.038,375.239 31.748 C 374.904 31.636,374.631 31.413,374.631 31.253 C 374.631 31.093,373.930 30.652,373.073 30.273 C 372.216 29.894,370.989 29.183,370.347 28.693 C 369.704 28.203,368.931 27.802,368.628 27.802 C 368.325 27.802,367.871 27.600,367.618 27.354 C 367.102 26.852,364.798 25.717,364.293 25.717 C 364.112 25.717,363.603 25.404,363.162 25.022 C 362.288 24.263,361.374 24.095,361.512 24.718 M137.887 28.267 C 136.983 28.680,136.240 29.138,136.236 29.285 C 136.233 29.431,137.011 29.155,137.967 28.671 C 138.923 28.186,139.705 27.715,139.705 27.622 C 139.705 27.419,139.875 27.359,137.887 28.267 M132.362 31.160 C 131.926 31.689,131.959 31.700,132.754 31.287 C 133.919 30.682,134.007 30.582,133.376 30.582 C 133.081 30.582,132.625 30.842,132.362 31.160 M129.562 32.679 C 128.858 33.051,128.189 33.505,128.077 33.687 C 127.915 33.948,130.735 32.564,131.335 32.087 C 131.795 31.722,130.653 32.103,129.562 32.679 M126.304 34.568 C 125.933 34.848,125.795 35.083,125.998 35.089 C 126.200 35.095,126.669 34.870,127.040 34.590 C 127.411 34.309,127.549 34.074,127.347 34.068 C 127.145 34.062,126.675 34.287,126.304 34.568 M115.465 41.048 C 114.844 41.446,114.335 41.838,114.335 41.920 C 114.335 42.074,115.862 41.295,116.768 40.678 C 117.772 39.995,116.583 40.332,115.465 41.048 M107.306 46.307 C 105.829 47.288,104.680 48.150,104.753 48.222 C 104.825 48.294,106.178 47.483,107.759 46.418 C 109.340 45.354,110.489 44.492,110.312 44.503 C 110.136 44.514,108.783 45.326,107.306 46.307 M102.693 49.513 C 101.929 49.984,101.412 50.374,101.544 50.380 C 101.845 50.394,104.257 48.983,104.257 48.793 C 104.257 48.567,104.150 48.616,102.693 49.513 M96.813 53.779 C 96.098 54.305,95.017 55.178,94.411 55.720 L 93.310 56.705 94.874 55.654 C 96.679 54.440,98.618 52.854,98.318 52.836 C 98.206 52.829,97.528 53.254,96.813 53.779 M91.393 57.952 C 90.529 58.667,89.522 59.420,89.154 59.625 C 88.787 59.830,88.414 60.214,88.326 60.478 C 88.172 60.941,89.536 59.945,92.094 57.729 C 93.836 56.219,93.264 56.401,91.393 57.952 M86.485 61.848 C 86.034 62.224,85.836 62.536,86.045 62.543 C 86.254 62.549,86.709 62.242,87.055 61.859 C 87.860 60.970,87.546 60.964,86.485 61.848 M79.649 67.781 C 79.230 68.170,78.888 68.589,78.888 68.710 C 78.888 68.832,79.279 68.564,79.757 68.115 C 80.572 67.349,80.774 67.072,80.517 67.072 C 80.458 67.072,80.067 67.391,79.649 67.781 M72.601 74.461 C 70.229 76.805,68.064 79.034,67.790 79.413 C 67.515 79.793,69.509 77.917,72.221 75.244 C 74.932 72.570,77.150 70.342,77.150 70.291 C 77.150 70.010,76.530 70.578,72.601 74.461 M64.102 83.493 L 62.728 84.970 64.205 83.596 C 65.017 82.840,65.682 82.176,65.682 82.119 C 65.682 81.856,65.379 82.119,64.102 83.493 M59.654 88.559 C 59.021 89.259,58.881 89.825,59.425 89.489 C 59.787 89.265,60.590 87.924,60.361 87.924 C 60.289 87.924,59.971 88.210,59.654 88.559 M57.863 90.704 C 57.515 91.088,57.308 91.481,57.404 91.577 C 57.499 91.672,57.862 91.436,58.210 91.051 C 58.558 90.667,58.765 90.274,58.669 90.178 C 58.574 90.083,58.211 90.319,57.863 90.704 M53.345 97.307 C 53.048 97.880,52.884 98.349,52.980 98.349 C 53.075 98.349,53.396 97.880,53.692 97.307 C 53.989 96.733,54.153 96.264,54.058 96.264 C 53.962 96.264,53.641 96.733,53.345 97.307 M31.266 127.733 C 30.846 128.412,30.562 129.027,30.635 129.100 C 30.708 129.173,31.121 128.617,31.554 127.866 C 32.534 126.162,32.303 126.056,31.266 127.733 M385.674 130.471 C 385.391 131.332,385.287 131.958,385.442 131.862 C 385.752 131.670,386.501 129.218,386.309 129.025 C 386.243 128.960,385.958 129.611,385.674 130.471 M28.391 133.280 C 28.073 133.946,27.885 134.492,27.972 134.492 C 28.210 134.492,29.265 132.364,29.106 132.205 C 29.031 132.130,28.709 132.613,28.391 133.280 M24.580 142.000 C 24.441 142.139,24.331 142.579,24.337 142.977 C 24.347 143.646,24.376 143.653,24.709 143.080 C 25.098 142.412,24.999 141.581,24.580 142.000 M380.061 144.910 C 379.277 146.870,379.397 147.162,380.223 145.301 C 380.596 144.461,380.839 143.712,380.763 143.636 C 380.688 143.560,380.372 144.134,380.061 144.910 M18.081 158.967 C 17.884 159.483,17.735 160.170,17.748 160.492 C 17.762 160.814,17.997 160.465,18.271 159.718 C 18.545 158.970,18.695 158.283,18.604 158.192 C 18.513 158.101,18.277 158.450,18.081 158.967 M373.350 162.066 C 372.951 163.147,372.691 164.031,372.772 164.031 C 373.033 164.031,374.309 160.806,374.189 160.448 C 374.126 160.257,373.748 160.985,373.350 162.066 M16.394 163.944 C 16.008 164.698,15.573 166.464,15.773 166.464 C 15.854 166.464,16.161 165.760,16.454 164.900 C 16.994 163.315,16.963 162.833,16.394 163.944 M21.894 183.838 C 6.597 198.940,5.447 199.983,5.119 199.044 C 5.035 198.805,4.850 199.587,4.708 200.782 C 4.566 201.977,4.335 202.954,4.194 202.954 C 3.945 202.954,3.552 204.628,2.724 209.209 C 2.499 210.452,2.208 211.546,2.077 211.642 C 1.802 211.843,1.203 215.036,0.642 219.288 C -0.724 229.646,0.270 251.260,2.112 251.260 C 2.288 251.260,2.433 251.490,2.433 251.770 C 2.433 252.260,3.752 255.070,4.152 255.430 C 4.257 255.526,4.852 256.620,5.474 257.863 C 6.561 260.037,8.690 263.156,10.571 265.329 C 11.064 265.900,11.468 266.539,11.468 266.751 C 11.468 266.962,11.859 267.312,12.337 267.530 C 12.815 267.748,13.206 268.129,13.206 268.377 C 13.206 268.873,18.256 273.849,18.760 273.849 C 18.933 273.849,19.279 274.123,19.529 274.457 C 20.355 275.564,26.622 280.103,27.325 280.104 C 27.540 280.104,27.909 280.336,28.145 280.620 C 28.381 280.904,29.299 281.490,30.186 281.923 C 31.073 282.356,31.991 282.892,32.226 283.114 C 32.462 283.336,33.400 283.799,34.312 284.143 C 35.223 284.488,36.171 284.967,36.419 285.208 C 36.666 285.449,37.526 285.807,38.330 286.003 C 39.134 286.200,40.339 286.653,41.008 287.010 C 41.677 287.367,43.162 287.923,44.309 288.245 C 45.456 288.567,46.864 289.036,47.437 289.286 C 48.010 289.537,49.652 290.013,51.086 290.345 C 54.214 291.069,57.128 291.821,58.582 292.279 C 59.169 292.464,60.307 292.615,61.111 292.615 C 61.914 292.615,63.413 292.911,64.440 293.272 C 65.468 293.633,67.849 294.204,69.731 294.540 C 71.614 294.876,73.232 295.266,73.328 295.406 C 73.423 295.547,74.440 295.842,75.586 296.063 C 78.238 296.573,84.993 298.120,86.360 298.530 C 86.933 298.702,88.106 298.940,88.966 299.058 C 89.826 299.176,90.843 299.409,91.225 299.577 C 92.065 299.945,98.726 301.303,99.690 301.303 C 100.068 301.303,100.429 301.451,100.492 301.631 C 100.556 301.811,102.016 302.218,103.736 302.535 C 105.456 302.852,107.567 303.346,108.427 303.633 C 109.288 303.919,111.326 304.363,112.958 304.619 C 114.590 304.874,116.623 305.319,117.476 305.607 C 118.329 305.895,120.669 306.460,122.676 306.863 C 124.683 307.266,126.560 307.690,126.846 307.804 C 127.133 307.919,127.746 308.076,128.210 308.153 C 128.673 308.230,129.298 308.422,129.600 308.579 C 129.901 308.736,131.516 309.065,133.189 309.310 C 134.861 309.555,136.229 309.887,136.229 310.047 C 136.229 310.208,136.622 310.339,137.103 310.339 C 137.583 310.339,138.248 310.481,138.580 310.655 C 138.912 310.829,140.394 311.140,141.873 311.345 C 143.352 311.550,144.838 311.875,145.175 312.067 C 145.511 312.259,147.479 312.731,149.548 313.116 C 151.617 313.502,153.577 313.961,153.905 314.136 C 154.532 314.471,159.474 315.535,161.685 315.810 C 162.402 315.899,162.989 316.138,162.989 316.341 C 162.989 316.544,163.071 316.627,163.172 316.526 C 163.274 316.425,164.251 316.569,165.344 316.847 C 166.438 317.124,168.347 317.505,169.587 317.693 C 170.827 317.881,171.921 318.151,172.020 318.293 C 172.118 318.435,174.117 318.912,176.462 319.354 C 178.807 319.796,180.801 320.279,180.894 320.429 C 180.986 320.578,182.586 320.960,184.449 321.277 C 186.312 321.594,188.228 322.020,188.705 322.224 C 189.526 322.573,191.468 322.991,196.699 323.945 C 197.941 324.172,199.036 324.465,199.131 324.596 C 199.227 324.728,201.182 325.187,203.475 325.616 C 205.769 326.045,207.802 326.523,207.993 326.677 C 208.354 326.969,212.333 327.837,215.204 328.251 C 216.112 328.382,216.855 328.621,216.855 328.781 C 216.855 328.942,217.441 329.160,218.158 329.266 C 221.131 329.706,225.752 330.632,226.238 330.885 C 226.525 331.034,228.401 331.483,230.408 331.882 C 232.415 332.281,234.370 332.747,234.752 332.917 C 235.611 333.300,240.031 334.220,242.485 334.527 C 243.488 334.652,244.309 334.871,244.309 335.013 C 244.309 335.344,246.525 335.882,250.043 336.405 C 251.573 336.633,252.980 336.944,253.171 337.096 C 253.362 337.248,255.211 337.708,257.279 338.116 C 259.346 338.525,261.301 338.994,261.623 339.157 C 262.428 339.567,268.949 340.921,270.117 340.921 C 270.640 340.921,271.069 341.077,271.069 341.268 C 271.069 341.460,271.529 341.616,272.091 341.616 C 272.653 341.616,273.195 341.749,273.296 341.913 C 273.397 342.076,274.931 342.406,276.705 342.645 C 278.479 342.885,280.091 343.211,280.286 343.369 C 280.482 343.527,282.281 343.982,284.283 344.382 C 286.285 344.781,288.236 345.263,288.619 345.454 C 289.001 345.644,290.487 346.021,291.920 346.290 C 293.354 346.560,295.221 346.955,296.070 347.169 C 297.884 347.625,299.876 347.511,298.697 347.018 C 298.315 346.858,297.176 346.359,296.167 345.909 C 295.158 345.459,294.247 345.091,294.144 345.091 C 293.940 345.091,276.529 338.246,273.675 337.044 C 271.139 335.976,271.009 335.924,265.508 333.783 C 262.737 332.704,257.498 330.646,253.866 329.208 C 250.235 327.771,242.728 324.804,237.185 322.615 C 231.642 320.426,225.621 318.026,223.805 317.283 C 221.990 316.539,218.315 315.079,215.639 314.037 C 212.963 312.996,204.205 309.540,196.177 306.357 C 188.149 303.175,178.766 299.461,175.326 298.105 C 171.885 296.749,168.601 295.452,168.028 295.221 C 167.454 294.991,165.891 294.369,164.553 293.840 C 163.215 293.310,161.651 292.669,161.077 292.416 C 160.504 292.162,157.728 291.066,154.909 289.981 C 152.089 288.896,149.783 287.867,149.783 287.695 C 149.783 287.330,149.509 287.413,154.648 286.214 C 159.203 285.151,158.861 285.239,167.680 282.873 C 171.312 281.898,175.613 280.703,177.237 280.215 C 183.999 278.188,184.740 277.955,185.404 277.645 C 185.786 277.467,187.350 276.943,188.879 276.481 C 190.408 276.019,193.223 275.070,195.135 274.372 C 197.046 273.674,199.001 272.973,199.479 272.815 C 201.879 272.017,210.292 268.698,216.507 266.095 C 226.034 262.107,241.537 254.688,241.523 254.125 C 241.517 253.897,237.665 251.061,230.552 246.047 C 229.332 245.187,226.349 243.076,223.922 241.355 C 221.496 239.635,218.639 237.618,217.574 236.873 C 216.510 236.128,213.684 234.108,211.295 232.384 C 208.905 230.659,205.699 228.388,204.170 227.336 C 202.641 226.284,200.843 225.002,200.174 224.486 C 199.505 223.971,195.673 221.236,191.659 218.409 C 187.646 215.583,183.736 212.816,182.971 212.260 C 179.593 209.806,167.512 201.210,161.772 197.176 C 159.479 195.564,156.507 193.460,155.169 192.501 C 153.831 191.542,150.391 189.104,147.524 187.084 C 144.657 185.063,141.529 182.828,140.573 182.117 C 135.196 178.116,128.828 173.823,128.472 173.960 C 128.245 174.047,127.096 175.563,125.917 177.328 C 124.738 179.094,122.641 182.181,121.257 184.188 C 119.873 186.195,117.724 189.322,116.482 191.138 C 115.240 192.954,113.204 195.925,111.958 197.741 C 107.572 204.131,105.146 207.676,103.040 210.773 C 96.358 220.600,91.886 227.110,90.476 229.065 C 89.837 229.951,89.314 230.837,89.314 231.034 C 89.314 231.231,89.189 231.445,89.037 231.509 C 88.760 231.624,88.143 232.497,83.916 238.749 C 82.689 240.565,80.934 243.145,80.018 244.483 C 79.101 245.821,76.959 248.949,75.258 251.434 C 73.557 253.918,71.146 257.437,69.902 259.253 C 64.839 266.640,63.954 267.931,61.327 271.764 C 59.820 273.962,57.828 276.855,56.901 278.193 C 55.974 279.531,53.939 282.538,52.380 284.876 C 50.820 287.214,49.424 289.007,49.277 288.860 C 49.129 288.712,48.690 284.767,48.301 280.091 C 47.911 275.415,47.448 270.261,47.273 268.636 C 47.097 267.011,46.783 263.180,46.576 260.122 C 46.368 257.063,46.050 253.623,45.870 252.476 C 45.689 251.329,45.219 246.169,44.824 241.008 C 44.430 235.847,43.792 228.262,43.407 224.153 C 43.022 220.043,42.562 214.883,42.386 212.685 C 42.210 210.487,41.827 206.108,41.534 202.954 C 41.241 199.800,40.848 195.578,40.662 193.571 C 40.476 191.564,40.080 186.872,39.782 183.145 C 38.972 172.998,38.441 168.443,38.054 168.330 C 37.863 168.274,30.591 175.253,21.894 183.838 M14.100 170.138 C 13.972 170.647,13.934 171.131,14.016 171.213 C 14.098 171.295,14.270 170.945,14.397 170.436 C 14.525 169.926,14.563 169.443,14.481 169.361 C 14.399 169.279,14.227 169.628,14.100 170.138 M11.700 176.774 C 11.573 176.901,11.478 177.331,11.490 177.730 C 11.511 178.395,11.539 178.386,11.845 177.621 C 12.186 176.770,12.115 176.359,11.700 176.774 M9.789 183.029 C 9.553 183.909,9.422 184.690,9.498 184.766 C 9.573 184.841,9.834 184.190,10.078 183.319 C 10.322 182.448,10.453 181.666,10.369 181.582 C 10.285 181.498,10.024 182.150,9.789 183.029 M7.883 188.491 C 7.752 188.831,7.655 189.371,7.668 189.690 C 7.682 190.074,7.803 189.986,8.025 189.430 C 8.209 188.969,8.306 188.429,8.241 188.232 C 8.175 188.034,8.014 188.150,7.883 188.491 M360.686 194.419 C 360.375 195.290,360.176 196.003,360.243 196.003 C 360.537 196.003,361.456 193.821,361.359 193.353 C 361.300 193.068,360.997 193.548,360.686 194.419 M359.508 197.133 C 358.664 199.470,358.312 200.652,358.429 200.769 C 358.505 200.845,358.888 199.961,359.278 198.803 C 359.856 197.093,360.061 195.605,359.508 197.133 M352.459 215.361 C 352.242 216.067,352.122 216.703,352.192 216.774 C 352.262 216.844,352.508 216.333,352.737 215.639 C 352.966 214.944,353.086 214.308,353.003 214.225 C 352.921 214.143,352.676 214.654,352.459 215.361 M350.364 221.004 C 350.138 221.651,350.028 222.255,350.119 222.346 C 350.351 222.578,351.049 220.654,350.898 220.200 C 350.830 219.995,350.589 220.357,350.364 221.004 M343.875 237.706 C 343.744 238.117,343.716 238.532,343.811 238.628 C 343.907 238.723,344.092 238.465,344.222 238.054 C 344.353 237.643,344.381 237.228,344.286 237.133 C 344.190 237.037,344.005 237.295,343.875 237.706 M342.002 242.263 C 341.788 242.877,341.674 243.440,341.748 243.515 C 341.822 243.589,342.058 243.147,342.272 242.533 C 342.487 241.919,342.601 241.356,342.527 241.281 C 342.452 241.207,342.216 241.649,342.002 242.263 M335.399 259.340 C 335.055 260.373,335.067 260.412,335.539 259.795 C 335.823 259.424,336.056 258.915,336.056 258.665 C 336.056 257.890,335.793 258.160,335.399 259.340 M333.822 263.100 C 333.500 264.085,333.299 264.953,333.376 265.029 C 333.452 265.106,333.776 264.361,334.095 263.373 C 334.413 262.386,334.614 261.518,334.541 261.445 C 334.467 261.371,334.143 262.116,333.822 263.100 M331.944 268.115 C 331.696 268.879,331.418 269.739,331.327 270.026 C 331.236 270.313,331.490 269.950,331.892 269.220 C 332.293 268.490,332.571 267.630,332.509 267.308 C 332.444 266.971,332.206 267.311,331.944 268.115 M329.974 272.806 C 329.843 273.217,329.815 273.632,329.910 273.727 C 330.006 273.823,330.191 273.565,330.321 273.154 C 330.452 272.743,330.480 272.328,330.385 272.233 C 330.289 272.137,330.104 272.395,329.974 272.806 M327.234 279.971 C 326.507 282.103,326.738 282.334,327.528 280.265 C 327.862 279.389,328.059 278.595,327.965 278.500 C 327.870 278.406,327.541 279.068,327.234 279.971 M325.556 284.457 C 325.449 284.835,325.255 285.456,325.126 285.838 C 324.996 286.221,325.145 286.094,325.456 285.557 C 325.767 285.020,325.961 284.398,325.887 284.176 C 325.812 283.953,325.664 284.080,325.556 284.457 M323.715 289.028 C 323.421 289.731,323.226 290.443,323.282 290.609 C 323.337 290.775,323.646 290.200,323.968 289.331 C 324.668 287.441,324.475 287.210,323.715 289.028 M319.106 301.043 C 318.514 302.679,318.596 303.122,319.223 301.677 C 319.507 301.022,319.693 300.347,319.636 300.175 C 319.579 300.004,319.340 300.394,319.106 301.043 M316.866 306.673 C 316.544 307.542,316.349 308.254,316.432 308.254 C 316.675 308.254,317.664 305.729,317.553 305.394 C 317.497 305.228,317.188 305.803,316.866 306.673 M315.533 309.866 C 315.342 310.370,315.249 310.847,315.328 310.926 C 315.407 311.005,315.638 310.592,315.841 310.009 C 316.293 308.713,316.020 308.586,315.533 309.866 M308.696 327.529 C 308.465 328.281,308.345 328.965,308.429 329.049 C 308.669 329.289,309.336 327.311,309.220 326.706 C 309.162 326.407,308.926 326.778,308.696 327.529 M305.164 336.490 C 304.613 337.961,304.384 338.836,304.549 338.836 C 304.639 338.836,304.953 338.132,305.246 337.272 C 305.781 335.700,305.711 335.028,305.164 336.490 M302.386 343.760 C 302.364 344.078,302.256 344.626,302.146 344.976 C 301.956 345.579,301.967 345.580,302.343 344.993 C 302.561 344.653,302.669 344.106,302.583 343.777 C 302.442 343.239,302.422 343.237,302.386 343.760 " stroke="none" fill="#980f14" fill-rule="evenodd"></path><path id="path1" d="M259.079 0.322 L 256.646 0.521 257.759 1.129 C 258.370 1.464,259.174 1.738,259.545 1.738 C 260.556 1.738,266.521 3.339,269.035 4.286 C 295.358 14.194,298.423 39.604,276.950 69.890 C 267.763 82.847,253.430 97.174,238.051 108.773 C 235.663 110.574,233.553 112.173,233.362 112.328 C 228.871 115.951,211.109 127.389,204.692 130.789 C 203.831 131.245,201.642 132.441,199.826 133.446 C 196.134 135.490,183.677 141.703,179.670 143.499 C 173.762 146.148,161.504 151.123,159.513 151.680 C 159.036 151.814,158.175 152.133,157.602 152.389 C 156.265 152.986,145.148 156.614,141.964 157.492 C 89.669 171.911,53.134 166.533,43.004 142.924 C 39.989 135.896,40.619 123.566,44.440 114.857 C 46.420 110.341,47.690 107.706,49.261 104.849 C 51.415 100.933,51.524 99.869,49.494 102.572 C 48.726 103.595,46.503 106.490,44.553 109.006 C 42.603 111.522,41.008 113.738,41.008 113.929 C 41.008 114.121,40.887 114.330,40.739 114.393 C 40.504 114.495,37.392 118.675,36.726 119.783 C 36.591 120.008,36.719 125.560,37.011 132.120 C 37.302 138.681,37.758 149.181,38.024 155.454 C 38.290 161.727,38.600 166.953,38.714 167.066 C 38.987 167.339,43.182 167.697,53.692 168.344 C 58.471 168.638,64.257 169.042,66.551 169.241 C 70.830 169.612,77.142 170.043,87.228 170.651 C 90.382 170.842,94.996 171.151,97.480 171.338 C 99.965 171.526,105.673 171.913,110.165 172.198 C 114.657 172.483,120.542 172.886,123.244 173.094 L 128.156 173.471 136.450 169.485 C 141.011 167.293,147.402 164.212,150.652 162.638 C 153.901 161.065,157.967 159.112,159.687 158.300 C 164.648 155.956,169.373 153.700,174.805 151.082 C 184.699 146.312,189.973 143.778,193.397 142.149 C 195.308 141.239,200.938 138.539,205.908 136.148 C 210.877 133.756,216.586 131.014,218.593 130.054 C 220.599 129.093,224.353 127.293,226.933 126.053 C 229.513 124.814,236.082 121.662,241.529 119.049 C 253.135 113.483,251.288 115.050,257.942 105.126 C 260.890 100.730,264.788 94.944,266.604 92.268 C 268.421 89.592,273.413 82.163,277.699 75.760 C 281.984 69.357,285.575 64.040,285.679 63.944 C 285.782 63.849,286.594 62.676,287.482 61.338 C 289.435 58.398,297.002 47.197,300.706 41.763 C 303.884 37.101,303.781 37.839,301.685 34.698 C 300.748 33.294,297.726 28.705,294.968 24.500 C 292.210 20.295,287.636 13.341,284.803 9.047 C 281.970 4.752,279.579 0.960,279.490 0.619 C 279.322 -0.022,265.701 -0.220,259.079 0.322 " stroke="none" fill="#fbf6f6" fill-rule="evenodd"></path><path id="path2" d="M226.551 0.150 C 226.456 0.246,225.838 0.394,225.178 0.479 C 224.519 0.565,222.024 0.888,219.635 1.198 C 214.389 1.877,211.358 2.395,210.426 2.771 C 210.043 2.925,207.776 3.442,205.387 3.919 C 202.997 4.396,200.339 4.957,199.479 5.167 C 198.619 5.376,197.055 5.733,196.003 5.960 C 194.952 6.186,193.893 6.525,193.649 6.711 C 193.406 6.897,193.107 6.950,192.986 6.829 C 192.865 6.708,192.595 6.744,192.386 6.908 C 192.178 7.072,191.147 7.406,190.096 7.649 C 189.044 7.892,187.793 8.249,187.315 8.443 C 186.292 8.857,186.572 8.769,182.624 9.921 C 180.904 10.423,179.333 10.968,179.134 11.133 C 178.935 11.298,178.004 11.605,177.065 11.815 C 176.126 12.026,174.881 12.422,174.299 12.695 C 172.676 13.458,169.149 14.617,168.976 14.444 C 168.892 14.360,168.522 14.570,168.155 14.912 C 167.788 15.254,166.827 15.728,166.020 15.964 C 165.213 16.201,163.927 16.686,163.162 17.044 C 162.398 17.401,160.678 18.111,159.340 18.620 C 158.002 19.130,155.656 20.136,154.127 20.856 C 152.598 21.575,150.330 22.633,149.088 23.206 C 147.845 23.778,145.772 24.734,144.480 25.330 C 143.188 25.926,141.937 26.453,141.700 26.500 C 141.463 26.547,141.190 26.664,141.095 26.759 C 140.343 27.511,138.439 28.584,137.788 28.623 C 137.350 28.649,137.055 28.774,137.133 28.901 C 137.211 29.027,135.984 29.768,134.406 30.546 C 132.829 31.324,130.678 32.457,129.626 33.062 C 128.575 33.668,126.933 34.591,125.977 35.113 C 122.940 36.772,120.775 38.019,120.417 38.315 C 120.226 38.474,118.818 39.372,117.289 40.313 C 115.760 41.253,114.353 42.154,114.162 42.315 C 113.970 42.475,113.554 42.706,113.236 42.827 C 112.918 42.949,111.432 43.890,109.934 44.919 C 108.437 45.948,105.960 47.636,104.431 48.671 C 102.902 49.705,101.494 50.673,101.303 50.822 C 98.757 52.811,95.492 55.282,94.526 55.951 C 93.858 56.414,91.773 58.051,89.895 59.587 C 88.016 61.123,86.218 62.541,85.898 62.738 C 85.579 62.935,84.656 63.717,83.848 64.476 C 83.040 65.235,81.633 66.481,80.721 67.246 C 71.454 75.011,51.349 98.133,52.007 100.268 C 52.064 100.455,51.664 101.390,51.118 102.346 C 50.572 103.301,49.677 104.944,49.129 105.995 C 48.581 107.046,48.015 107.958,47.871 108.022 C 47.728 108.086,47.611 108.336,47.611 108.578 C 47.611 108.821,47.215 109.763,46.732 110.672 C 40.605 122.195,39.767 135.963,44.610 145.520 C 46.527 149.302,53.686 156.733,55.414 156.733 C 55.678 156.733,55.946 156.870,56.009 157.038 C 56.366 157.977,65.863 161.882,69.570 162.615 C 70.585 162.816,72.922 163.283,74.762 163.652 C 88.150 166.340,111.403 164.800,131.190 159.914 C 142.364 157.155,159.810 151.651,164.900 149.279 C 165.474 149.011,166.855 148.452,167.971 148.035 C 169.087 147.619,170.416 147.060,170.925 146.795 C 171.434 146.529,171.974 146.311,172.125 146.310 C 172.933 146.303,191.953 137.298,197.915 134.099 C 201.574 132.135,210.586 126.968,211.878 126.092 C 212.677 125.551,213.443 125.109,213.580 125.109 C 213.853 125.109,214.710 124.556,222.937 119.072 C 230.083 114.308,231.895 113.027,236.277 109.644 C 238.257 108.115,240.210 106.637,240.616 106.360 C 244.804 103.507,257.265 92.150,264.141 84.918 C 268.689 80.135,277.699 68.742,279.597 65.376 C 279.987 64.684,280.809 63.336,281.424 62.381 C 290.242 48.673,293.081 32.539,288.546 21.898 C 284.290 11.915,272.357 3.906,258.732 1.890 C 257.776 1.748,256.838 1.423,256.646 1.167 C 256.059 0.379,227.294 -0.593,226.551 0.150 M301.944 40.555 C 301.085 41.855,299.207 44.639,297.771 46.742 C 296.334 48.844,294.744 51.190,294.237 51.955 C 293.730 52.719,291.633 55.813,289.577 58.829 C 287.521 61.845,285.547 64.816,285.192 65.432 C 284.836 66.047,283.806 67.569,282.903 68.813 C 282.000 70.057,281.055 71.464,280.804 71.941 C 280.553 72.417,280.252 72.884,280.134 72.980 C 279.915 73.158,273.256 82.968,272.633 84.031 C 272.443 84.356,271.896 85.169,271.419 85.838 C 269.510 88.512,268.288 90.350,268.288 90.546 C 268.288 90.660,268.093 90.964,267.854 91.221 C 267.615 91.478,266.752 92.679,265.936 93.890 C 254.161 111.354,252.834 113.412,253.258 113.554 C 253.497 113.633,253.692 113.888,253.692 114.120 C 253.692 114.361,254.845 114.805,256.386 115.157 C 257.867 115.496,264.474 117.100,271.069 118.722 C 277.663 120.344,285.639 122.296,288.792 123.059 C 302.632 126.411,307.507 127.604,309.296 128.079 C 312.374 128.895,328.103 132.779,329.669 133.109 C 330.456 133.275,333.897 134.116,337.314 134.976 C 340.731 135.837,345.248 136.951,347.350 137.452 C 357.727 139.925,369.704 142.863,370.634 143.163 C 371.208 143.348,372.347 143.605,373.166 143.734 L 374.654 143.968 372.123 140.228 C 370.731 138.171,369.435 136.250,369.244 135.959 C 369.053 135.668,367.424 133.225,365.624 130.530 C 362.396 125.697,355.898 115.953,353.924 112.986 C 353.367 112.148,352.520 110.862,352.042 110.128 C 351.564 109.394,347.732 103.704,343.527 97.484 C 339.322 91.263,335.725 85.903,335.532 85.572 C 335.340 85.241,334.323 83.719,333.273 82.189 C 332.223 80.660,331.286 79.253,331.190 79.062 C 331.095 78.871,329.908 77.072,328.554 75.065 C 327.200 73.058,321.278 64.222,315.395 55.430 C 302.306 35.868,303.886 37.615,301.944 40.555 M250.565 115.103 C 249.896 115.455,246.455 117.128,242.919 118.822 C 239.383 120.516,233.988 123.110,230.930 124.587 C 227.871 126.064,224.509 127.660,223.458 128.134 C 222.407 128.608,218.888 130.291,215.639 131.874 C 208.688 135.261,201.847 138.559,196.525 141.089 C 194.422 142.088,190.747 143.852,188.358 145.007 C 185.969 146.163,182.450 147.848,180.539 148.752 C 174.818 151.458,169.347 154.071,164.379 156.470 C 161.798 157.716,157.811 159.632,155.517 160.728 C 153.223 161.824,149.001 163.855,146.134 165.242 C 140.526 167.954,132.833 171.648,130.358 172.817 L 128.830 173.538 129.837 174.357 C 130.390 174.807,131.859 175.861,133.102 176.698 C 134.344 177.536,136.455 178.993,137.793 179.937 C 142.565 183.304,154.521 191.829,157.253 193.812 C 158.781 194.922,160.502 196.122,161.076 196.480 C 161.650 196.837,162.172 197.267,162.236 197.436 C 162.299 197.604,162.507 197.741,162.697 197.741 C 162.886 197.741,163.929 198.410,165.013 199.227 C 166.098 200.044,167.649 201.178,168.461 201.746 C 169.272 202.315,170.523 203.216,171.241 203.749 C 171.958 204.282,173.406 205.298,174.457 206.007 C 175.508 206.716,176.493 207.492,176.646 207.731 C 176.799 207.971,177.071 208.167,177.250 208.167 C 177.429 208.167,178.816 209.066,180.332 210.165 C 183.250 212.279,193.781 219.795,195.062 220.678 C 196.393 221.595,207.240 229.276,208.862 230.451 C 209.722 231.073,211.208 232.151,212.163 232.846 C 213.119 233.540,215.115 234.957,216.598 235.994 C 220.237 238.538,227.178 243.473,230.582 245.936 C 235.658 249.609,241.620 253.718,241.723 253.614 C 241.862 253.476,242.524 245.947,242.755 241.877 C 242.858 240.061,243.174 235.604,243.455 231.972 C 243.737 228.341,244.116 223.102,244.298 220.330 C 244.682 214.477,245.536 202.679,246.045 196.177 C 246.240 193.692,246.551 189.235,246.737 186.273 C 247.654 171.665,247.790 169.678,247.948 168.549 C 248.042 167.880,248.281 164.518,248.479 161.077 C 248.677 157.637,248.990 153.180,249.175 151.173 C 249.360 149.166,249.828 142.754,250.214 136.924 C 251.064 124.121,251.185 122.440,251.573 117.984 C 251.740 116.073,251.855 114.499,251.829 114.486 C 251.803 114.473,251.234 114.751,250.565 115.103 M387.145 125.022 C 386.757 125.738,386.293 126.560,386.115 126.846 C 385.936 127.133,384.824 129.088,383.644 131.190 C 381.230 135.491,377.036 141.958,374.631 145.091 C 373.750 146.238,372.543 147.890,371.947 148.762 C 371.352 149.634,369.953 151.452,368.838 152.803 C 367.723 154.153,365.560 156.792,364.031 158.667 C 355.573 169.038,339.573 185.127,326.794 196.112 L 323.266 199.144 322.876 201.383 C 322.662 202.615,322.340 204.684,322.162 205.982 C 321.983 207.279,321.685 209.279,321.499 210.426 C 321.142 212.640,320.407 217.503,318.705 228.937 C 318.128 232.811,317.414 237.375,317.119 239.078 C 316.823 240.782,316.441 243.242,316.269 244.546 C 316.097 245.849,315.703 248.555,315.394 250.558 C 315.085 252.562,314.765 254.673,314.682 255.250 C 314.525 256.352,313.500 263.038,312.629 268.636 C 312.346 270.452,311.711 274.752,311.218 278.193 C 310.724 281.633,310.092 285.778,309.813 287.402 C 309.534 289.027,309.070 291.920,308.780 293.831 C 308.491 295.743,307.854 299.887,307.365 303.041 C 306.875 306.195,306.175 310.886,305.809 313.467 C 305.060 318.738,304.331 323.560,303.390 329.453 C 303.039 331.651,302.491 335.248,302.172 337.446 C 301.853 339.644,301.449 342.193,301.274 343.110 C 300.489 347.222,301.393 347.817,302.388 343.843 C 302.623 342.905,303.160 341.434,303.581 340.573 C 304.002 339.713,304.614 338.186,304.940 337.180 C 305.266 336.174,305.746 335.137,306.008 334.876 C 306.269 334.615,306.406 334.323,306.311 334.229 C 306.216 334.134,306.517 333.216,306.978 332.189 C 307.440 331.162,308.172 329.227,308.603 327.889 C 309.035 326.551,309.523 325.285,309.687 325.077 C 309.851 324.868,309.886 324.598,309.765 324.477 C 309.644 324.355,309.791 324.161,310.093 324.045 C 310.422 323.919,310.558 323.614,310.432 323.285 C 310.281 322.892,310.352 322.817,310.681 323.020 C 310.969 323.198,311.058 323.169,310.918 322.943 C 310.628 322.475,311.316 320.473,312.127 319.420 C 312.476 318.968,312.687 318.476,312.595 318.328 C 312.383 317.984,314.159 313.467,314.507 313.466 C 314.604 313.465,314.714 313.019,314.752 312.473 C 314.790 311.927,315.220 310.608,315.708 309.542 C 316.195 308.475,316.594 307.428,316.594 307.213 C 316.594 306.998,316.775 306.934,316.995 307.071 C 317.228 307.214,317.303 307.167,317.173 306.957 C 316.956 306.605,317.547 304.431,317.954 304.083 C 318.066 303.988,318.442 303.077,318.790 302.059 C 319.137 301.041,319.750 299.477,320.152 298.583 C 321.018 296.655,320.927 296.923,321.265 295.308 C 321.414 294.592,321.676 294.005,321.846 294.005 C 322.016 294.005,322.138 293.888,322.117 293.745 C 322.041 293.220,322.592 291.920,322.890 291.920 C 323.059 291.920,323.158 291.803,323.111 291.659 C 322.951 291.179,324.014 287.750,324.323 287.750 C 324.491 287.750,324.531 287.592,324.412 287.400 C 324.293 287.207,324.439 286.956,324.737 286.842 C 325.035 286.728,325.209 286.522,325.125 286.386 C 325.040 286.249,325.666 284.271,326.516 281.991 C 327.366 279.711,328.061 277.650,328.062 277.411 C 328.062 277.172,328.228 276.977,328.431 276.977 C 328.633 276.977,328.712 276.837,328.606 276.665 C 328.501 276.494,328.645 276.266,328.928 276.157 C 329.245 276.035,329.354 275.735,329.214 275.369 C 329.089 275.043,329.130 274.866,329.307 274.975 C 329.483 275.083,329.650 274.778,329.679 274.296 C 329.745 273.195,330.842 270.721,331.264 270.721 C 331.437 270.721,331.492 270.581,331.387 270.411 C 331.216 270.134,331.659 268.763,332.577 266.725 C 332.750 266.342,333.160 265.137,333.489 264.047 C 333.821 262.949,334.240 262.159,334.430 262.276 C 334.619 262.393,334.665 262.314,334.534 262.101 C 334.402 261.888,334.455 261.434,334.651 261.091 C 334.847 260.749,335.728 258.593,336.609 256.299 C 337.490 254.005,338.310 251.972,338.431 251.781 C 338.552 251.590,338.667 251.355,338.685 251.260 C 338.892 250.193,339.318 249.175,339.558 249.175 C 339.722 249.175,339.767 248.940,339.657 248.653 C 339.546 248.367,339.612 248.132,339.803 248.132 C 339.993 248.132,340.141 247.937,340.133 247.698 C 340.088 246.507,340.254 246.023,340.627 246.254 C 340.870 246.404,340.934 246.350,340.789 246.115 C 340.658 245.902,340.703 245.448,340.891 245.105 C 341.476 244.037,344.396 236.489,344.396 236.044 C 344.396 235.811,344.553 235.621,344.744 235.621 C 344.935 235.621,345.066 235.504,345.034 235.361 C 344.917 234.824,345.527 233.189,345.844 233.189 C 346.026 233.189,346.090 233.052,345.987 232.884 C 345.783 232.554,346.787 229.302,347.180 229.018 C 347.313 228.923,347.730 227.944,348.108 226.844 C 348.485 225.744,348.924 224.962,349.083 225.107 C 349.243 225.251,349.271 225.191,349.147 224.974 C 349.023 224.756,349.403 223.427,349.991 222.020 C 350.579 220.613,351.109 219.305,351.168 219.114 C 351.658 217.526,351.816 217.202,352.103 217.202 C 352.283 217.202,352.341 217.058,352.231 216.880 C 351.975 216.465,353.328 212.838,353.984 212.182 C 354.261 211.905,354.449 211.554,354.403 211.400 C 354.224 210.809,355.278 207.834,355.903 207.163 C 356.264 206.775,356.560 206.156,356.560 205.787 C 356.560 205.417,356.862 204.440,357.231 203.615 C 357.600 202.791,357.825 201.991,357.730 201.837 C 357.635 201.684,357.802 201.465,358.099 201.351 C 358.397 201.237,358.562 201.016,358.465 200.859 C 358.368 200.703,358.696 199.507,359.194 198.202 C 359.691 196.897,360.445 194.926,360.869 193.823 C 361.292 192.719,361.747 191.898,361.879 191.998 C 362.012 192.099,362.047 192.082,361.958 191.961 C 361.870 191.841,361.979 191.410,362.202 191.006 C 362.425 190.601,362.653 189.997,362.708 189.664 C 362.830 188.936,365.086 182.790,365.887 181.004 C 366.201 180.305,366.601 179.821,366.775 179.929 C 366.950 180.036,366.982 179.946,366.846 179.726 C 366.636 179.385,367.203 177.745,369.451 172.198 C 369.684 171.625,369.905 170.999,369.943 170.808 C 370.136 169.845,370.564 168.920,370.761 169.041 C 370.882 169.116,371.004 168.808,371.031 168.356 C 371.058 167.904,371.410 166.853,371.813 166.020 C 372.216 165.188,372.546 164.312,372.546 164.075 C 372.546 163.837,372.726 163.754,372.947 163.891 C 373.181 164.035,373.254 163.987,373.123 163.774 C 372.881 163.382,373.536 161.280,374.640 158.909 C 375.017 158.099,375.326 157.278,375.326 157.085 C 375.326 156.891,375.449 156.733,375.599 156.733 C 375.749 156.733,375.892 156.460,375.918 156.125 C 376.005 154.966,377.018 152.216,377.358 152.215 C 377.483 152.215,377.609 151.790,377.640 151.270 C 377.670 150.751,377.866 150.268,378.076 150.198 C 378.286 150.128,378.365 149.921,378.252 149.738 C 378.139 149.555,378.190 149.216,378.365 148.986 C 378.540 148.755,379.202 147.237,379.837 145.613 C 380.471 143.988,381.084 142.580,381.198 142.485 C 381.313 142.389,381.463 141.920,381.530 141.442 C 381.597 140.964,381.826 140.261,382.038 139.878 C 382.250 139.496,382.385 139.050,382.338 138.886 C 382.291 138.723,382.387 138.410,382.552 138.191 C 382.717 137.972,383.134 137.011,383.479 136.056 C 383.824 135.100,384.476 133.492,384.929 132.483 C 385.381 131.474,385.752 130.495,385.752 130.307 C 385.752 129.784,387.246 126.688,387.562 126.556 C 387.715 126.492,387.753 126.296,387.645 126.121 C 387.537 125.947,387.575 125.803,387.729 125.803 C 387.884 125.803,388.043 125.333,388.083 124.760 C 388.179 123.396,387.998 123.446,387.145 125.022 " stroke="none" fill="#eb1424" fill-rule="evenodd"></path><path id="path3" d="M279.478 0.575 C 279.574 0.940,281.970 4.752,284.803 9.047 C 287.636 13.341,292.210 20.295,294.968 24.500 C 297.726 28.705,300.748 33.294,301.685 34.698 C 303.781 37.839,303.884 37.101,300.706 41.763 C 297.002 47.197,289.435 58.398,287.482 61.338 C 286.594 62.676,285.782 63.849,285.679 63.944 C 285.575 64.040,281.984 69.357,277.699 75.760 C 273.413 82.163,268.421 89.592,266.604 92.268 C 264.788 94.944,260.890 100.730,257.942 105.126 C 254.995 109.522,252.324 113.383,252.008 113.707 C 251.516 114.210,244.667 117.578,225.461 126.760 C 223.218 127.833,221.439 128.766,221.508 128.835 C 221.706 129.033,222.760 128.539,241.877 119.292 C 244.457 118.044,247.663 116.514,249.001 115.892 C 252.255 114.379,252.834 113.646,263.532 97.480 C 265.883 93.927,267.456 91.649,267.854 91.221 C 268.093 90.964,268.288 90.660,268.288 90.546 C 268.288 90.350,269.510 88.512,271.419 85.838 C 271.896 85.169,272.443 84.356,272.633 84.031 C 273.256 82.968,279.915 73.158,280.134 72.980 C 280.252 72.884,280.553 72.417,280.804 71.941 C 281.055 71.464,282.000 70.057,282.903 68.813 C 283.806 67.569,284.836 66.048,285.192 65.434 C 285.547 64.820,287.480 61.932,289.487 59.017 C 291.494 56.102,293.449 53.205,293.831 52.581 C 294.214 51.956,295.934 49.397,297.654 46.893 C 299.374 44.390,301.500 41.220,302.378 39.850 C 303.901 37.472,304.058 37.338,305.853 36.891 C 307.981 36.362,317.191 34.365,322.155 33.357 C 323.970 32.988,326.082 32.528,326.846 32.335 C 327.611 32.142,333.397 30.884,339.705 29.541 C 346.012 28.197,352.424 26.791,353.953 26.416 C 355.482 26.040,357.802 25.555,359.108 25.337 C 361.644 24.913,361.710 24.672,359.513 23.864 C 358.749 23.583,356.872 22.856,355.343 22.248 C 353.814 21.640,350.999 20.588,349.088 19.909 C 345.804 18.742,344.513 18.342,336.924 16.137 C 335.204 15.638,333.328 15.026,332.754 14.777 C 332.181 14.529,330.617 14.058,329.279 13.730 C 327.941 13.402,326.592 12.998,326.281 12.833 C 325.969 12.667,324.171 12.199,322.284 11.792 C 320.397 11.385,318.697 10.924,318.506 10.769 C 318.315 10.613,316.775 10.152,315.085 9.743 C 313.394 9.335,311.752 8.861,311.436 8.690 C 310.863 8.381,305.430 6.772,300.782 5.537 C 299.444 5.181,298.037 4.737,297.654 4.551 C 294.663 3.093,288.428 1.299,284.101 0.653 C 282.763 0.453,281.136 0.204,280.487 0.100 C 279.452 -0.065,279.327 -0.006,279.478 0.575 M256.973 1.227 C 257.344 1.508,257.892 1.732,258.190 1.725 C 258.537 1.717,258.420 1.535,257.863 1.216 C 256.726 0.566,256.110 0.574,256.973 1.227 M259.427 1.967 C 264.388 3.025,271.575 5.555,274.815 7.383 C 275.882 7.985,276.637 8.287,276.492 8.053 C 275.514 6.471,262.364 1.621,259.475 1.778 C 258.779 1.816,258.776 1.828,259.427 1.967 M277.810 9.142 C 281.917 12.251,283.181 13.511,286.630 17.926 C 287.335 18.829,287.378 18.845,287.019 18.071 C 285.833 15.518,278.424 8.270,277.090 8.360 C 276.932 8.370,277.256 8.722,277.810 9.142 M287.515 19.548 C 287.618 19.787,288.178 21.092,288.759 22.449 C 293.073 32.512,290.049 48.973,281.424 62.381 C 280.809 63.336,279.987 64.684,279.597 65.376 C 277.699 68.742,268.689 80.135,264.141 84.918 C 257.265 92.150,244.804 103.507,240.616 106.360 C 240.210 106.637,238.257 108.115,236.277 109.644 C 231.895 113.027,230.083 114.308,222.937 119.072 C 214.710 124.556,213.853 125.109,213.580 125.109 C 213.443 125.109,212.677 125.551,211.878 126.091 C 211.079 126.631,208.970 127.899,207.191 128.909 C 205.412 129.918,204.036 130.824,204.134 130.922 C 204.231 131.020,204.827 130.783,205.457 130.397 C 206.087 130.010,208.010 128.878,209.731 127.879 C 216.212 124.118,229.970 115.064,233.362 112.328 C 233.553 112.173,235.663 110.574,238.051 108.773 C 250.575 99.327,263.500 87.009,272.160 76.263 C 289.418 54.849,295.401 33.944,288.237 20.090 C 287.744 19.137,287.144 18.686,287.515 19.548 M51.520 100.337 C 51.281 100.423,51.086 100.726,51.086 101.011 C 51.086 101.297,50.254 103.043,49.237 104.892 C 47.686 107.712,46.417 110.349,44.440 114.857 C 42.475 119.334,41.332 124.960,41.189 130.843 L 41.063 136.056 41.360 131.017 C 41.774 123.974,43.861 116.071,46.732 110.672 C 47.215 109.763,47.611 108.821,47.611 108.578 C 47.611 108.336,47.728 108.086,47.871 108.022 C 48.015 107.958,48.635 106.968,49.250 105.821 C 49.865 104.674,50.775 102.977,51.272 102.051 C 52.212 100.296,52.244 100.079,51.520 100.337 M36.142 120.707 C 36.142 121.025,35.893 121.560,35.588 121.894 C 34.375 123.224,31.159 128.608,29.515 132.059 C 28.559 134.066,27.626 135.980,27.442 136.312 C 27.258 136.643,26.731 137.973,26.271 139.265 C 25.066 142.655,23.676 146.319,23.137 147.524 C 22.881 148.097,22.479 149.192,22.244 149.957 C 22.009 150.721,21.624 151.659,21.388 152.042 C 21.152 152.424,20.601 153.831,20.164 155.169 C 19.727 156.507,19.254 157.758,19.114 157.950 C 18.973 158.141,18.584 159.157,18.249 160.209 C 17.914 161.260,17.428 162.589,17.169 163.162 C 16.909 163.736,16.320 165.300,15.860 166.638 C 11.189 180.224,10.050 183.607,9.545 185.404 C 9.223 186.551,8.820 187.638,8.650 187.819 C 8.480 188.001,8.341 188.556,8.341 189.053 C 8.341 189.550,8.206 190.105,8.041 190.287 C 7.876 190.468,7.474 191.709,7.148 193.043 C 6.822 194.377,6.431 195.628,6.279 195.823 C 6.127 196.018,5.895 196.881,5.764 197.741 L 5.525 199.305 6.984 197.915 C 7.786 197.150,12.446 192.596,17.340 187.794 C 33.425 172.012,37.949 167.680,38.348 167.680 C 38.843 167.680,39.072 169.374,39.783 178.280 C 40.096 182.198,40.569 187.593,40.834 190.269 C 41.099 192.945,41.409 196.542,41.522 198.262 C 41.636 199.983,41.869 202.798,42.041 204.518 C 42.352 207.625,42.632 210.755,43.643 222.415 C 43.933 225.760,44.312 229.983,44.484 231.798 C 44.657 233.614,45.039 237.993,45.333 241.529 C 45.626 245.065,46.019 249.600,46.205 251.607 C 46.391 253.614,46.788 258.071,47.087 261.512 C 47.387 264.952,47.857 270.191,48.133 273.154 C 48.409 276.116,48.810 280.652,49.025 283.232 C 49.239 285.812,49.459 287.970,49.513 288.026 C 49.643 288.161,51.884 285.001,56.337 278.402 C 60.798 271.792,63.793 267.390,66.824 262.989 C 69.063 259.737,70.485 257.667,76.143 249.427 C 77.557 247.367,78.949 245.310,79.235 244.855 C 79.522 244.401,80.656 242.767,81.755 241.226 C 82.854 239.685,83.753 238.275,83.753 238.094 C 83.753 237.913,83.890 237.712,84.058 237.648 C 84.225 237.585,86.151 234.874,88.338 231.625 C 92.445 225.520,96.888 219.027,97.374 218.419 C 97.527 218.228,98.473 216.851,99.478 215.361 C 105.094 207.021,107.053 204.135,107.309 203.823 C 107.466 203.632,109.237 201.051,111.245 198.089 C 117.881 188.294,119.638 185.759,120.292 185.034 C 120.647 184.639,120.938 184.198,120.938 184.052 C 120.938 183.907,121.731 182.666,122.699 181.295 C 123.668 179.923,125.293 177.609,126.312 176.152 L 128.164 173.503 126.028 173.288 C 124.853 173.170,119.983 172.839,115.204 172.553 C 110.426 172.267,104.483 171.874,101.998 171.680 C 94.508 171.095,92.849 170.978,87.055 170.635 C 77.622 170.075,70.902 169.618,66.551 169.241 C 64.257 169.042,58.471 168.638,53.692 168.344 C 43.182 167.697,38.987 167.339,38.714 167.066 C 38.600 166.953,38.290 161.727,38.024 155.454 C 36.928 129.604,36.485 120.469,36.318 120.303 C 36.222 120.206,36.142 120.388,36.142 120.707 M218.990 129.840 C 217.987 130.340,217.237 130.820,217.324 130.906 C 217.500 131.082,221.025 129.362,221.025 129.099 C 221.025 128.839,220.932 128.872,218.990 129.840 M200.000 132.959 C 193.143 136.715,173.127 146.302,172.125 146.310 C 171.974 146.311,171.453 146.519,170.966 146.773 C 170.480 147.027,168.916 147.674,167.491 148.211 C 166.066 148.748,164.744 149.301,164.553 149.439 C 164.361 149.578,163.345 149.971,162.294 150.313 C 161.242 150.655,159.913 151.153,159.340 151.419 L 158.297 151.902 159.313 151.690 C 160.918 151.354,172.273 146.792,179.670 143.512 C 186.475 140.494,204.795 130.968,203.649 131.043 C 203.553 131.050,201.911 131.911,200.000 132.959 M208.331 134.945 C 203.929 137.085,198.299 139.804,195.820 140.986 C 191.718 142.943,188.438 144.520,174.109 151.426 C 171.529 152.670,168.440 154.136,167.246 154.685 C 166.051 155.234,165.074 155.759,165.074 155.852 C 165.074 156.113,166.195 155.622,172.198 152.729 C 175.256 151.256,179.166 149.389,180.886 148.581 C 182.606 147.773,185.969 146.166,188.358 145.009 C 190.747 143.852,194.422 142.088,196.525 141.088 C 198.627 140.087,202.537 138.212,205.213 136.921 C 207.889 135.629,211.329 133.987,212.858 133.272 C 215.656 131.963,217.298 131.000,216.672 131.036 C 216.486 131.046,212.732 132.805,208.331 134.945 M41.399 136.751 C 41.353 137.938,42.018 140.475,42.993 142.832 C 51.140 162.534,78.710 169.804,118.853 162.834 C 120.287 162.585,121.050 162.361,120.549 162.337 C 120.049 162.313,118.329 162.519,116.727 162.795 C 102.065 165.321,84.827 165.673,74.762 163.652 C 72.922 163.283,70.585 162.816,69.570 162.615 C 65.863 161.882,56.366 157.977,56.009 157.038 C 55.946 156.870,55.678 156.733,55.414 156.733 C 54.554 156.733,48.821 151.664,47.117 149.398 C 44.570 146.011,42.901 142.372,41.873 137.967 C 41.627 136.916,41.414 136.368,41.399 136.751 M151.868 153.906 C 148.714 154.987,143.944 156.474,141.268 157.210 C 138.593 157.946,135.387 158.831,134.144 159.176 C 132.902 159.521,129.930 160.213,127.541 160.714 C 125.152 161.214,122.827 161.704,122.374 161.802 C 121.922 161.900,121.636 162.064,121.739 162.167 C 122.610 163.039,158.123 153.164,158.123 152.050 C 158.123 151.769,157.977 151.813,151.868 153.906 M161.599 157.352 C 157.805 159.196,142.648 166.510,135.132 170.123 C 131.566 171.838,128.706 173.300,128.776 173.372 C 128.847 173.444,129.575 173.187,130.395 172.800 C 132.825 171.652,140.567 167.936,145.786 165.411 C 157.492 159.749,161.650 157.776,161.877 157.774 C 162.011 157.773,162.745 157.387,163.510 156.916 C 165.516 155.680,164.615 155.886,161.599 157.352 M239.614 255.697 C 238.657 256.219,235.138 257.947,231.795 259.537 C 228.452 261.126,225.434 262.580,225.087 262.767 C 224.190 263.253,218.301 265.833,216.855 266.374 C 216.186 266.624,214.466 267.329,213.032 267.941 C 209.603 269.403,199.473 273.264,195.308 274.695 C 186.832 277.608,182.332 279.062,181.790 279.062 C 181.465 279.062,181.050 279.202,180.869 279.374 C 180.687 279.546,179.053 280.107,177.237 280.621 C 175.421 281.134,172.294 282.026,170.287 282.603 C 168.280 283.179,165.152 284.017,163.336 284.465 C 161.520 284.913,159.175 285.510,158.123 285.792 C 157.072 286.074,155.000 286.567,153.519 286.888 C 150.206 287.606,150.194 287.745,153.345 288.957 C 154.731 289.490,156.334 290.124,156.907 290.365 C 157.480 290.607,158.888 291.157,160.035 291.588 C 161.182 292.018,162.945 292.738,163.954 293.188 C 164.963 293.637,165.913 294.005,166.065 294.005 C 166.217 294.005,168.442 294.875,171.008 295.939 C 173.574 297.003,176.377 298.115,177.237 298.412 C 178.097 298.708,179.247 299.179,179.792 299.459 C 180.338 299.739,181.432 300.177,182.225 300.433 C 183.530 300.855,187.117 302.260,188.879 303.041 C 189.565 303.345,194.952 305.449,201.043 307.793 C 202.763 308.455,204.639 309.214,205.213 309.481 C 205.786 309.747,208.914 311.005,212.163 312.277 C 221.633 315.982,224.975 317.304,225.717 317.636 C 226.099 317.807,228.288 318.672,230.582 319.559 C 232.876 320.446,235.613 321.537,236.664 321.984 C 237.715 322.430,240.139 323.377,242.050 324.087 C 243.962 324.797,245.995 325.586,246.568 325.840 C 248.949 326.895,252.916 328.501,254.214 328.935 C 254.978 329.190,260.125 331.210,265.651 333.423 C 271.176 335.635,275.838 337.446,276.011 337.446 C 276.183 337.446,277.136 337.814,278.128 338.264 C 279.119 338.714,281.416 339.667,283.232 340.383 C 285.048 341.098,287.237 341.973,288.097 342.326 C 291.992 343.928,296.047 345.523,297.480 346.017 C 298.341 346.314,299.270 346.735,299.545 346.954 C 299.948 347.272,299.986 347.248,299.740 346.829 C 298.948 345.480,294.158 337.774,293.151 336.229 C 291.670 333.955,286.115 325.103,285.192 323.545 C 284.796 322.876,284.349 322.276,284.199 322.213 C 284.049 322.149,283.927 321.922,283.927 321.709 C 283.927 321.496,283.249 320.297,282.420 319.045 C 281.591 317.793,279.284 314.150,277.294 310.951 C 275.304 307.751,273.248 304.467,272.726 303.653 C 272.205 302.838,271.618 301.859,271.423 301.477 C 271.228 301.095,270.286 299.609,269.330 298.175 C 268.374 296.742,267.483 295.334,267.351 295.048 C 267.219 294.761,266.242 293.197,265.180 291.573 C 264.118 289.948,263.076 288.306,262.865 287.924 C 262.484 287.236,258.858 281.413,257.347 279.062 C 256.917 278.393,255.958 276.863,255.215 275.662 C 253.933 273.586,252.645 271.540,248.387 264.813 C 244.483 258.645,243.079 256.388,242.640 255.575 C 242.068 254.516,241.757 254.529,239.614 255.697 " stroke="none" fill="#f36464" fill-rule="evenodd"></path><path id="path4" d="M298.349 4.812 C 299.424 5.272,301.225 5.627,300.608 5.258 C 300.321 5.086,299.540 4.848,298.871 4.730 C 298.050 4.584,297.880 4.611,298.349 4.812 M320.098 11.246 C 320.178 11.314,320.712 11.475,321.286 11.604 C 322.047 11.774,322.188 11.742,321.807 11.484 C 321.338 11.167,319.750 10.945,320.098 11.246 M361.196 24.585 C 361.338 24.815,360.553 25.096,359.078 25.342 C 357.788 25.557,355.482 26.040,353.953 26.416 C 352.424 26.791,346.012 28.197,339.705 29.541 C 333.397 30.884,327.611 32.142,326.846 32.335 C 326.082 32.528,323.970 32.988,322.155 33.358 C 318.777 34.044,311.463 35.613,306.752 36.661 C 303.637 37.354,303.048 37.836,304.172 38.774 C 304.601 39.132,304.757 39.203,304.518 38.931 C 303.680 37.976,304.108 37.646,306.950 37.053 C 308.527 36.724,311.147 36.162,312.772 35.805 C 314.396 35.447,317.211 34.828,319.027 34.428 C 320.843 34.029,323.736 33.408,325.456 33.049 C 327.176 32.690,332.181 31.605,336.577 30.637 C 340.973 29.669,347.619 28.240,351.347 27.461 C 361.543 25.330,362.370 25.085,361.401 24.486 C 361.138 24.323,361.058 24.362,361.196 24.585 M252.285 113.835 C 251.941 114.249,252.027 114.335,252.781 114.335 C 253.758 114.335,254.013 113.838,253.197 113.524 C 252.924 113.420,252.514 113.559,252.285 113.835 M251.359 121.460 C 251.362 122.415,251.429 122.765,251.509 122.237 C 251.589 121.708,251.587 120.927,251.504 120.499 C 251.422 120.072,251.357 120.504,251.359 121.460 M250.659 130.321 C 250.659 131.182,250.727 131.533,250.810 131.103 C 250.893 130.673,250.893 129.970,250.810 129.540 C 250.727 129.109,250.659 129.461,250.659 130.321 M250.298 135.187 C 250.298 135.856,250.369 136.129,250.457 135.795 C 250.544 135.460,250.544 134.913,250.457 134.579 C 250.369 134.244,250.298 134.518,250.298 135.187 M249.269 150.478 C 249.269 151.338,249.337 151.690,249.420 151.260 C 249.503 150.830,249.503 150.126,249.420 149.696 C 249.337 149.266,249.269 149.618,249.269 150.478 M21.585 150.864 C 21.371 151.478,21.257 152.041,21.331 152.116 C 21.405 152.190,21.641 151.748,21.855 151.134 C 22.069 150.520,22.184 149.957,22.110 149.882 C 22.035 149.808,21.799 150.250,21.585 150.864 M248.931 154.648 C 248.931 155.699,248.996 156.129,249.076 155.604 C 249.156 155.078,249.156 154.218,249.076 153.692 C 248.996 153.167,248.931 153.597,248.931 154.648 M19.441 156.265 C 19.249 156.771,19.142 157.339,19.204 157.526 C 19.266 157.712,19.491 157.298,19.704 156.604 C 20.151 155.147,19.960 154.900,19.441 156.265 M248.574 159.513 C 248.574 160.374,248.642 160.725,248.725 160.295 C 248.808 159.865,248.808 159.162,248.725 158.732 C 248.642 158.301,248.574 158.653,248.574 159.513 M356.717 166.898 L 355.343 168.375 356.820 167.002 C 358.194 165.724,358.457 165.421,358.194 165.421 C 358.137 165.421,357.472 166.086,356.717 166.898 M15.330 167.545 C 15.116 168.159,15.001 168.723,15.076 168.797 C 15.150 168.871,15.386 168.430,15.600 167.815 C 15.814 167.201,15.928 166.638,15.854 166.564 C 15.780 166.489,15.544 166.931,15.330 167.545 M32.146 173.305 C 28.897 176.481,21.636 183.596,16.012 189.114 C 8.861 196.130,5.701 199.014,5.504 198.705 C 5.302 198.386,5.222 198.440,5.218 198.896 C 5.208 200.159,6.414 199.069,21.894 183.840 C 30.539 175.334,37.790 168.375,38.007 168.375 C 38.457 168.375,38.884 172.017,39.982 185.230 C 41.857 207.789,44.018 230.504,43.603 223.284 C 43.427 220.214,42.941 214.214,42.394 208.341 C 42.198 206.238,41.809 201.625,41.529 198.089 C 41.250 194.553,40.868 190.252,40.681 188.532 C 40.495 186.811,40.088 182.198,39.778 178.280 C 39.094 169.632,38.853 167.769,38.401 167.633 C 38.210 167.576,35.395 170.128,32.146 173.305 M247.865 169.592 C 247.865 170.261,247.937 170.534,248.024 170.200 C 248.112 169.865,248.112 169.318,248.024 168.983 C 247.937 168.649,247.865 168.923,247.865 169.592 M350.989 172.980 L 348.740 175.326 351.086 173.077 C 352.376 171.840,353.432 170.784,353.432 170.731 C 353.432 170.475,353.078 170.801,350.989 172.980 M247.548 174.457 C 247.548 175.699,247.611 176.208,247.688 175.586 C 247.765 174.965,247.765 173.949,247.688 173.328 C 247.611 172.706,247.548 173.215,247.548 174.457 M127.823 174.023 C 127.536 174.357,126.235 176.195,124.930 178.106 C 123.625 180.017,122.193 182.065,121.748 182.657 C 121.303 183.248,120.938 183.864,120.938 184.024 C 120.938 184.185,120.647 184.639,120.292 185.034 C 119.638 185.759,117.881 188.294,111.245 198.089 C 109.237 201.051,107.466 203.632,107.309 203.823 C 107.053 204.135,105.094 207.021,99.478 215.361 C 98.473 216.851,97.527 218.228,97.374 218.419 C 96.888 219.027,92.445 225.520,88.338 231.625 C 86.151 234.874,84.225 237.585,84.058 237.648 C 83.890 237.712,83.753 237.913,83.753 238.094 C 83.753 238.275,82.854 239.685,81.755 241.226 C 80.656 242.767,79.522 244.401,79.235 244.855 C 78.949 245.310,77.557 247.367,76.143 249.427 C 70.423 257.758,69.177 259.572,66.884 262.902 C 63.792 267.392,60.818 271.762,56.337 278.402 C 51.884 285.001,49.643 288.161,49.513 288.026 C 49.459 287.970,49.239 285.812,49.025 283.232 C 48.810 280.652,48.409 276.116,48.133 273.154 C 47.857 270.191,47.387 264.952,47.087 261.512 C 46.788 258.071,46.391 253.614,46.205 251.607 C 46.019 249.600,45.626 245.065,45.333 241.529 C 44.360 229.814,44.095 227.124,43.898 226.941 C 43.791 226.841,43.799 227.932,43.916 229.366 C 44.032 230.799,44.446 236.116,44.835 241.182 C 45.225 246.247,45.690 251.329,45.871 252.476 C 46.051 253.623,46.368 257.063,46.576 260.122 C 46.783 263.180,47.097 267.011,47.273 268.636 C 47.448 270.261,47.911 275.415,48.301 280.091 C 48.690 284.767,49.129 288.712,49.277 288.860 C 49.424 289.007,50.820 287.214,52.380 284.876 C 53.939 282.538,55.974 279.531,56.901 278.193 C 57.828 276.855,59.820 273.962,61.327 271.764 C 63.954 267.931,64.839 266.640,69.902 259.253 C 71.146 257.437,73.557 253.918,75.258 251.434 C 76.959 248.949,79.101 245.821,80.018 244.483 C 80.934 243.145,82.689 240.565,83.916 238.749 C 88.143 232.497,88.760 231.624,89.037 231.509 C 89.189 231.445,89.314 231.231,89.314 231.034 C 89.314 230.837,89.837 229.951,90.476 229.065 C 91.886 227.110,96.358 220.600,103.040 210.773 C 105.146 207.676,107.572 204.131,111.958 197.741 C 113.204 195.925,115.237 192.954,116.475 191.138 C 117.712 189.322,119.433 186.820,120.298 185.578 C 121.163 184.335,123.247 181.286,124.930 178.801 C 128.088 174.137,128.494 173.666,129.055 174.012 C 129.237 174.125,129.275 174.036,129.138 173.816 C 128.793 173.257,128.430 173.314,127.823 174.023 M247.177 179.844 C 247.181 180.608,247.252 180.880,247.335 180.448 C 247.418 180.015,247.415 179.390,247.328 179.058 C 247.241 178.725,247.173 179.079,247.177 179.844 M341.258 182.711 L 339.010 185.056 341.355 182.808 C 342.646 181.571,343.701 180.515,343.701 180.462 C 343.701 180.206,343.347 180.532,341.258 182.711 M246.841 184.361 C 246.844 185.317,246.911 185.667,246.991 185.139 C 247.071 184.610,247.069 183.828,246.987 183.401 C 246.904 182.974,246.839 183.406,246.841 184.361 M8.887 186.471 C 8.759 186.981,8.721 187.464,8.803 187.546 C 8.885 187.628,9.057 187.279,9.185 186.769 C 9.312 186.260,9.350 185.776,9.268 185.694 C 9.186 185.612,9.015 185.962,8.887 186.471 M335.165 188.445 L 334.144 189.574 335.274 188.554 C 335.895 187.992,336.403 187.484,336.403 187.424 C 336.403 187.156,336.116 187.392,335.165 188.445 M330.995 192.268 L 329.974 193.397 331.103 192.376 C 331.725 191.815,332.233 191.307,332.233 191.247 C 332.233 190.978,331.946 191.215,330.995 192.268 M6.330 194.840 C 6.116 195.539,6.078 195.969,6.247 195.796 C 6.587 195.448,7.115 193.571,6.873 193.571 C 6.788 193.571,6.544 194.142,6.330 194.840 M245.440 203.823 C 245.443 204.587,245.515 204.859,245.598 204.427 C 245.681 203.995,245.678 203.369,245.591 203.037 C 245.504 202.705,245.436 203.058,245.440 203.823 M245.092 209.036 C 245.096 209.800,245.167 210.072,245.250 209.640 C 245.333 209.207,245.330 208.582,245.243 208.250 C 245.156 207.917,245.088 208.271,245.092 209.036 M244.737 214.075 C 244.737 214.744,244.809 215.017,244.896 214.683 C 244.984 214.348,244.984 213.801,244.896 213.467 C 244.809 213.132,244.737 213.406,244.737 214.075 M244.409 218.419 C 244.411 219.374,244.479 219.724,244.559 219.196 C 244.639 218.668,244.636 217.886,244.554 217.458 C 244.471 217.031,244.406 217.463,244.409 218.419 M243.702 228.497 C 243.706 229.262,243.777 229.533,243.860 229.101 C 243.943 228.669,243.940 228.043,243.853 227.711 C 243.766 227.379,243.698 227.732,243.702 228.497 M243.347 233.189 C 243.347 233.858,243.419 234.131,243.506 233.797 C 243.594 233.462,243.594 232.915,243.506 232.580 C 243.419 232.246,243.347 232.520,243.347 233.189 M243.030 238.401 C 243.030 239.644,243.094 240.152,243.171 239.531 C 243.248 238.910,243.248 237.893,243.171 237.272 C 243.094 236.651,243.030 237.159,243.030 238.401 M241.957 252.302 C 241.957 252.971,242.029 253.245,242.116 252.911 C 242.204 252.576,242.204 252.029,242.116 251.694 C 242.029 251.360,241.957 251.633,241.957 252.302 M241.529 254.040 C 241.529 254.259,237.893 256.220,233.449 258.397 C 229.005 260.575,225.467 262.362,225.587 262.368 C 225.978 262.390,229.507 260.749,235.586 257.716 C 242.333 254.351,242.029 254.444,242.640 255.575 C 243.079 256.388,244.483 258.645,248.387 264.813 C 252.645 271.540,253.933 273.586,255.215 275.662 C 255.958 276.863,256.917 278.393,257.347 279.062 C 258.858 281.413,262.484 287.236,262.865 287.924 C 263.076 288.306,264.118 289.948,265.180 291.573 C 266.242 293.197,267.219 294.761,267.351 295.048 C 267.483 295.334,268.374 296.742,269.330 298.175 C 270.286 299.609,271.228 301.095,271.423 301.477 C 271.618 301.859,272.205 302.838,272.726 303.653 C 273.248 304.467,275.304 307.751,277.294 310.951 C 279.284 314.150,281.591 317.793,282.420 319.045 C 283.249 320.297,283.927 321.496,283.927 321.709 C 283.927 321.922,284.049 322.149,284.199 322.213 C 284.349 322.276,284.796 322.876,285.192 323.545 C 286.115 325.103,291.670 333.955,293.151 336.229 C 294.068 337.637,298.707 345.090,299.675 346.711 C 299.808 346.933,299.278 346.807,298.499 346.430 C 297.720 346.053,296.898 345.814,296.673 345.898 C 296.448 345.982,296.733 346.226,297.307 346.440 C 297.880 346.654,298.621 346.985,298.953 347.177 C 299.725 347.621,300.853 347.623,301.127 347.180 C 301.244 346.991,301.121 346.921,300.854 347.023 C 300.532 347.147,299.904 346.418,298.979 344.847 C 297.548 342.415,293.588 336.079,290.197 330.795 C 287.969 327.324,286.478 324.919,285.484 323.197 C 285.098 322.528,283.912 320.652,282.848 319.027 C 280.944 316.118,278.342 311.959,273.932 304.778 C 272.700 302.772,271.497 300.895,271.259 300.608 C 271.021 300.321,270.723 299.852,270.595 299.566 C 270.468 299.279,269.277 297.324,267.950 295.222 C 266.622 293.119,264.661 289.991,263.591 288.271 C 262.522 286.551,261.056 284.205,260.333 283.058 C 259.611 281.911,257.021 277.767,254.579 273.849 C 250.212 266.844,248.139 263.559,245.480 259.427 C 244.742 258.280,244.059 257.185,243.963 256.994 C 243.167 255.415,241.529 253.427,241.529 254.040 M223.347 263.112 C 221.021 264.339,209.622 269.010,202.259 271.753 C 200.634 272.358,198.758 273.067,198.089 273.329 C 197.420 273.590,196.247 273.996,195.482 274.231 C 194.718 274.465,194.267 274.716,194.480 274.788 C 194.693 274.860,196.101 274.459,197.608 273.898 C 204.780 271.228,210.661 268.958,213.032 267.944 C 214.466 267.331,216.186 266.624,216.855 266.374 C 219.124 265.525,224.672 263.025,225.004 262.702 C 225.556 262.165,224.776 262.358,223.347 263.112 M192.354 275.361 C 191.781 275.604,190.061 276.165,188.532 276.608 C 187.003 277.051,185.595 277.525,185.404 277.662 C 185.213 277.799,184.283 278.121,183.338 278.377 C 182.392 278.633,181.781 278.897,181.979 278.963 C 182.344 279.084,192.611 275.762,193.571 275.211 C 194.361 274.758,193.536 274.860,192.354 275.361 M180.539 279.229 C 180.348 279.291,178.981 279.697,177.502 280.133 C 176.023 280.568,174.869 280.979,174.936 281.047 C 175.128 281.239,180.498 279.724,180.869 279.374 C 181.206 279.055,181.151 279.031,180.539 279.229 M167.333 282.923 C 159.410 285.102,159.293 285.133,155.372 286.064 C 153.572 286.492,152.259 286.895,152.454 286.960 C 153.132 287.186,173.819 281.901,174.355 281.365 C 174.777 280.943,173.529 281.220,167.333 282.923 M150.014 287.286 C 149.887 287.414,149.783 287.628,149.783 287.763 C 149.783 288.072,159.847 292.050,160.068 291.829 C 160.158 291.739,159.718 291.470,159.090 291.231 C 158.463 290.992,157.480 290.600,156.907 290.361 C 156.334 290.122,154.731 289.490,153.345 288.957 C 150.789 287.973,150.337 287.581,151.434 287.294 C 151.832 287.190,151.733 287.121,151.144 287.095 C 150.650 287.073,150.142 287.159,150.014 287.286 M161.077 292.407 C 161.460 292.701,161.951 292.946,162.170 292.952 C 162.505 292.961,164.217 293.629,168.375 295.375 C 169.059 295.662,174.482 297.736,175.500 298.100 C 175.786 298.202,175.929 298.182,175.816 298.055 C 175.573 297.781,166.472 294.005,166.054 294.005 C 165.895 294.005,164.997 293.634,164.057 293.181 C 161.762 292.074,160.070 291.635,161.077 292.407 M176.195 298.323 C 176.195 298.404,177.876 299.124,179.930 299.924 C 181.985 300.723,189.765 303.800,197.220 306.761 C 204.674 309.722,212.963 312.997,215.639 314.038 C 218.315 315.079,221.990 316.544,223.805 317.294 C 227.216 318.702,236.786 322.446,237.706 322.732 C 239.551 323.305,235.652 321.547,231.442 319.908 C 228.676 318.830,226.099 317.808,225.717 317.636 C 224.976 317.304,221.659 315.992,212.163 312.277 C 208.914 311.005,205.786 309.747,205.213 309.481 C 204.639 309.214,202.763 308.455,201.043 307.793 C 194.952 305.449,189.565 303.345,188.879 303.041 C 187.234 302.312,183.558 300.863,182.276 300.437 C 181.512 300.184,179.983 299.571,178.878 299.076 C 176.959 298.216,176.195 298.001,176.195 298.323 M238.448 323.012 C 238.538 323.102,241.027 324.126,243.980 325.289 C 246.932 326.452,250.081 327.708,250.977 328.080 C 251.872 328.453,252.732 328.755,252.888 328.752 C 253.414 328.742,252.140 328.070,250.217 327.343 C 249.166 326.945,247.837 326.404,247.263 326.141 C 244.119 324.696,237.938 322.502,238.448 323.012 M253.348 328.862 C 253.529 329.058,259.003 331.271,266.377 334.129 C 270.933 335.895,271.134 335.975,273.675 337.041 C 278.131 338.911,293.386 344.879,295.569 345.607 C 297.261 346.171,294.983 345.046,292.397 344.040 C 290.892 343.455,288.957 342.686,288.097 342.330 C 287.237 341.974,285.048 341.098,283.232 340.383 C 281.416 339.667,279.119 338.714,278.128 338.264 C 277.136 337.814,276.180 337.446,276.004 337.446 C 275.827 337.446,271.009 335.585,265.296 333.311 C 255.201 329.293,252.982 328.466,253.348 328.862 " stroke="none" fill="#d44446" fill-rule="evenodd"></path></g></svg>