<svg id="svg" version="1.1" xmlns="http://www.w3.org/2000/svg" xmlns:xlink="http://www.w3.org/1999/xlink" width="400" height="400" viewBox="0, 0, 400,400"><g id="svgg"><path id="path0" d="M213.900 55.482 C 214.395 55.578,215.205 55.578,215.700 55.482 C 216.195 55.387,215.790 55.309,214.800 55.309 C 213.810 55.309,213.405 55.387,213.900 55.482 M223.600 310.800 C 223.600 337.200,223.736 350.800,224.000 350.800 C 224.264 350.800,224.400 337.200,224.400 310.800 C 224.400 284.400,224.264 270.800,224.000 270.800 C 223.736 270.800,223.600 284.400,223.600 310.800 M153.800 289.062 C 157.635 289.355,161.911 289.376,161.740 289.100 C 161.637 288.935,159.448 288.831,156.876 288.870 C 154.304 288.908,152.920 288.995,153.800 289.062 " stroke="none" fill="#cc2424" fill-rule="evenodd"></path><path id="path1" d="" stroke="none" fill="#cc242c" fill-rule="evenodd"></path><path id="path2" d="M205.477 46.814 C 203.320 46.978,201.456 47.211,201.334 47.332 C 201.064 47.603,202.056 51.600,202.393 51.600 C 202.526 51.600,202.873 52.673,203.164 53.985 L 203.693 56.370 210.947 56.130 C 214.936 55.997,218.248 55.851,218.307 55.804 C 218.490 55.659,217.132 50.623,216.796 50.200 C 216.621 49.980,216.274 49.035,216.024 48.100 L 215.569 46.400 212.485 46.458 C 210.788 46.490,207.635 46.650,205.477 46.814 M268.000 55.610 C 268.000 56.264,267.820 56.800,267.600 56.800 C 267.360 56.800,267.200 58.400,267.200 60.800 C 267.200 64.533,267.253 64.800,268.000 64.800 C 268.440 64.800,268.800 64.953,268.800 65.141 C 268.800 65.328,269.946 65.792,271.347 66.171 C 272.748 66.550,274.413 67.134,275.047 67.469 C 276.221 68.089,280.620 69.600,281.252 69.600 C 281.443 69.600,281.600 68.250,281.600 66.600 C 281.600 64.867,281.769 63.600,282.000 63.600 C 282.220 63.600,282.400 62.705,282.400 61.610 C 282.400 59.578,281.318 58.400,279.453 58.400 C 279.131 58.400,278.806 58.219,278.732 57.997 C 278.659 57.776,277.249 57.228,275.599 56.781 C 273.950 56.333,272.150 55.729,271.600 55.439 C 269.321 54.235,268.000 54.298,268.000 55.610 M215.700 55.482 C 215.205 55.578,214.395 55.578,213.900 55.482 C 213.405 55.387,213.810 55.309,214.800 55.309 C 215.790 55.309,216.195 55.387,215.700 55.482 M152.729 60.107 C 152.438 60.386,151.390 60.959,150.400 61.379 C 149.410 61.800,148.414 62.364,148.186 62.631 C 147.959 62.898,147.104 63.397,146.286 63.738 C 145.469 64.080,144.800 64.559,144.800 64.803 C 144.800 65.047,144.622 65.137,144.405 65.003 C 144.188 64.869,143.649 65.096,143.207 65.508 L 142.403 66.256 143.211 67.928 C 143.655 68.848,144.149 69.603,144.309 69.606 C 144.469 69.610,145.040 70.510,145.579 71.606 C 146.117 72.703,146.694 73.600,146.860 73.600 C 147.026 73.600,147.461 74.230,147.827 75.000 C 148.192 75.770,148.750 76.400,149.065 76.400 C 149.701 76.400,152.086 75.255,152.400 74.798 C 152.510 74.638,153.410 74.099,154.400 73.600 C 155.390 73.101,156.290 72.571,156.400 72.424 C 156.510 72.276,157.230 71.910,158.000 71.610 C 160.564 70.613,161.003 69.808,159.700 68.495 C 159.315 68.107,158.550 66.937,158.001 65.895 C 157.451 64.853,156.875 64.000,156.719 64.000 C 156.564 64.000,156.131 63.353,155.756 62.563 C 155.381 61.773,154.832 61.034,154.537 60.920 C 154.242 60.807,154.000 60.464,154.000 60.157 C 154.000 59.463,153.424 59.440,152.729 60.107 M213.439 60.338 C 213.324 60.523,210.838 60.784,207.915 60.917 C 202.519 61.163,193.565 62.285,193.200 62.762 C 193.090 62.906,191.110 63.442,188.800 63.954 C 186.490 64.467,184.510 65.013,184.400 65.169 C 184.290 65.325,183.120 65.755,181.801 66.125 C 180.481 66.494,179.344 66.967,179.275 67.176 C 179.205 67.384,178.872 67.449,178.534 67.319 C 178.196 67.190,177.802 67.263,177.660 67.482 C 177.517 67.702,176.231 68.283,174.803 68.774 C 173.375 69.264,172.115 69.786,172.003 69.933 C 171.689 70.346,168.840 71.600,168.215 71.600 C 167.908 71.600,167.419 71.825,167.129 72.100 C 166.838 72.375,165.700 73.036,164.600 73.568 C 163.500 74.100,162.510 74.645,162.400 74.779 C 162.290 74.913,161.440 75.357,160.511 75.767 C 159.582 76.177,158.935 76.694,159.073 76.918 C 159.224 77.162,159.122 77.199,158.817 77.011 C 158.538 76.838,158.196 76.868,158.055 77.076 C 157.915 77.285,156.928 77.872,155.863 78.381 C 154.797 78.891,153.466 79.733,152.904 80.254 C 152.343 80.774,151.648 81.200,151.361 81.200 C 151.075 81.200,150.696 81.435,150.520 81.722 C 150.344 82.010,149.463 82.622,148.563 83.083 C 147.663 83.544,146.421 84.389,145.805 84.961 C 145.188 85.532,144.446 86.000,144.156 86.000 C 143.866 86.000,143.435 86.360,143.200 86.800 C 142.965 87.240,142.541 87.600,142.258 87.600 C 141.975 87.600,141.139 88.140,140.400 88.800 C 139.661 89.460,138.953 90.003,138.828 90.006 C 138.703 90.010,137.970 90.572,137.200 91.255 C 136.430 91.939,135.350 92.788,134.800 93.142 C 134.250 93.496,133.565 94.104,133.277 94.493 C 132.990 94.882,132.566 95.200,132.336 95.200 C 132.106 95.200,131.261 95.816,130.459 96.569 C 125.966 100.784,125.071 101.600,124.942 101.600 C 124.560 101.600,111.200 114.842,111.200 115.221 C 111.200 115.474,108.431 118.522,105.586 121.400 C 104.934 122.060,104.400 122.805,104.400 123.054 C 104.400 123.304,103.950 123.803,103.400 124.163 C 102.850 124.524,102.400 125.080,102.400 125.400 C 102.400 125.720,101.950 126.276,101.400 126.637 C 100.850 126.997,100.400 127.464,100.400 127.674 C 100.400 127.884,99.706 128.899,98.857 129.928 C 98.009 130.958,97.204 132.115,97.070 132.500 C 96.935 132.885,96.651 133.200,96.438 133.200 C 96.225 133.200,95.647 133.920,95.152 134.800 C 94.657 135.680,94.124 136.400,93.967 136.400 C 93.809 136.400,93.320 137.092,92.880 137.937 C 92.439 138.782,91.611 139.979,91.039 140.595 C 90.468 141.212,90.000 141.952,90.000 142.239 C 90.000 142.525,89.765 142.904,89.478 143.080 C 89.190 143.256,88.558 144.175,88.072 145.122 C 87.587 146.070,86.832 147.229,86.395 147.698 C 85.958 148.167,85.600 148.787,85.600 149.075 C 85.600 149.364,85.285 149.919,84.900 150.309 C 84.515 150.698,83.764 151.958,83.232 153.109 C 82.699 154.259,82.157 155.200,82.026 155.200 C 81.896 155.200,81.345 156.145,80.802 157.300 C 80.259 158.455,79.535 159.707,79.194 160.082 C 78.853 160.458,78.329 161.448,78.030 162.282 C 77.732 163.117,77.364 163.890,77.214 164.000 C 76.773 164.323,70.883 176.495,70.585 177.700 C 70.436 178.305,70.174 178.800,70.004 178.800 C 69.708 178.800,68.584 181.611,68.125 183.500 C 68.005 183.995,67.762 184.400,67.586 184.400 C 67.410 184.400,66.863 185.615,66.371 187.100 C 65.879 188.585,65.256 190.160,64.986 190.600 C 64.716 191.040,64.170 192.480,63.772 193.800 C 63.375 195.120,62.943 196.290,62.812 196.400 C 62.681 196.510,62.138 198.040,61.605 199.800 C 61.072 201.560,60.427 203.360,60.171 203.800 C 59.916 204.240,59.393 205.950,59.009 207.600 C 58.625 209.250,58.172 210.780,58.002 211.000 C 57.656 211.449,56.000 218.012,56.000 218.938 C 56.000 219.265,55.827 219.593,55.617 219.667 C 55.406 219.740,54.738 222.590,54.133 226.000 C 53.527 229.410,52.920 232.290,52.783 232.400 C 52.520 232.611,51.599 238.761,51.599 240.300 L 51.600 241.200 107.052 241.200 L 162.503 241.200 162.218 238.303 C 162.061 236.709,161.786 235.314,161.607 235.203 C 161.086 234.878,159.996 221.849,159.738 212.861 C 159.445 202.645,160.645 182.313,161.583 181.600 C 161.728 181.490,162.260 178.880,162.766 175.800 C 163.272 172.720,163.813 170.110,163.970 170.000 C 164.126 169.890,164.580 168.360,164.978 166.600 C 165.376 164.840,165.944 162.860,166.241 162.200 C 166.537 161.540,167.164 159.740,167.635 158.200 C 168.105 156.660,168.615 155.310,168.767 155.200 C 168.920 155.090,169.464 153.830,169.976 152.400 C 170.488 150.970,171.029 149.710,171.178 149.600 C 171.327 149.490,171.864 148.365,172.371 147.100 C 172.878 145.835,173.414 144.800,173.562 144.800 C 173.710 144.800,174.267 143.810,174.800 142.600 C 175.333 141.390,175.875 140.400,176.006 140.400 C 176.136 140.400,176.683 139.503,177.221 138.406 C 177.760 137.310,178.331 136.410,178.492 136.406 C 178.652 136.403,179.143 135.697,179.581 134.837 C 180.020 133.977,180.518 133.212,180.689 133.137 C 181.026 132.989,182.800 130.555,182.800 130.241 C 182.800 129.733,194.767 117.551,196.132 116.670 C 196.835 116.216,197.177 115.717,197.036 115.349 C 196.898 114.989,196.978 114.863,197.243 115.026 C 197.481 115.174,198.192 114.913,198.822 114.447 C 199.452 113.981,200.155 113.600,200.384 113.600 C 200.613 113.600,200.800 113.422,200.800 113.205 C 200.800 112.807,202.736 111.417,205.765 109.640 C 206.664 109.113,207.490 108.552,207.600 108.394 C 207.710 108.236,208.610 107.699,209.600 107.200 C 210.590 106.701,211.490 106.165,211.600 106.010 C 211.710 105.854,212.674 105.397,213.742 104.993 C 214.810 104.590,215.890 104.066,216.142 103.830 C 216.629 103.373,219.995 102.039,221.500 101.706 C 221.995 101.596,222.400 101.363,222.400 101.187 C 222.400 101.011,223.705 100.465,225.300 99.975 C 226.895 99.485,228.290 98.949,228.400 98.785 C 228.510 98.620,230.310 98.072,232.400 97.567 C 234.490 97.061,236.297 96.508,236.415 96.337 C 236.680 95.956,246.040 94.400,248.067 94.400 C 248.873 94.400,249.606 94.183,249.694 93.919 C 249.907 93.280,270.313 93.222,270.726 93.859 C 270.877 94.091,272.260 94.399,273.800 94.544 C 277.730 94.914,284.960 96.083,285.200 96.388 C 285.310 96.528,287.196 97.050,289.391 97.548 C 291.586 98.046,293.566 98.592,293.791 98.761 C 294.016 98.930,295.460 99.390,297.000 99.783 C 298.540 100.177,300.160 100.719,300.600 100.988 C 301.040 101.258,302.705 101.881,304.300 102.372 C 305.895 102.864,307.200 103.411,307.200 103.587 C 307.200 103.763,307.605 104.005,308.100 104.125 C 310.097 104.611,312.800 105.716,312.800 106.047 C 312.800 106.241,313.004 106.400,313.252 106.400 C 313.785 106.400,322.107 110.405,322.400 110.802 C 322.510 110.951,323.461 111.399,324.513 111.796 C 325.566 112.194,326.556 112.719,326.713 112.964 C 326.871 113.208,327.945 113.843,329.100 114.373 C 330.255 114.903,331.200 115.455,331.200 115.600 C 331.200 115.745,332.100 116.285,333.200 116.800 C 334.300 117.315,335.498 118.066,335.862 118.468 C 336.226 118.871,336.713 119.200,336.945 119.200 C 337.176 119.200,338.392 119.920,339.646 120.800 C 340.901 121.680,342.124 122.400,342.364 122.400 C 342.604 122.400,342.800 122.576,342.800 122.792 C 342.800 123.007,343.520 123.551,344.400 124.000 C 345.280 124.449,346.000 124.993,346.000 125.208 C 346.000 125.424,346.187 125.600,346.416 125.600 C 346.883 125.600,348.857 126.943,350.366 128.286 C 352.137 129.862,356.400 129.400,356.400 127.632 C 356.400 127.465,356.850 127.123,357.400 126.873 C 357.950 126.622,358.397 126.098,358.393 125.709 C 358.387 125.052,355.199 121.600,354.598 121.600 C 354.451 121.600,353.356 120.655,352.165 119.500 C 348.251 115.703,347.228 114.800,346.840 114.800 C 346.630 114.800,346.104 114.350,345.671 113.800 C 345.239 113.250,344.714 112.800,344.504 112.800 C 344.295 112.800,343.798 112.440,343.400 112.000 C 343.002 111.560,342.505 111.200,342.296 111.200 C 342.086 111.200,341.561 110.750,341.129 110.200 C 340.696 109.650,340.106 109.200,339.817 109.200 C 339.528 109.200,338.997 108.750,338.637 108.200 C 338.276 107.650,337.717 107.200,337.394 107.200 C 337.071 107.200,336.582 106.840,336.307 106.400 C 336.032 105.960,335.657 105.600,335.473 105.600 C 335.290 105.600,334.087 104.790,332.800 103.800 C 331.513 102.810,330.276 102.000,330.050 102.000 C 329.824 102.000,329.496 101.758,329.320 101.463 C 329.144 101.168,328.460 100.595,327.800 100.191 C 327.140 99.787,326.418 99.263,326.195 99.028 C 325.653 98.455,323.571 97.205,322.700 96.929 C 322.315 96.807,322.000 96.551,322.000 96.361 C 322.000 96.172,321.280 95.649,320.400 95.200 C 319.520 94.751,318.798 94.252,318.795 94.092 C 318.793 93.931,318.028 93.450,317.095 93.023 C 316.163 92.596,315.207 92.021,314.972 91.745 C 314.503 91.196,311.955 89.689,309.318 88.400 C 308.392 87.948,307.402 87.358,307.118 87.089 C 306.833 86.820,305.700 86.164,304.600 85.632 C 303.500 85.100,302.510 84.545,302.400 84.400 C 302.290 84.255,301.300 83.700,300.200 83.168 C 299.100 82.636,298.110 82.088,298.000 81.951 C 297.890 81.813,296.810 81.282,295.600 80.771 C 294.390 80.260,293.310 79.723,293.200 79.578 C 292.909 79.193,289.189 77.600,288.582 77.600 C 288.299 77.600,288.007 77.422,287.933 77.204 C 287.860 76.987,286.720 76.429,285.400 75.966 C 284.080 75.502,282.910 74.992,282.800 74.831 C 282.690 74.670,281.340 74.106,279.800 73.577 C 278.260 73.048,276.910 72.503,276.800 72.367 C 276.690 72.230,275.340 71.708,273.800 71.206 C 272.260 70.704,270.814 70.148,270.586 69.969 C 270.358 69.791,268.738 69.253,266.986 68.774 C 265.234 68.295,263.710 67.785,263.600 67.641 C 263.368 67.337,256.438 65.600,255.458 65.600 C 255.096 65.600,254.800 65.448,254.800 65.262 C 254.800 65.076,252.595 64.519,249.900 64.023 C 247.205 63.528,244.640 62.961,244.200 62.765 C 242.960 62.210,233.996 61.199,227.885 60.924 C 224.852 60.787,222.276 60.524,222.162 60.338 C 221.889 59.897,213.711 59.897,213.439 60.338 M267.410 98.391 C 267.341 98.506,267.154 100.715,266.995 103.300 L 266.704 108.000 269.752 108.000 C 271.428 108.000,272.800 108.144,272.800 108.321 C 272.800 108.588,279.454 109.617,281.100 109.604 C 281.452 109.601,281.600 108.771,281.600 106.800 C 281.600 105.200,281.771 104.000,282.000 104.000 C 282.220 104.000,282.400 103.122,282.400 102.049 L 282.400 100.097 279.384 99.649 C 277.725 99.402,275.850 99.200,275.217 99.200 C 274.584 99.200,274.007 99.040,273.933 98.844 C 273.791 98.466,267.622 98.036,267.410 98.391 M232.200 102.477 C 230.660 102.925,229.310 103.417,229.200 103.570 C 229.090 103.724,227.589 104.288,225.865 104.825 L 222.730 105.800 222.958 107.507 C 223.084 108.446,223.527 109.976,223.943 110.907 C 224.360 111.838,224.937 113.545,225.226 114.700 C 225.841 117.159,226.128 117.232,228.951 115.657 C 230.078 115.028,231.855 114.284,232.900 114.005 C 233.945 113.725,234.800 113.357,234.800 113.188 C 234.800 113.018,235.714 112.661,236.831 112.393 C 239.111 111.846,239.527 111.292,238.680 109.932 C 238.360 109.420,237.773 107.740,237.376 106.200 C 236.678 103.497,235.781 101.566,235.254 101.632 C 235.114 101.649,233.740 102.030,232.200 102.477 M91.581 107.679 L 86.314 112.959 88.457 114.932 C 89.636 116.018,91.243 117.512,92.029 118.253 C 92.815 118.994,93.650 119.600,93.883 119.600 C 94.117 119.600,94.608 120.058,94.975 120.618 C 96.249 122.562,100.151 122.812,99.418 120.903 C 99.275 120.530,99.262 120.329,99.390 120.456 C 99.655 120.722,102.400 118.313,102.400 117.815 C 102.400 117.634,102.949 116.927,103.620 116.243 C 108.109 111.671,108.698 109.723,105.660 109.495 C 105.217 109.461,104.947 109.286,105.058 109.106 C 105.280 108.748,102.937 106.400,102.358 106.400 C 102.161 106.400,102.000 106.130,102.000 105.800 C 102.000 105.470,101.770 105.200,101.488 105.200 C 101.206 105.200,100.382 104.570,99.656 103.800 C 97.702 101.729,97.349 101.898,91.581 107.679 M195.700 123.736 C 195.205 123.986,194.800 124.328,194.800 124.498 C 194.800 124.667,193.585 126.061,192.100 127.596 C 187.732 132.109,187.534 132.432,188.444 133.555 C 188.860 134.068,189.200 134.728,189.200 135.022 C 189.200 135.315,189.515 135.792,189.900 136.082 C 190.285 136.372,190.797 136.968,191.038 137.405 C 192.170 139.463,192.640 140.213,193.133 140.747 C 193.427 141.064,193.827 141.746,194.024 142.262 C 194.407 143.271,196.000 143.590,196.000 142.658 C 196.000 142.361,196.441 141.641,196.979 141.061 C 197.517 140.480,198.102 139.749,198.279 139.436 C 198.456 139.124,199.365 138.054,200.300 137.058 C 201.235 136.062,202.000 135.138,202.000 135.004 C 202.000 134.871,202.478 134.350,203.062 133.848 L 204.125 132.934 203.376 131.667 C 202.964 130.970,202.486 130.400,202.314 130.400 C 202.141 130.400,202.000 130.216,202.000 129.992 C 202.000 129.768,201.505 128.838,200.900 127.927 C 200.295 127.015,199.414 125.623,198.943 124.834 C 198.029 123.305,197.149 123.007,195.700 123.736 M171.867 162.267 C 171.720 162.413,171.600 162.863,171.600 163.267 C 171.600 163.670,171.454 164.000,171.275 164.000 C 171.096 164.000,170.528 165.845,170.013 168.100 C 169.499 170.355,168.941 172.380,168.774 172.600 C 168.607 172.820,168.283 173.990,168.052 175.200 C 167.569 177.740,167.688 177.900,173.000 181.907 C 174.700 183.190,176.205 184.427,177.612 185.700 C 179.507 187.415,179.897 187.175,180.217 184.100 C 180.371 182.615,180.631 181.220,180.795 181.000 C 180.959 180.780,181.211 179.610,181.355 178.400 C 181.498 177.190,181.904 174.823,182.257 173.140 C 182.896 170.092,182.437 168.068,181.094 168.013 C 180.780 168.000,176.823 164.960,175.400 163.639 C 173.960 162.301,172.427 161.706,171.867 162.267 M48.564 168.200 C 48.426 168.750,48.168 169.200,47.990 169.200 C 47.812 169.200,47.277 170.460,46.800 172.000 C 46.323 173.540,45.793 174.800,45.621 174.800 C 45.449 174.800,44.900 176.015,44.401 177.500 C 43.902 178.985,43.375 180.290,43.230 180.400 C 41.908 181.403,41.848 185.200,43.154 185.200 C 43.583 185.200,43.993 185.367,44.067 185.571 C 44.140 185.775,45.640 186.357,47.400 186.864 C 49.160 187.371,50.690 187.906,50.800 188.052 C 50.910 188.198,52.305 188.714,53.900 189.198 C 55.495 189.682,56.800 190.240,56.800 190.439 C 56.800 192.008,58.820 190.608,59.453 188.600 C 59.834 187.390,60.263 186.400,60.406 186.400 C 60.548 186.400,61.096 185.095,61.623 183.500 C 62.150 181.905,62.786 180.387,63.036 180.126 C 63.286 179.865,63.804 178.695,64.186 177.526 C 64.568 176.357,65.028 175.308,65.209 175.196 C 66.535 174.371,65.996 172.965,64.167 172.476 C 63.136 172.200,61.372 171.556,60.246 171.045 C 59.121 170.534,57.255 169.892,56.100 169.618 C 54.945 169.344,54.000 168.982,54.000 168.813 C 54.000 168.552,49.876 167.200,49.081 167.200 C 48.935 167.200,48.702 167.650,48.564 168.200 M165.802 217.629 C 165.965 220.566,166.248 223.246,166.431 223.584 C 166.614 223.923,166.876 225.584,167.013 227.275 C 167.307 230.884,167.475 231.056,172.041 232.434 C 173.668 232.925,175.360 233.552,175.800 233.828 C 176.240 234.103,177.770 234.646,179.200 235.035 C 180.630 235.424,181.899 235.887,182.020 236.065 C 182.452 236.700,184.799 236.940,184.808 236.350 C 184.826 235.210,183.419 227.391,183.162 227.200 C 183.014 227.090,182.680 225.290,182.419 223.200 C 181.747 217.801,181.689 217.600,180.821 217.600 C 180.401 217.600,179.787 217.330,179.457 217.000 C 179.127 216.670,178.714 216.400,178.540 216.400 C 177.961 216.400,172.604 214.653,172.400 214.398 C 172.210 214.160,168.482 212.975,166.452 212.507 L 165.505 212.288 165.802 217.629 M42.000 310.800 L 42.000 353.200 53.800 353.200 L 65.600 353.200 65.632 343.500 C 65.649 338.165,65.766 334.070,65.891 334.400 C 66.017 334.730,68.838 337.739,72.160 341.086 C 75.482 344.434,79.460 348.526,81.000 350.181 L 83.800 353.189 101.100 353.195 C 111.409 353.198,118.400 353.051,118.400 352.831 C 118.400 352.161,115.934 349.981,115.302 350.091 C 114.962 350.151,114.606 349.930,114.511 349.600 C 114.358 349.067,114.386 349.067,114.763 349.600 C 115.031 349.978,115.190 350.022,115.194 349.718 C 115.201 349.188,113.350 347.200,112.849 347.200 C 112.677 347.200,112.294 346.750,112.000 346.200 C 111.706 345.650,111.221 345.200,110.924 345.200 C 110.626 345.200,110.187 344.770,109.947 344.244 C 109.708 343.718,109.082 343.092,108.556 342.853 C 108.030 342.613,107.600 342.209,107.600 341.955 C 107.600 341.701,104.360 338.247,100.400 334.279 C 92.290 326.155,92.578 326.584,94.995 326.222 C 95.983 326.074,97.050 325.693,97.367 325.376 C 97.684 325.059,98.136 324.800,98.373 324.800 C 98.959 324.800,101.189 323.564,102.354 322.595 C 104.107 321.136,107.200 318.103,107.200 317.844 C 107.200 317.703,107.814 316.645,108.565 315.494 C 109.315 314.342,110.058 312.770,110.215 312.000 C 110.372 311.230,110.660 310.498,110.856 310.373 C 112.990 309.009,112.749 287.892,110.574 285.717 C 110.258 285.401,110.000 284.853,110.000 284.499 C 110.000 281.165,101.390 272.871,95.942 270.959 C 94.764 270.545,93.698 270.068,93.573 269.898 C 92.676 268.677,87.606 268.414,64.900 268.407 L 42.000 268.400 42.000 310.800 M141.200 269.251 C 139.550 269.442,138.140 269.779,138.067 269.999 C 137.993 270.220,137.693 270.400,137.400 270.400 C 136.580 270.400,133.224 271.919,132.546 272.597 C 132.214 272.928,131.804 273.200,131.634 273.200 C 131.137 273.200,128.000 276.511,128.000 277.036 C 128.000 277.299,127.722 277.621,127.382 277.752 C 127.042 277.882,126.482 278.666,126.137 279.494 C 125.792 280.322,125.372 281.090,125.202 281.200 C 124.744 281.497,123.602 285.072,123.330 287.061 C 123.199 288.018,122.936 288.800,122.746 288.800 C 122.554 288.800,122.400 303.177,122.400 321.000 L 122.400 353.200 134.400 353.200 L 146.400 353.200 146.400 345.800 L 146.400 338.400 156.800 338.400 L 167.200 338.400 167.200 345.800 L 167.200 353.200 178.600 353.200 L 190.000 353.200 190.000 320.249 C 190.000 284.937,189.899 282.990,187.960 280.754 C 187.542 280.272,187.200 279.666,187.200 279.407 C 187.200 278.682,183.052 274.266,181.754 273.609 C 181.119 273.287,180.308 272.736,179.950 272.383 C 179.593 272.030,178.243 271.415,176.950 271.016 C 175.658 270.616,174.395 270.129,174.144 269.932 C 172.798 268.878,148.728 268.380,141.200 269.251 M199.600 311.000 L 199.600 353.200 212.200 353.200 L 224.800 353.200 224.800 311.000 L 224.800 268.800 212.200 268.800 L 199.600 268.800 199.600 311.000 M233.200 311.000 L 233.200 353.200 261.800 353.200 L 290.400 353.200 290.400 342.000 L 290.400 330.800 274.400 330.800 L 258.400 330.800 258.400 299.800 L 258.400 268.800 245.800 268.800 L 233.200 268.800 233.200 311.000 M315.000 269.259 C 313.460 269.456,312.140 269.793,312.067 270.008 C 311.993 270.224,311.701 270.400,311.418 270.400 C 310.545 270.400,307.019 272.078,306.680 272.655 C 306.504 272.955,306.130 273.200,305.848 273.200 C 304.995 273.200,300.550 277.476,299.833 278.987 C 299.464 279.764,298.998 280.400,298.797 280.400 C 298.396 280.400,296.800 285.229,296.800 286.442 C 296.800 286.859,296.620 287.200,296.400 287.200 C 295.906 287.200,295.845 303.265,296.337 303.820 C 296.522 304.029,296.995 305.425,297.387 306.922 C 297.780 308.419,298.310 309.859,298.565 310.122 C 298.821 310.385,299.444 311.277,299.951 312.105 C 300.933 313.710,303.060 316.000,303.569 316.000 C 303.738 316.000,304.202 316.360,304.600 316.800 C 304.998 317.240,305.547 317.600,305.819 317.600 C 306.092 317.600,306.410 317.849,306.527 318.153 C 306.643 318.457,307.788 319.031,309.069 319.428 C 310.351 319.825,311.499 320.294,311.621 320.470 C 312.149 321.237,316.785 321.600,326.055 321.600 L 336.000 321.600 336.000 326.148 L 336.000 330.695 334.500 330.943 C 333.675 331.080,324.945 331.193,315.100 331.196 L 297.200 331.200 297.200 342.200 L 297.200 353.200 317.933 353.200 C 337.428 353.200,342.852 352.950,343.600 352.016 C 343.710 351.879,344.560 351.522,345.490 351.223 C 346.419 350.924,347.499 350.391,347.890 350.039 C 348.280 349.688,349.385 348.867,350.345 348.215 C 351.304 347.563,352.564 346.393,353.145 345.615 C 353.725 344.837,354.334 344.140,354.497 344.068 C 355.191 343.758,357.534 337.989,357.949 335.567 C 358.966 329.629,358.192 314.531,356.847 314.082 C 356.601 314.000,356.400 313.678,356.400 313.365 C 356.400 312.721,355.291 310.543,354.397 309.432 C 353.217 307.965,349.521 304.400,349.180 304.400 C 348.988 304.400,348.509 304.064,348.116 303.654 C 347.722 303.244,346.410 302.590,345.200 302.201 C 343.990 301.812,342.748 301.293,342.439 301.047 C 342.061 300.746,337.858 300.560,329.539 300.479 L 317.200 300.357 317.200 295.779 L 317.200 291.200 336.400 291.200 L 355.600 291.200 355.600 280.000 L 355.600 268.800 336.700 268.851 C 326.305 268.878,316.540 269.062,315.000 269.259 M224.400 310.800 C 224.400 337.200,224.264 350.800,224.000 350.800 C 223.736 350.800,223.600 337.200,223.600 310.800 C 223.600 284.400,223.736 270.800,224.000 270.800 C 224.264 270.800,224.400 284.400,224.400 310.800 M161.740 289.100 C 161.842 289.265,160.458 289.352,158.663 289.292 C 152.783 289.098,152.118 288.941,156.876 288.870 C 159.448 288.831,161.637 288.935,161.740 289.100 M163.649 290.407 C 164.618 290.676,165.445 291.311,166.149 292.326 L 167.200 293.843 167.200 303.922 L 167.200 314.000 156.800 314.000 L 146.400 314.000 146.400 303.569 L 146.400 293.138 147.605 291.933 C 148.268 291.270,149.303 290.580,149.905 290.398 C 151.480 289.924,161.934 289.931,163.649 290.407 M84.512 291.846 C 85.330 292.641,86.000 293.528,86.000 293.817 C 86.000 294.106,86.315 294.658,86.700 295.043 C 87.534 295.877,87.749 303.406,86.954 303.915 C 86.708 304.072,86.120 304.965,85.646 305.900 C 85.172 306.835,84.512 307.600,84.179 307.600 C 83.847 307.600,83.471 307.870,83.345 308.200 C 83.150 308.708,81.772 308.800,74.357 308.800 L 65.600 308.800 65.600 299.600 L 65.600 290.400 74.312 290.400 L 83.023 290.400 84.512 291.846 " stroke="none" fill="#cc1c27" fill-rule="evenodd"></path><path id="path3" d="" stroke="none" fill="#d02424" fill-rule="evenodd"></path><path id="path4" d="" stroke="none" fill="#d02424" fill-rule="evenodd"></path></g></svg>