<svg xmlns="http://www.w3.org/2000/svg" width="400" height="400"><g fill-rule="evenodd"><path d="M213.9 55.482a5.661 5.661 0 0 0 1.8 0c.495-.095.09-.173-.9-.173s-1.395.078-.9.173m9.7 255.318c0 26.4.136 40 .4 40s.4-13.6.4-40-.136-40-.4-40-.4 13.6-.4 40m-69.8-21.738c3.835.293 8.111.314 7.94.038-.103-.165-2.292-.269-4.864-.23-2.572.038-3.956.125-3.076.192" fill="#cc2424"/><path d="M205.477 46.814c-2.157.164-4.021.397-4.143.518-.27.271.722 4.268 1.059 4.268.133 0 .48 1.073.771 2.385l.529 2.385 7.254-.24c3.989-.133 7.301-.279 7.36-.326.183-.145-1.175-5.181-1.511-5.604-.175-.22-.522-1.165-.772-2.1l-.455-1.7-3.084.058c-1.697.032-4.85.192-7.008.356M268 55.61c0 .654-.18 1.19-.4 1.19-.24 0-.4 1.6-.4 4 0 3.733.053 4 .8 4 .44 0 .8.153.8.341 0 .187 1.146.651 2.547 1.03 1.401.379 3.066.963 3.7 1.298 1.174.62 5.573 2.131 6.205 2.131.191 0 .348-1.35.348-3 0-1.733.169-3 .4-3 .22 0 .4-.895.4-1.99 0-2.032-1.082-3.21-2.947-3.21-.322 0-.647-.181-.721-.403-.073-.221-1.483-.769-3.133-1.216-1.649-.448-3.449-1.052-3.999-1.342-2.279-1.204-3.6-1.141-3.6.171m-52.3-.128a5.661 5.661 0 0 1-1.8 0c-.495-.095-.09-.173.9-.173s1.395.078.9.173m-62.971 4.625c-.291.279-1.339.852-2.329 1.272-.99.421-1.986.985-2.214 1.252-.227.267-1.082.766-1.9 1.107-.817.342-1.486.821-1.486 1.065s-.178.334-.395.2c-.217-.134-.756.093-1.198.505l-.804.748.808 1.672c.444.92.938 1.675 1.098 1.678.16.004.731.904 1.27 2 .538 1.097 1.115 1.994 1.281 1.994.166 0 .601.63.967 1.4.365.77.923 1.4 1.238 1.4.636 0 3.021-1.145 3.335-1.602.11-.16 1.01-.699 2-1.198s1.89-1.029 2-1.176c.11-.148.83-.514 1.6-.814 2.564-.997 3.003-1.802 1.7-3.115-.385-.388-1.15-1.558-1.699-2.6-.55-1.042-1.126-1.895-1.282-1.895-.155 0-.588-.647-.963-1.437s-.924-1.529-1.219-1.643c-.295-.113-.537-.456-.537-.763 0-.694-.576-.717-1.271-.05m60.71.231c-.115.185-2.601.446-5.524.579-5.396.246-14.35 1.368-14.715 1.845-.11.144-2.09.68-4.4 1.192-2.31.513-4.29 1.059-4.4 1.215-.11.156-1.28.586-2.599.956-1.32.369-2.457.842-2.526 1.051-.07.208-.403.273-.741.143-.338-.129-.732-.056-.874.163-.143.22-1.429.801-2.857 1.292-1.428.49-2.688 1.012-2.8 1.159-.314.413-3.163 1.667-3.788 1.667-.307 0-.796.225-1.086.5-.291.275-1.429.936-2.529 1.468-1.1.532-2.09 1.077-2.2 1.211-.11.134-.96.578-1.889.988-.929.41-1.576.927-1.438 1.151.151.244.049.281-.256.093-.279-.173-.621-.143-.762.065-.14.209-1.127.796-2.192 1.305-1.066.51-2.397 1.352-2.959 1.873-.561.52-1.256.946-1.543.946-.286 0-.665.235-.841.522-.176.288-1.057.9-1.957 1.361-.9.461-2.142 1.306-2.758 1.878-.617.571-1.359 1.039-1.649 1.039-.29 0-.721.36-.956.8-.235.44-.659.8-.942.8-.283 0-1.119.54-1.858 1.2-.739.66-1.447 1.203-1.572 1.206-.125.004-.858.566-1.628 1.249-.77.684-1.85 1.533-2.4 1.887-.55.354-1.235.962-1.523 1.351-.287.389-.711.707-.941.707-.23 0-1.075.616-1.877 1.369-4.493 4.215-5.388 5.031-5.517 5.031-.382 0-13.742 13.242-13.742 13.621 0 .253-2.769 3.301-5.614 6.179-.652.66-1.186 1.405-1.186 1.654 0 .25-.45.749-1 1.109-.55.361-1 .917-1 1.237 0 .32-.45.876-1 1.237-.55.36-1 .827-1 1.037 0 .21-.694 1.225-1.543 2.254-.848 1.03-1.653 2.187-1.787 2.572-.135.385-.419.7-.632.7-.213 0-.791.72-1.286 1.6-.495.88-1.028 1.6-1.185 1.6-.158 0-.647.692-1.087 1.537-.441.845-1.269 2.042-1.841 2.658-.571.617-1.039 1.357-1.039 1.644 0 .286-.235.665-.522.841-.288.176-.92 1.095-1.406 2.042-.485.948-1.24 2.107-1.677 2.576-.437.469-.795 1.089-.795 1.377 0 .289-.315.844-.7 1.234-.385.389-1.136 1.649-1.668 2.8-.533 1.15-1.075 2.091-1.206 2.091-.13 0-.681.945-1.224 2.1-.543 1.155-1.267 2.407-1.608 2.782-.341.376-.865 1.366-1.164 2.2-.298.835-.666 1.608-.816 1.718-.441.323-6.331 12.495-6.629 13.7-.149.605-.411 1.1-.581 1.1-.296 0-1.42 2.811-1.879 4.7-.12.495-.363.9-.539.9-.176 0-.723 1.215-1.215 2.7-.492 1.485-1.115 3.06-1.385 3.5-.27.44-.816 1.88-1.214 3.2-.397 1.32-.829 2.49-.96 2.6-.131.11-.674 1.64-1.207 3.4s-1.178 3.56-1.434 4c-.255.44-.778 2.15-1.162 3.8-.384 1.65-.837 3.18-1.007 3.4-.346.449-2.002 7.012-2.002 7.938 0 .327-.173.655-.383.729-.211.073-.879 2.923-1.484 6.333-.606 3.41-1.213 6.29-1.35 6.4-.263.211-1.184 6.361-1.184 7.9l.001.9h110.903l-.285-2.897c-.157-1.594-.432-2.989-.611-3.1-.521-.325-1.611-13.354-1.869-22.342-.293-10.216.907-30.548 1.845-31.261.145-.11.677-2.72 1.183-5.8.506-3.08 1.047-5.69 1.204-5.8.156-.11.61-1.64 1.008-3.4s.966-3.74 1.263-4.4c.296-.66.923-2.46 1.394-4 .47-1.54.98-2.89 1.132-3 .153-.11.697-1.37 1.209-2.8.512-1.43 1.053-2.69 1.202-2.8.149-.11.686-1.235 1.193-2.5s1.043-2.3 1.191-2.3c.148 0 .705-.99 1.238-2.2.533-1.21 1.075-2.2 1.206-2.2.13 0 .677-.897 1.215-1.994.539-1.096 1.11-1.996 1.271-2 .16-.003.651-.709 1.089-1.569.439-.86.937-1.625 1.108-1.7.337-.148 2.111-2.582 2.111-2.896 0-.508 11.967-12.69 13.332-13.571.703-.454 1.045-.953.904-1.321-.138-.36-.058-.486.207-.323.238.148.949-.113 1.579-.579.63-.466 1.333-.847 1.562-.847a.407.407 0 0 0 .416-.395c0-.398 1.936-1.788 4.965-3.565.899-.527 1.725-1.088 1.835-1.246.11-.158 1.01-.695 2-1.194s1.89-1.035 2-1.19c.11-.156 1.074-.613 2.142-1.017 1.068-.403 2.148-.927 2.4-1.163.487-.457 3.853-1.791 5.358-2.124.495-.11.9-.343.9-.519s1.305-.722 2.9-1.212 2.99-1.026 3.1-1.19c.11-.165 1.91-.713 4-1.218 2.09-.506 3.897-1.059 4.015-1.23.265-.381 9.625-1.937 11.652-1.937.806 0 1.539-.217 1.627-.481.213-.639 20.619-.697 21.032-.06.151.232 1.534.54 3.074.685 3.93.37 11.16 1.539 11.4 1.844.11.14 1.996.662 4.191 1.16 2.195.498 4.175 1.044 4.4 1.213.225.169 1.669.629 3.209 1.022 1.54.394 3.16.936 3.6 1.205.44.27 2.105.893 3.7 1.384 1.595.492 2.9 1.039 2.9 1.215 0 .176.405.418.9.538 1.997.486 4.7 1.591 4.7 1.922 0 .194.204.353.452.353.533 0 8.855 4.005 9.148 4.402.11.149 1.061.597 2.113.994 1.053.398 2.043.923 2.2 1.168.158.244 1.232.879 2.387 1.409s2.1 1.082 2.1 1.227c0 .145.9.685 2 1.2 1.1.515 2.298 1.266 2.662 1.668.364.403.851.732 1.083.732.231 0 1.447.72 2.701 1.6 1.255.88 2.478 1.6 2.718 1.6.24 0 .436.176.436.392 0 .215.72.759 1.6 1.208.88.449 1.6.993 1.6 1.208 0 .216.187.392.416.392.467 0 2.441 1.343 3.95 2.686 1.771 1.576 6.034 1.114 6.034-.654 0-.167.45-.509 1-.759.55-.251.997-.775.993-1.164-.006-.657-3.194-4.109-3.795-4.109-.147 0-1.242-.945-2.433-2.1-3.914-3.797-4.937-4.7-5.325-4.7-.21 0-.736-.45-1.169-1-.432-.55-.957-1-1.167-1-.209 0-.706-.36-1.104-.8-.398-.44-.895-.8-1.104-.8-.21 0-.735-.45-1.167-1-.433-.55-1.023-1-1.312-1-.289 0-.82-.45-1.18-1-.361-.55-.92-1-1.243-1-.323 0-.812-.36-1.087-.8-.275-.44-.65-.8-.834-.8-.183 0-1.386-.81-2.673-1.8-1.287-.99-2.524-1.8-2.75-1.8-.226 0-.554-.242-.73-.537-.176-.295-.86-.868-1.52-1.272s-1.382-.928-1.605-1.163c-.542-.573-2.624-1.823-3.495-2.099-.385-.122-.7-.378-.7-.568 0-.189-.72-.712-1.6-1.161-.88-.449-1.602-.948-1.605-1.108-.002-.161-.767-.642-1.7-1.069-.932-.427-1.888-1.002-2.123-1.278-.469-.549-3.017-2.056-5.654-3.345-.926-.452-1.916-1.042-2.2-1.311-.285-.269-1.418-.925-2.518-1.457-1.1-.532-2.09-1.087-2.2-1.232-.11-.145-1.1-.7-2.2-1.232s-2.09-1.08-2.2-1.217c-.11-.138-1.19-.669-2.4-1.18-1.21-.511-2.29-1.048-2.4-1.193-.291-.385-4.011-1.978-4.618-1.978-.283 0-.575-.178-.649-.396-.073-.217-1.213-.775-2.533-1.238-1.32-.464-2.49-.974-2.6-1.135-.11-.161-1.46-.725-3-1.254s-2.89-1.074-3-1.21c-.11-.137-1.46-.659-3-1.161s-2.986-1.058-3.214-1.237c-.228-.178-1.848-.716-3.6-1.195-1.752-.479-3.276-.989-3.386-1.133-.232-.304-7.162-2.041-8.142-2.041-.362 0-.658-.152-.658-.338 0-.186-2.205-.743-4.9-1.239-2.695-.495-5.26-1.062-5.7-1.258-1.24-.555-10.204-1.566-16.315-1.841-3.033-.137-5.609-.4-5.723-.586-.273-.441-8.451-.441-8.723 0m53.971 38.053c-.069.115-.256 2.324-.415 4.909l-.291 4.7h3.048c1.676 0 3.048.144 3.048.321 0 .267 6.654 1.296 8.3 1.283.352-.003.5-.833.5-2.804 0-1.6.171-2.8.4-2.8.22 0 .4-.878.4-1.951v-1.952l-3.016-.448c-1.659-.247-3.534-.449-4.167-.449s-1.21-.16-1.284-.356c-.142-.378-6.311-.808-6.523-.453m-35.21 4.086c-1.54.448-2.89.94-3 1.093-.11.154-1.611.718-3.335 1.255l-3.135.975.228 1.707c.126.939.569 2.469.985 3.4.417.931.994 2.638 1.283 3.793.615 2.459.902 2.532 3.725.957 1.127-.629 2.904-1.373 3.949-1.652 1.045-.28 1.9-.648 1.9-.817 0-.17.914-.527 2.031-.795 2.28-.547 2.696-1.101 1.849-2.461-.32-.512-.907-2.192-1.304-3.732-.698-2.703-1.595-4.634-2.122-4.568-.14.017-1.514.398-3.054.845m-140.619 5.202l-5.267 5.28 2.143 1.973a527.716 527.716 0 0 1 3.572 3.321c.786.741 1.621 1.347 1.854 1.347.234 0 .725.458 1.092 1.018 1.274 1.944 5.176 2.194 4.443.285-.143-.373-.156-.574-.028-.447.265.266 3.01-2.143 3.01-2.641 0-.181.549-.888 1.22-1.572 4.489-4.572 5.078-6.52 2.04-6.748-.443-.034-.713-.209-.602-.389.222-.358-2.121-2.706-2.7-2.706-.197 0-.358-.27-.358-.6 0-.33-.23-.6-.512-.6-.282 0-1.106-.63-1.832-1.4-1.954-2.071-2.307-1.902-8.075 3.879M195.7 123.736c-.495.25-.9.592-.9.762 0 .169-1.215 1.563-2.7 3.098-4.368 4.513-4.566 4.836-3.656 5.959.416.513.756 1.173.756 1.467 0 .293.315.77.7 1.06.385.29.897.886 1.138 1.323 1.132 2.058 1.602 2.808 2.095 3.342.294.317.694.999.891 1.515.383 1.009 1.976 1.328 1.976.396 0-.297.441-1.017.979-1.597.538-.581 1.123-1.312 1.3-1.625.177-.312 1.086-1.382 2.021-2.378.935-.996 1.7-1.92 1.7-2.054 0-.133.478-.654 1.062-1.156l1.063-.914-.749-1.267c-.412-.697-.89-1.267-1.062-1.267-.173 0-.314-.184-.314-.408 0-.224-.495-1.154-1.1-2.065a93.954 93.954 0 0 1-1.957-3.093c-.914-1.529-1.794-1.827-3.243-1.098m-23.833 38.531c-.147.146-.267.596-.267 1 0 .403-.146.733-.325.733-.179 0-.747 1.845-1.262 4.1-.514 2.255-1.072 4.28-1.239 4.5-.167.22-.491 1.39-.722 2.6-.483 2.54-.364 2.7 4.948 6.707a66.605 66.605 0 0 1 4.612 3.793c1.895 1.715 2.285 1.475 2.605-1.6.154-1.485.414-2.88.578-3.1.164-.22.416-1.39.56-2.6.143-1.21.549-3.577.902-5.26.639-3.048.18-5.072-1.163-5.127-.314-.013-4.271-3.053-5.694-4.374-1.44-1.338-2.973-1.933-3.533-1.372M48.564 168.2c-.138.55-.396 1-.574 1-.178 0-.713 1.26-1.19 2.8-.477 1.54-1.007 2.8-1.179 2.8-.172 0-.721 1.215-1.22 2.7s-1.026 2.79-1.171 2.9c-1.322 1.003-1.382 4.8-.076 4.8.429 0 .839.167.913.371.073.204 1.573.786 3.333 1.293 1.76.507 3.29 1.042 3.4 1.188.11.146 1.505.662 3.1 1.146 1.595.484 2.9 1.042 2.9 1.241 0 1.569 2.02.169 2.653-1.839.381-1.21.81-2.2.953-2.2.142 0 .69-1.305 1.217-2.9.527-1.595 1.163-3.113 1.413-3.374.25-.261.768-1.431 1.15-2.6.382-1.169.842-2.218 1.023-2.33 1.326-.825.787-2.231-1.042-2.72-1.031-.276-2.795-.92-3.921-1.431-1.125-.511-2.991-1.153-4.146-1.427-1.155-.274-2.1-.636-2.1-.805 0-.261-4.124-1.613-4.919-1.613-.146 0-.379.45-.517 1m117.238 49.429c.163 2.937.446 5.617.629 5.955.183.339.445 2 .582 3.691.294 3.609.462 3.781 5.028 5.159 1.627.491 3.319 1.118 3.759 1.394.44.275 1.97.818 3.4 1.207 1.43.389 2.699.852 2.82 1.03.432.635 2.779.875 2.788.285.018-1.14-1.389-8.959-1.646-9.15-.148-.11-.482-1.91-.743-4-.672-5.399-.73-5.6-1.598-5.6-.42 0-1.034-.27-1.364-.6-.33-.33-.743-.6-.917-.6-.579 0-5.936-1.747-6.14-2.002-.19-.238-3.918-1.423-5.948-1.891l-.947-.219.297 5.341M42 310.8v42.4h23.6l.032-9.7c.017-5.335.134-9.43.259-9.1.126.33 2.947 3.339 6.269 6.686 3.322 3.348 7.3 7.44 8.84 9.095l2.8 3.008 17.3.006c10.309.003 17.3-.144 17.3-.364 0-.67-2.466-2.85-3.098-2.74a.714.714 0 0 1-.791-.491c-.153-.533-.125-.533.252 0 .268.378.427.422.431.118.007-.53-1.844-2.518-2.345-2.518-.172 0-.555-.45-.849-1-.294-.55-.779-1-1.076-1-.298 0-.737-.43-.977-.956-.239-.526-.865-1.152-1.391-1.391-.526-.24-.956-.644-.956-.898s-3.24-3.708-7.2-7.676c-8.11-8.124-7.822-7.695-5.405-8.057.988-.148 2.055-.529 2.372-.846.317-.317.769-.576 1.006-.576.586 0 2.816-1.236 3.981-2.205 1.753-1.459 4.846-4.492 4.846-4.751 0-.141.614-1.199 1.365-2.35.75-1.152 1.493-2.724 1.65-3.494.157-.77.445-1.502.641-1.627 2.134-1.364 1.893-22.481-.282-24.656-.316-.316-.574-.864-.574-1.218 0-3.334-8.61-11.628-14.058-13.54-1.178-.414-2.244-.891-2.369-1.061-.897-1.221-5.967-1.484-28.673-1.491L42 268.4v42.4m99.2-41.549c-1.65.191-3.06.528-3.133.748-.074.221-.374.401-.667.401-.82 0-4.176 1.519-4.854 2.197-.332.331-.742.603-.912.603-.497 0-3.634 3.311-3.634 3.836 0 .263-.278.585-.618.716-.34.13-.9.914-1.245 1.742-.345.828-.765 1.596-.935 1.706-.458.297-1.6 3.872-1.872 5.861-.131.957-.394 1.739-.584 1.739-.192 0-.346 14.377-.346 32.2v32.2h24v-14.8h20.8v14.8H190v-32.951c0-35.312-.101-37.259-2.04-39.495-.418-.482-.76-1.088-.76-1.347 0-.725-4.148-5.141-5.446-5.798-.635-.322-1.446-.873-1.804-1.226-.357-.353-1.707-.968-3-1.367-1.292-.4-2.555-.887-2.806-1.084-1.346-1.054-25.416-1.552-32.944-.681M199.6 311v42.2h25.2v-84.4h-25.2V311m33.6 0v42.2h57.2v-22.4h-32v-62h-25.2V311m81.8-41.741c-1.54.197-2.86.534-2.933.749-.074.216-.366.392-.649.392-.873 0-4.399 1.678-4.738 2.255-.176.3-.55.545-.832.545-.853 0-5.298 4.276-6.015 5.787-.369.777-.835 1.413-1.036 1.413-.401 0-1.997 4.829-1.997 6.042 0 .417-.18.758-.4.758-.494 0-.555 16.065-.063 16.62.185.209.658 1.605 1.05 3.102.393 1.497.923 2.937 1.178 3.2.256.263.879 1.155 1.386 1.983.982 1.605 3.109 3.895 3.618 3.895.169 0 .633.36 1.031.8.398.44.947.8 1.219.8.273 0 .591.249.708.553.116.304 1.261.878 2.542 1.275 1.282.397 2.43.866 2.552 1.042.528.767 5.164 1.13 14.434 1.13H336v9.095l-1.5.248c-.825.137-9.555.25-19.4.253l-17.9.004v22h20.733c19.495 0 24.919-.25 25.667-1.184.11-.137.96-.494 1.89-.793.929-.299 2.009-.832 2.4-1.184.39-.351 1.495-1.172 2.455-1.824.959-.652 2.219-1.822 2.8-2.6.58-.778 1.189-1.475 1.352-1.547.694-.31 3.037-6.079 3.452-8.501 1.017-5.938.243-21.036-1.102-21.485-.246-.082-.447-.404-.447-.717 0-.644-1.109-2.822-2.003-3.933-1.18-1.467-4.876-5.032-5.217-5.032-.192 0-.671-.336-1.064-.746-.394-.41-1.706-1.064-2.916-1.453s-2.452-.908-2.761-1.154c-.378-.301-4.581-.487-12.9-.568l-12.339-.122V291.2h38.4v-22.4l-18.9.051c-10.395.027-20.16.211-21.7.408M224.4 310.8c0 26.4-.136 40-.4 40s-.4-13.6-.4-40 .136-40 .4-40 .4 13.6.4 40m-62.66-21.7c.102.165-1.282.252-3.077.192-5.88-.194-6.545-.351-1.787-.422 2.572-.039 4.761.065 4.864.23m1.909 1.307c.969.269 1.796.904 2.5 1.919l1.051 1.517V314h-20.8v-20.862l1.205-1.205c.663-.663 1.698-1.353 2.3-1.535 1.575-.474 12.029-.467 13.744.009m-79.137 1.439c.818.795 1.488 1.682 1.488 1.971 0 .289.315.841.7 1.226.834.834 1.049 8.363.254 8.872-.246.157-.834 1.05-1.308 1.985-.474.935-1.134 1.7-1.467 1.7-.332 0-.708.27-.834.6-.195.508-1.573.6-8.988.6H65.6v-18.4h17.423l1.489 1.446" fill="#cc1c27"/></g></svg>