<svg xmlns="http://www.w3.org/2000/svg" width="400" height="400"><g fill-rule="evenodd"><path d="M177.743 90.79c-2.214.91-2.143-.035-2.145 28.399-.003 32.475.389 30.526-5.938 29.547-14.156-2.192-32.931.727-45.657 7.098-22.114 11.07-34.59 35.724-32.416 64.058 2.514 32.775 19.998 50.506 55.213 55.991 5.804.905 29.646 1.027 37.6.193 11.488-1.204 26.447-3.666 28.396-4.674 2.122-1.097 2.047 2.478 1.921-91.291l-.117-87.689-.911-.911-.911-.911-17.089-.081c-9.399-.045-17.475.077-17.946.271m61.865.524c-1.998 1.011-2.017 1.209-1.909 20.175l.101 17.689.911.911.911.911 16.889.115c18.131.124 18.256.117 19.478-1.195.79-.849.811-1.333.798-18.895-.013-18.998.009-18.764-1.861-19.76-1.294-.689-33.949-.644-35.318.049m.534 59.755c-2.509.514-2.317-3.363-2.587 52.073-.244 50.289-.329 53.316-1.775 63.458-2.809 19.705-11.526 32.619-27.58 40.857-8.647 4.436-8.551 5.191 1.231 9.684 3.283 1.508 7.949 3.733 10.369 4.945 15.271 7.648 15.786 7.741 22.421 4.064 18.005-9.98 27.976-24.038 32.163-45.35 2.14-10.887 2.136-10.769 2.3-71.257l.152-56.257-.983-1.143-.983-1.143-16.935-.054c-9.314-.029-17.321.026-17.793.123m-68.241 29.897c3.758 1.19 3.483-1.174 3.609 31.053.138 35.232.898 32.131-8.061 32.878C144.491 246.809 131.6 235.34 131.6 213c0-15.766 6.961-27.403 18.645-31.169 6.113-1.97 16.816-2.397 21.656-.865" fill="#f8f8f8"/><path d="M190.367 13.762c-.092.09-3.137.362-6.767.605-25.761 1.724-57.297 11.558-78 24.321-10.44 6.437-15.254 9.766-24.174 16.72-7.347 5.728-21.12 19.58-26.315 26.467-8.072 10.699-9.792 13.078-11.514 15.925-1.065 1.76-2.77 4.46-3.788 6-20.234 30.598-30.41 82.036-24.373 123.2 4.463 30.43 17.874 63.15 34.472 84.104 1.48 1.869 3.48 4.5 4.443 5.847 6.818 9.535 24.138 25.94 37.049 35.091 25.969 18.407 56.966 30.072 88 33.117l8.514.836c15.994 1.573 41.139-.906 60.686-5.982 38.25-9.934 72.743-32.622 97.801-64.332 7.211-9.125 10.424-14.077 19.05-29.364 4.848-8.592 12.229-28.044 14.918-39.317 3.095-12.973 4.003-18.425 5.331-32 .557-5.693.555-24.335-.003-30-.978-9.93-1.316-12.887-1.669-14.6-.204-.99-.668-3.42-1.03-5.4-3.032-16.566-8.874-34.215-16.015-48.391C340.1 63.247 290.077 25.916 232.501 16.248c-5.533-.929-8.156-1.217-20.364-2.24-4.671-.392-21.426-.581-21.77-.246m23.322 77.749l.911.911.117 87.689c.083 62.016-.009 88.127-.315 89.187-.535 1.85-1.696 2.503-5.891 3.309-25.501 4.902-53.736 5.53-70.511 1.568-29.223-6.902-44.114-24.318-46.413-54.283-2.174-28.334 10.302-52.988 32.416-64.058 12.726-6.371 31.501-9.29 45.657-7.098 6.327.979 5.935 2.928 5.938-29.547.002-28.434-.069-27.489 2.145-28.399.471-.194 8.547-.316 17.946-.271l17.089.081.911.911m61.237-.246c1.87.996 1.848.762 1.861 19.76.013 17.562-.008 18.046-.798 18.895-1.222 1.312-1.347 1.319-19.478 1.195L239.622 131l-.911-.911-.911-.911-.101-17.689c-.108-18.966-.089-19.164 1.909-20.175 1.369-.693 34.024-.738 35.318-.049m.927 60.878l.983 1.143-.152 56.257c-.164 60.488-.16 60.37-2.3 71.257-4.187 21.312-14.158 35.37-32.163 45.35-6.635 3.677-7.15 3.584-22.421-4.064-2.42-1.212-7.086-3.437-10.369-4.945-9.782-4.493-9.878-5.248-1.231-9.684 16.054-8.238 24.771-21.152 27.58-40.857 1.446-10.142 1.531-13.169 1.775-63.458.235-48.193.275-50.292.987-51.078 1.073-1.186.904-1.176 19.393-1.118l16.935.054.983 1.143m-121.008 28.452C139.472 184.069 131.6 195.042 131.6 213c0 22.34 12.891 33.809 35.849 31.897 5.814-.485 6.967-.946 7.661-3.065.893-2.727.513-57.728-.409-59.134-1.502-2.292-13.428-3.556-19.856-2.103" fill="#0c2c23"/></g></svg>