<svg xmlns="http://www.w3.org/2000/svg" width="400" height="400"><g fill-rule="evenodd"><path d="M131.2 68.454c-3.326.93-4.332 1.301-6.595 2.433-6.341 3.17-11.432 9.567-14.167 17.797-5.739 17.276-2.586 29.276 8.562 32.584 4.455 1.323 33.087 2.237 37 1.183 1.163-.314 3.158-5.643 3.313-8.851l.087-1.8-2.921-.118c-3.425-.138-3.373.623-.473-6.911 6.84-17.775 5.049-29.043-5.44-34.227-4.47-2.209-14.913-3.336-19.366-2.09m182.79 5.635c-.684.773-1.817 2.223-2.517 3.221-1.318 1.88-3.55 4.952-9.075 12.49-1.773 2.42-3.874 5.345-4.668 6.5-1.987 2.891-1.99 2.889-3.169-2.1-.413-1.746-.581-1.787-7.303-1.794l-6.142-.006.216 1.5c.119.825.398 2.31.62 3.3 1.111 4.949 1.236 5.401 2.044 7.4 2.178 5.388 2.371 8.86.782 14.028-.208.676-.378 1.825-.378 2.555v1.326l6.005-.193c7.057-.227 6.16.303 7.352-4.344 1.335-5.204 1.014-4.615 6.64-12.172 8.234-11.06 17.648-23.722 20.729-27.879 3.571-4.82 3.576-4.72-.226-4.723a101.67 101.67 0 0 1-6.383-.258l-3.283-.256-1.244 1.405m-85.19 4.567c-13.186 1.099-20.097 9.011-22.638 25.917-2.261 15.036 2.794 18.485 26.609 18.156l9.372-.129.335-1.2c.842-3.018 1.946-8.638 1.757-8.944-.115-.186-3.23-.258-6.922-.159-11.677.311-17.284-.752-18.676-3.544-1.748-3.504-1.273-3.628 14.819-3.86l13.255-.191.262-1.451c3.59-19.896-.943-26.031-18.173-24.595m-29 .521l-4 .223-1.057 4.2c-.582 2.31-2.068 8.43-3.303 13.6-1.234 5.17-2.423 9.953-2.642 10.628-.219.676-.398 1.599-.398 2.051 0 1.6-.909 1.856-5.685 1.604-6.274-.331-7.844-1.761-6.821-6.216.422-1.835.955-4.519 1.762-8.867.225-1.21.557-2.92.737-3.8.181-.88.509-2.5.73-3.6l.882-4.4c.265-1.32.64-2.916.833-3.546.544-1.769.287-1.854-5.613-1.854h-5.528l-.415 1.1c-.229.605-.519 1.73-.646 2.5-.126.77-.393 2.12-.593 3-.199.88-.579 2.59-.843 3.8s-.625 2.83-.801 3.6c-.176.77-.497 2.21-.712 3.2-.216.99-.718 3.24-1.115 5-1.815 8.037-.789 15.574 2.458 18.05 3.144 2.398 4.212 2.55 17.951 2.55 13.814 0 12.956.171 13.495-2.685.386-2.042.916-4.45 1.524-6.915.58-2.353 1.061-4.493 1.618-7.2a465.25 465.25 0 0 1 1.582-7.4c.22-.99.56-2.565.756-3.5a617.144 617.144 0 0 1 1.685-7.7c.199-.88.532-2.548.74-3.706.208-1.158.493-2.291.633-2.517.449-.726-.669-1.58-1.963-1.5-.688.043-3.051.178-5.251.3m68.913.007c-11.867.249-11.21.02-12.124 4.234-.333 1.53-.799 3.682-1.037 4.782-.238 1.1-.595 2.72-.793 3.6-.199.88-.54 2.5-.759 3.6-.219 1.1-.579 2.81-.801 3.8-.404 1.799-.746 3.463-1.563 7.6-.238 1.21-.615 3.01-.836 4-.381 1.705-.89 4.215-1.583 7.8-.17.88-.436 1.897-.591 2.26-.448 1.053.265 1.194 6.023 1.19 6.437-.005 5.563.6 6.79-4.699.553-2.393 1.366-5.881 1.805-7.751.44-1.87.96-4.12 1.156-5 .69-3.099 2.039-8.816 2.417-10.246.211-.796.383-1.825.383-2.286 0-1.533 1.085-1.668 13.474-1.674 13.006-.007 13.149-.03 12.732-2.044-1.606-7.766-3.869-9.642-11.406-9.456-1.65.04-7.629.171-13.287.29M94.453 80.49c-.709 2.235-2.053 7.981-2.053 8.775 0 .713.347.75 6.09.645l6.091-.11.885-3.8c.487-2.09.942-4.43 1.01-5.2l.124-1.4-5.866-.11-5.865-.111-.416 1.311m47.499-.307c4.364 2.293 6.215 7.991 4.423 13.617-.65 2.041-4.452 15.15-4.659 16.064-.504 2.228-14.402 1.696-17.738-.679-3.742-2.665-3.563-12.748.383-21.615 2.863-6.433 12.056-10.293 17.591-7.387m91.604 9.718c1.437.741 3.376 3.716 3.159 4.846-.11.567-15.622.829-16.22.274-.377-.35 1.322-3.142 2.4-3.946 2.646-1.973 7.975-2.56 10.661-1.174M91.839 92.737c-.262.424-1.345 4.304-1.916 6.863a251.994 251.994 0 0 1-1.563 6.6c-.654 2.593-1.594 6.898-2.314 10.6-.402 2.066-.793 3.645-1.487 6-.933 3.17-3.354 5.133-6.762 5.485-1.516.157-2.239.421-2.379.87-.232.747-2.201 8.239-2.492 9.485-.221.946 1.722 1.353 6.474 1.354 9.923.001 14.473-3.522 16.651-12.894a589.93 589.93 0 0 1 2.74-11.1c.197-.77.55-2.255.784-3.3l.853-3.8c2.121-9.418 2.8-12.865 2.892-14.7l.08-1.6-5.67-.111c-3.118-.061-5.769.051-5.891.248m125.648 58.637c-14.774 17.674-9.633 47.993 10.67 62.926 4.46 3.281 5.063 3.64 9.629 5.741 1.533.705 3.333 1.419 4 1.585.668.167 1.754.488 2.414.712 5.049 1.718 16.478 2.399 21.2 1.263 1.1-.265 2.99-.626 4.2-.802 5.895-.861 15.295-6.812 22.724-14.389 5.822-5.938 5.86-8.024.076-4.216-2.559 1.686-4.992 2.991-9 4.829-6.981 3.202-20.042 4.916-25.8 3.386-.77-.205-2.21-.583-3.2-.841-3.704-.965-8.238-2.865-11.108-4.654-1.159-.723-2.181-1.314-2.271-1.314-.091 0-1.752-1.061-3.693-2.358-15.661-10.469-23.362-32.415-17.661-50.333 1.208-3.797.265-4.461-2.18-1.535m-42.204 10.571c-12.316 16.171-16.779 27.889-16.627 43.655.069 7.189 1.481 15.982 3.189 19.86.305.694.555 1.457.555 1.698 0 1.663 7.067 15.415 9.478 18.442a156.4 156.4 0 0 1 2 2.648c4.174 5.615 9.837 11.456 15.722 16.217 4.445 3.596 15.394 10.335 16.791 10.335.419 0 .857.154.973.342.116.188 1.612.824 3.324 1.414 1.711.589 3.652 1.269 4.312 1.51.66.241 2.55.679 4.2.974 1.65.294 3.9.71 5 .924 2.746.533 22.741.525 25-.01.99-.235 3.15-.672 4.8-.972 3.153-.572 7.247-1.595 8.6-2.148.44-.18 1.88-.725 3.2-1.21 4.648-1.711 9.628-4.423 15.085-8.216 2.915-2.026 10.059-9.443 12.336-12.808 4.904-7.247 6.844-12.864 3.3-9.554-6.456 6.029-19.565 14.154-22.836 14.154-.216 0-.909.269-1.539.598-.63.328-1.455.598-1.832.6-.378.001-1.278.266-2 .588-6.382 2.847-23.689 3.026-33.914.352-1.21-.316-2.83-.73-3.6-.919-1.561-.383-8.61-2.897-9.821-3.503-.429-.215-1.679-.796-2.779-1.293-2.647-1.196-3.218-1.505-8.544-4.633-10.425-6.122-20.803-16.264-27.209-26.59-1.798-2.898-6.047-11.395-6.047-12.092 0-.302-.164-.719-.364-.928-.733-.766-3.121-9.695-3.633-13.58-.173-1.32-.537-4.02-.809-6-1.188-8.676.796-20.453 4.806-28.536 1.978-3.987 1.418-4.647-1.117-1.319m-52.249 20.088c-3.913 4.226-7.464 8.922-11.332 14.987-.747 1.171-5.083 10.176-5.673 11.78-.283.77-.787 2.12-1.121 3-5.222 13.766-5.702 35.026-1.158 51.2 1.501 5.343 2.239 7.543 3.516 10.496.404.932.734 1.88.734 2.105 0 .225.162.722.359 1.104.198.382 1.133 2.315 2.078 4.295 2.094 4.384 5.689 10.679 7.229 12.658.624.801 1.134 1.577 1.134 1.723 0 1.234 10.605 13.624 16.195 18.921 13.978 13.247 29.309 22.076 46.605 26.841 6.651 1.832 8.393 2.174 18 3.535 7.772 1.102 23.149.77 29.2-.63.99-.229 2.79-.595 4-.812 3.606-.649 7.001-1.501 7.902-1.984.465-.248 1.262-.458 1.772-.466.509-.007 1.646-.361 2.526-.786.88-.425 1.881-.779 2.224-.786.342-.008.972-.278 1.4-.601.427-.323.986-.593 1.244-.6.608-.017 7.466-3.352 9.532-4.636.88-.547 1.87-1.112 2.2-1.256.33-.145.69-.372.8-.506.11-.133 1.19-.892 2.4-1.686 10.737-7.044 21.574-19.442 27.841-31.851 1.977-3.914 1.443-4.327-1.866-1.44-1.416 1.236-3.025 2.541-3.575 2.899-.55.359-1.238.88-1.529 1.158-2.631 2.515-15.181 9.463-21.823 12.081-12.228 4.82-26.255 6.982-39.048 6.016-11.561-.873-15.913-1.592-27-4.465-6.613-1.713-21.076-7.751-23.431-9.782-.348-.3-.911-.545-1.252-.545-.34 0-.837-.263-1.104-.585-.267-.321-.871-.706-1.341-.856-.471-.149-1.31-.588-1.864-.975a183.8 183.8 0 0 0-3.808-2.503c-12.368-7.953-25.363-21.101-33.175-33.567-3.948-6.301-8.711-16.801-10.574-23.314-5.058-17.684-4.62-37.179 1.204-53.6.235-.66.523-1.65.642-2.2.119-.55.522-1.45.895-2s.804-1.27.959-1.6c.154-.33.532-1.04.84-1.578.552-.963.482-1.622-.172-1.622-.183 0-1.346 1.095-2.585 2.433" fill="#d8efea"/><path d="M178.203.276c-1.978.087-3.769.33-3.98.541-.211.211-1.506.383-2.879.383s-2.608.18-2.744.4c-.136.22-1.216.4-2.4.4s-2.264.18-2.4.4c-.136.22-1.047.4-2.024.4-.977 0-1.776.18-1.776.4 0 .22-.9.4-2 .4s-2 .18-2 .4c0 .22-.72.4-1.6.4-.88 0-1.6.18-1.6.4 0 .22-.72.4-1.6.4-.88 0-1.6.18-1.6.4 0 .22-.72.4-1.6.4-.88 0-1.6.18-1.6.4 0 .22-.529.4-1.176.4-.647 0-1.288.18-1.424.4-.136.22-.777.4-1.424.4-.647 0-1.176.157-1.176.348 0 .192-.941.474-2.09.626-1.15.153-2.289.442-2.531.644-.243.201-.828.425-1.3.497-.472.072-.983.256-1.135.408-.153.152-.61.277-1.016.277s-1.051.159-1.433.353c-.382.195-1.235.576-1.895.847-.66.271-1.513.652-1.895.847-.382.194-1.057.353-1.5.353-.443 0-.805.18-.805.4 0 .22-.36.4-.8.4-.44 0-.8.18-.8.4 0 .22-.54.4-1.2.4-.66 0-1.2.18-1.2.4 0 .22-.36.4-.8.4-.44 0-.8.18-.8.4 0 .22-.36.4-.8.4-.44 0-.8.18-.8.4 0 .22-.439.4-.976.4-.537 0-1.088.18-1.224.4-.136.22-.597.4-1.024.4-.427 0-.776.18-.776.4 0 .22-.36.4-.8.4-.44 0-.8.18-.8.4 0 .22-.36.4-.8.4-.44 0-.8.146-.8.325 0 .179-.63.573-1.4.875-.77.302-1.4.696-1.4.875 0 .179-.36.325-.8.325-.44 0-.8.18-.8.4 0 .22-.36.4-.8.4-.44 0-.8.18-.8.4 0 .22-.32.4-.712.4-.391 0-.971.36-1.288.8-.317.44-.813.8-1.102.8-.549 0-4.551 1.923-4.898 2.353-.11.137-.74.518-1.4.848-.66.329-1.549.914-1.975 1.299-.427.385-.972.7-1.212.7s-.696.36-1.013.8c-.317.44-.897.8-1.288.8-.392 0-.712.15-.712.332 0 .183-.495.587-1.1.898-.605.31-1.391.881-1.747 1.267-.356.387-.901.703-1.212.703-.31 0-.824.36-1.141.8-.317.44-.825.8-1.128.8-.303 0-1.055.54-1.672 1.2-.617.66-1.337 1.2-1.6 1.2-.263 0-.983.54-1.6 1.2-.617.66-1.276 1.2-1.465 1.2-.189 0-.791.41-1.339.911-.548.502-1.626 1.35-2.396 1.885-.77.535-1.85 1.437-2.4 2.004-.55.567-1.621 1.467-2.38 1.999-1.796 1.261-19.16 18.625-20.421 20.421-.532.759-1.432 1.83-1.999 2.38-.567.55-1.469 1.63-2.004 2.4-.535.77-1.383 1.848-1.885 2.396-.501.548-.911 1.15-.911 1.339 0 .189-.54.848-1.2 1.465-.66.617-1.2 1.337-1.2 1.6 0 .263-.54.983-1.2 1.6-.66.617-1.2 1.369-1.2 1.672 0 .303-.36.811-.8 1.128-.44.317-.8.831-.8 1.141 0 .311-.316.856-.703 1.212-.386.356-.957 1.142-1.267 1.747-.311.605-.715 1.1-.898 1.1-.182 0-.332.32-.332.712 0 .391-.36.971-.8 1.288-.44.317-.8.773-.8 1.013 0 .24-.315.785-.7 1.212-.385.426-.97 1.315-1.299 1.975-.33.66-.711 1.29-.848 1.4-.43.347-2.353 4.349-2.353 4.898 0 .289-.36.785-.8 1.102-.44.317-.8.897-.8 1.288 0 .392-.18.712-.4.712-.22 0-.4.36-.4.8 0 .44-.18.8-.4.8-.22 0-.4.36-.4.8 0 .44-.146.8-.325.8-.179 0-.573.63-.875 1.4-.302.77-.696 1.4-.875 1.4-.179 0-.325.36-.325.8 0 .44-.18.8-.4.8-.22 0-.4.36-.4.8 0 .44-.18.8-.4.8-.22 0-.4.349-.4.776 0 .427-.18.888-.4 1.024-.22.136-.4.687-.4 1.224 0 .537-.18.976-.4.976-.22 0-.4.36-.4.8 0 .44-.18.8-.4.8-.22 0-.4.36-.4.8 0 .44-.18.8-.4.8-.22 0-.4.54-.4 1.2 0 .66-.18 1.2-.4 1.2-.22 0-.4.36-.4.8 0 .44-.18.8-.4.8-.22 0-.4.362-.4.805 0 .443-.159 1.118-.353 1.5a32.261 32.261 0 0 0-.847 1.895c-.271.66-.652 1.513-.847 1.895-.194.382-.353 1.027-.353 1.433 0 .406-.125.863-.277 1.016-.152.152-.336.663-.408 1.135-.072.472-.296 1.057-.497 1.3-.202.242-.491 1.381-.644 2.531-.152 1.149-.434 2.09-.626 2.09-.191 0-.348.529-.348 1.176 0 .647-.18 1.288-.4 1.424-.22.136-.4.777-.4 1.424 0 .647-.18 1.176-.4 1.176-.22 0-.4.72-.4 1.6 0 .88-.18 1.6-.4 1.6-.22 0-.4.72-.4 1.6 0 .88-.18 1.6-.4 1.6-.22 0-.4.72-.4 1.6 0 .88-.18 1.6-.4 1.6-.22 0-.4.9-.4 2s-.18 2-.4 2c-.22 0-.4.799-.4 1.776s-.18 1.888-.4 2.024c-.22.136-.4 1.216-.4 2.4s-.18 2.264-.4 2.4c-.22.136-.4 1.371-.4 2.744 0 1.463-.207 2.703-.5 2.996-.729.729-.729 50.591 0 51.32.293.293.5 1.533.5 2.996 0 1.373.18 2.608.4 2.744.22.136.4 1.216.4 2.4s.18 2.264.4 2.4c.22.136.4 1.047.4 2.024 0 .977.18 1.776.4 1.776.22 0 .4.9.4 2s.18 2 .4 2c.22 0 .4.72.4 1.6 0 .88.18 1.6.4 1.6.22 0 .4.72.4 1.6 0 .88.18 1.6.4 1.6.22 0 .4.72.4 1.6 0 .88.18 1.6.4 1.6.22 0 .4.529.4 1.176 0 .647.18 1.288.4 1.424.22.136.4.777.4 1.424 0 .647.157 1.176.348 1.176.192 0 .474.941.626 2.09.153 1.15.442 2.289.644 2.531.201.243.425.828.497 1.3.072.472.256.983.408 1.135.152.153.277.61.277 1.016s.159 1.051.353 1.433c.195.382.576 1.235.847 1.895.271.66.652 1.513.847 1.895.194.382.353 1.057.353 1.5 0 .443.18.805.4.805.22 0 .4.36.4.8 0 .44.18.8.4.8.22 0 .4.54.4 1.2 0 .66.18 1.2.4 1.2.22 0 .4.36.4.8 0 .44.18.8.4.8.22 0 .4.36.4.8 0 .44.18.8.4.8.22 0 .4.439.4.976 0 .537.18 1.088.4 1.224.22.136.4.597.4 1.024 0 .427.18.776.4.776.22 0 .4.36.4.8 0 .44.18.8.4.8.22 0 .4.36.4.8 0 .44.146.8.325.8.179 0 .573.63.875 1.4.302.77.696 1.4.875 1.4.179 0 .325.36.325.8 0 .44.18.8.4.8.22 0 .4.36.4.8 0 .44.18.8.4.8.22 0 .4.32.4.712 0 .391.36.971.8 1.288.44.317.8.813.8 1.102 0 .549 1.923 4.551 2.353 4.898.137.11.518.74.848 1.4.329.66.914 1.549 1.299 1.975.385.427.7.972.7 1.212s.36.696.8 1.013c.44.317.8.897.8 1.288 0 .392.15.712.332.712.183 0 .587.495.898 1.1.31.605.881 1.391 1.267 1.747.387.356.703.901.703 1.212 0 .31.36.824.8 1.141.44.317.8.825.8 1.128 0 .303.54 1.055 1.2 1.672.66.617 1.2 1.337 1.2 1.6 0 .263.54.983 1.2 1.6.66.617 1.2 1.292 1.2 1.502 0 .21.426.84.946 1.402.52.561 1.368 1.622 1.884 2.358.517.736 1.403 1.788 1.97 2.338s1.467 1.621 1.999 2.38c1.261 1.796 18.625 19.16 20.421 20.421.759.532 1.83 1.432 2.38 1.999.55.567 1.63 1.47 2.4 2.007.77.536 1.813 1.385 2.318 1.884.505.5 1.108.909 1.34.909.231 0 .925.54 1.542 1.2.617.66 1.337 1.2 1.6 1.2.263 0 .983.54 1.6 1.2.617.66 1.369 1.2 1.672 1.2.303 0 .811.36 1.128.8.317.44.831.8 1.141.8.311 0 .856.316 1.212.703.356.386 1.142.957 1.747 1.267.605.311 1.1.715 1.1.898 0 .182.32.332.712.332.391 0 .971.36 1.288.8.317.44.773.8 1.013.8.24 0 .785.315 1.212.7.426.385 1.315.97 1.975 1.299.66.33 1.29.71 1.4.844.401.49 4.211 2.357 4.809 2.357.338 0 .874.36 1.191.8.317.44.897.8 1.288.8.392 0 .712.18.712.4 0 .22.36.4.8.4.44 0 .8.18.8.4 0 .22.36.4.8.4.44 0 .8.146.8.325 0 .179.63.573 1.4.875.77.302 1.4.696 1.4.875 0 .179.36.325.8.325.44 0 .8.18.8.4 0 .22.36.4.8.4.44 0 .8.18.8.4 0 .22.349.4.776.4.427 0 .888.18 1.024.4.136.22.687.4 1.224.4.537 0 .976.18.976.4 0 .22.36.4.8.4.44 0 .8.18.8.4 0 .22.36.4.8.4.44 0 .8.18.8.4 0 .22.54.4 1.2.4.66 0 1.2.18 1.2.4 0 .22.36.4.8.4.44 0 .8.18.8.4 0 .22.362.4.805.4.443 0 1.118.159 1.5.353.382.195 1.235.576 1.895.847.66.271 1.513.652 1.895.847a3.88 3.88 0 0 0 1.476.353c.43 0 .893.18 1.029.4.136.22.676.4 1.2.4.524 0 1.056.167 1.183.372.126.205 1.217.495 2.423.646 1.207.151 2.194.433 2.194.628s.529.354 1.176.354c.647 0 1.288.18 1.424.4.136.22.777.4 1.424.4.647 0 1.176.18 1.176.4 0 .22.72.4 1.6.4.88 0 1.6.18 1.6.4 0 .22.72.4 1.6.4.88 0 1.6.18 1.6.4 0 .22.72.4 1.6.4.88 0 1.6.18 1.6.4 0 .22.9.4 2 .4s2 .18 2 .4c0 .22.799.4 1.776.4s1.888.18 2.024.4c.136.22 1.216.4 2.4.4s2.264.18 2.4.4c.136.22 1.371.4 2.744.4 1.463 0 2.703.207 2.996.5.389.389 6.065.5 25.66.5s25.271-.111 25.66-.5c.293-.293 1.533-.5 2.996-.5 1.373 0 2.608-.18 2.744-.4.136-.22 1.216-.4 2.4-.4s2.264-.18 2.4-.4c.136-.22 1.047-.4 2.024-.4.977 0 1.776-.18 1.776-.4 0-.22.9-.4 2-.4s2-.18 2-.4c0-.22.72-.4 1.6-.4.88 0 1.6-.18 1.6-.4 0-.22.72-.4 1.6-.4.88 0 1.6-.18 1.6-.4 0-.22.72-.4 1.6-.4.88 0 1.6-.18 1.6-.4 0-.22.529-.4 1.176-.4.647 0 1.288-.18 1.424-.4.136-.22.777-.4 1.424-.4.647 0 1.176-.159 1.176-.354 0-.195.987-.477 2.194-.628 1.206-.151 2.297-.441 2.423-.646.127-.205.659-.372 1.183-.372s1.064-.18 1.2-.4c.136-.22.599-.4 1.029-.4a3.88 3.88 0 0 0 1.476-.353 32.261 32.261 0 0 1 1.895-.847c.66-.271 1.513-.652 1.895-.847.382-.194 1.057-.353 1.5-.353.443 0 .805-.18.805-.4 0-.22.36-.4.8-.4.44 0 .8-.18.8-.4 0-.22.54-.4 1.2-.4.66 0 1.2-.18 1.2-.4 0-.22.36-.4.8-.4.44 0 .8-.18.8-.4 0-.22.36-.4.8-.4.44 0 .8-.18.8-.4 0-.22.439-.4.976-.4.537 0 1.088-.18 1.224-.4.136-.22.597-.4 1.024-.4.427 0 .776-.18.776-.4 0-.22.36-.4.8-.4.44 0 .8-.18.8-.4 0-.22.36-.4.8-.4.44 0 .8-.146.8-.325 0-.179.63-.573 1.4-.875.77-.302 1.4-.696 1.4-.875 0-.179.36-.325.8-.325.44 0 .8-.18.8-.4 0-.22.36-.4.8-.4.44 0 .8-.18.8-.4 0-.22.32-.4.712-.4.391 0 .971-.36 1.288-.8.317-.44.853-.8 1.191-.8.598 0 4.408-1.867 4.809-2.357.11-.134.74-.514 1.4-.844.66-.329 1.549-.914 1.975-1.299.427-.385.972-.7 1.212-.7s.696-.36 1.013-.8c.317-.44.897-.8 1.288-.8.392 0 .712-.15.712-.332 0-.183.495-.587 1.1-.898.605-.31 1.391-.881 1.747-1.267.356-.387.901-.703 1.212-.703.31 0 .824-.36 1.141-.8.317-.44.825-.8 1.128-.8.303 0 1.055-.54 1.672-1.2.617-.66 1.337-1.2 1.6-1.2.263 0 .983-.54 1.6-1.2.617-.66 1.327-1.2 1.579-1.2.251 0 .885-.428 1.408-.95.522-.523 1.549-1.371 2.282-1.885.732-.514 1.781-1.398 2.331-1.965.55-.567 1.621-1.467 2.38-1.999 1.796-1.261 19.16-18.625 20.421-20.421.532-.759 1.432-1.83 1.999-2.38.567-.55 1.451-1.599 1.965-2.331.514-.733 1.362-1.76 1.885-2.282.522-.523.95-1.157.95-1.408 0-.252.54-.962 1.2-1.579.66-.617 1.2-1.337 1.2-1.6 0-.263.54-.983 1.2-1.6.66-.617 1.2-1.369 1.2-1.672 0-.303.36-.811.8-1.128.44-.317.8-.831.8-1.141 0-.311.316-.856.703-1.212.386-.356.957-1.142 1.267-1.747.311-.605.715-1.1.898-1.1.182 0 .332-.32.332-.712 0-.391.36-.971.8-1.288.44-.317.8-.773.8-1.013 0-.24.315-.785.7-1.212.385-.426.97-1.315 1.299-1.975.33-.66.71-1.29.844-1.4.49-.401 2.357-4.211 2.357-4.809 0-.338.36-.874.8-1.191.44-.317.8-.897.8-1.288 0-.392.18-.712.4-.712.22 0 .4-.36.4-.8 0-.44.18-.8.4-.8.22 0 .4-.36.4-.8 0-.44.146-.8.325-.8.179 0 .573-.63.875-1.4.302-.77.696-1.4.875-1.4.179 0 .325-.36.325-.8 0-.44.18-.8.4-.8.22 0 .4-.36.4-.8 0-.44.18-.8.4-.8.22 0 .4-.349.4-.776 0-.427.18-.888.4-1.024.22-.136.4-.687.4-1.224 0-.537.18-.976.4-.976.22 0 .4-.36.4-.8 0-.44.18-.8.4-.8.22 0 .4-.36.4-.8 0-.44.18-.8.4-.8.22 0 .4-.54.4-1.2 0-.66.18-1.2.4-1.2.22 0 .4-.36.4-.8 0-.44.18-.8.4-.8.22 0 .4-.362.4-.805 0-.443.159-1.118.353-1.5.195-.382.576-1.235.847-1.895.271-.66.652-1.513.847-1.895a3.88 3.88 0 0 0 .353-1.476c0-.43.18-.893.4-1.029.22-.136.4-.676.4-1.2 0-.524.167-1.056.372-1.183.205-.126.495-1.217.646-2.423.151-1.207.433-2.194.628-2.194s.354-.529.354-1.176c0-.647.18-1.288.4-1.424.22-.136.4-.777.4-1.424 0-.647.18-1.176.4-1.176.22 0 .4-.72.4-1.6 0-.88.18-1.6.4-1.6.22 0 .4-.72.4-1.6 0-.88.18-1.6.4-1.6.22 0 .4-.72.4-1.6 0-.88.18-1.6.4-1.6.22 0 .4-.9.4-2s.18-2 .4-2c.22 0 .4-.799.4-1.776s.18-1.888.4-2.024c.22-.136.4-1.216.4-2.4s.18-2.264.4-2.4c.22-.136.4-1.371.4-2.744 0-1.463.207-2.703.5-2.996.389-.389.5-6.065.5-25.66s-.111-25.271-.5-25.66c-.293-.293-.5-1.533-.5-2.996 0-1.373-.18-2.608-.4-2.744-.22-.136-.4-1.216-.4-2.4s-.18-2.264-.4-2.4c-.22-.136-.4-1.047-.4-2.024 0-.977-.18-1.776-.4-1.776-.22 0-.4-.9-.4-2s-.18-2-.4-2c-.22 0-.4-.72-.4-1.6 0-.88-.18-1.6-.4-1.6-.22 0-.4-.72-.4-1.6 0-.88-.18-1.6-.4-1.6-.22 0-.4-.72-.4-1.6 0-.88-.18-1.6-.4-1.6-.22 0-.4-.529-.4-1.176 0-.647-.18-1.288-.4-1.424-.22-.136-.4-.777-.4-1.424 0-.647-.159-1.176-.354-1.176-.195 0-.477-.987-.628-2.194-.151-1.206-.441-2.297-.646-2.423-.205-.127-.372-.659-.372-1.183s-.18-1.064-.4-1.2c-.22-.136-.4-.599-.4-1.029a3.88 3.88 0 0 0-.353-1.476 32.261 32.261 0 0 1-.847-1.895 32.261 32.261 0 0 0-.847-1.895c-.194-.382-.353-1.057-.353-1.5 0-.443-.18-.805-.4-.805-.22 0-.4-.36-.4-.8 0-.44-.18-.8-.4-.8-.22 0-.4-.54-.4-1.2 0-.66-.18-1.2-.4-1.2-.22 0-.4-.36-.4-.8 0-.44-.18-.8-.4-.8-.22 0-.4-.36-.4-.8 0-.44-.18-.8-.4-.8-.22 0-.4-.439-.4-.976 0-.537-.18-1.088-.4-1.224-.22-.136-.4-.597-.4-1.024 0-.427-.18-.776-.4-.776-.22 0-.4-.36-.4-.8 0-.44-.18-.8-.4-.8-.22 0-.4-.36-.4-.8 0-.44-.146-.8-.325-.8-.179 0-.573-.63-.875-1.4-.302-.77-.696-1.4-.875-1.4-.179 0-.325-.36-.325-.8 0-.44-.18-.8-.4-.8-.22 0-.4-.36-.4-.8 0-.44-.18-.8-.4-.8-.22 0-.4-.32-.4-.712 0-.391-.36-.971-.8-1.288-.44-.317-.8-.853-.8-1.191 0-.598-1.867-4.408-2.357-4.809-.134-.11-.514-.74-.844-1.4-.329-.66-.914-1.549-1.299-1.975-.385-.427-.7-.972-.7-1.212s-.36-.696-.8-1.013c-.44-.317-.8-.897-.8-1.288 0-.392-.15-.712-.332-.712-.183 0-.587-.495-.898-1.1-.31-.605-.881-1.391-1.267-1.747-.387-.356-.703-.901-.703-1.212 0-.31-.36-.824-.8-1.141-.44-.317-.8-.825-.8-1.128 0-.303-.54-1.055-1.2-1.672-.66-.617-1.2-1.337-1.2-1.6 0-.263-.54-.983-1.2-1.6-.66-.617-1.2-1.311-1.2-1.542 0-.232-.409-.835-.909-1.34-.499-.505-1.348-1.548-1.884-2.318-.537-.77-1.44-1.85-2.007-2.4-.567-.55-1.467-1.621-1.999-2.38-1.261-1.796-18.625-19.16-20.421-20.421-.759-.532-1.83-1.432-2.38-1.999-.55-.567-1.602-1.453-2.338-1.97-.736-.516-1.797-1.364-2.358-1.884-.562-.52-1.192-.946-1.402-.946-.21 0-.885-.54-1.502-1.2-.617-.66-1.337-1.2-1.6-1.2-.263 0-.983-.54-1.6-1.2-.617-.66-1.369-1.2-1.672-1.2-.303 0-.811-.36-1.128-.8-.317-.44-.831-.8-1.141-.8-.311 0-.856-.316-1.212-.703-.356-.386-1.142-.957-1.747-1.267-.605-.311-1.1-.715-1.1-.898 0-.182-.32-.332-.712-.332-.391 0-.971-.36-1.288-.8-.317-.44-.773-.8-1.013-.8-.24 0-.785-.315-1.212-.7-.426-.385-1.315-.97-1.975-1.299-.66-.33-1.29-.711-1.4-.848-.347-.43-4.349-2.353-4.898-2.353-.289 0-.785-.36-1.102-.8-.317-.44-.897-.8-1.288-.8-.392 0-.712-.18-.712-.4 0-.22-.36-.4-.8-.4-.44 0-.8-.18-.8-.4 0-.22-.36-.4-.8-.4-.44 0-.8-.146-.8-.325 0-.179-.63-.573-1.4-.875-.77-.302-1.4-.696-1.4-.875 0-.179-.36-.325-.8-.325-.44 0-.8-.18-.8-.4 0-.22-.36-.4-.8-.4-.44 0-.8-.18-.8-.4 0-.22-.349-.4-.776-.4-.427 0-.888-.18-1.024-.4-.136-.22-.687-.4-1.224-.4-.537 0-.976-.18-.976-.4 0-.22-.36-.4-.8-.4-.44 0-.8-.18-.8-.4 0-.22-.36-.4-.8-.4-.44 0-.8-.18-.8-.4 0-.22-.54-.4-1.2-.4-.66 0-1.2-.18-1.2-.4 0-.22-.36-.4-.8-.4-.44 0-.8-.18-.8-.4 0-.22-.362-.4-.805-.4-.443 0-1.118-.159-1.5-.353a32.261 32.261 0 0 0-1.895-.847 32.261 32.261 0 0 1-1.895-.847c-.382-.194-1.027-.353-1.433-.353-.406 0-.863-.125-1.016-.277-.152-.152-.663-.336-1.135-.408-.472-.072-1.057-.296-1.3-.497-.242-.202-1.381-.491-2.531-.644-1.149-.152-2.09-.434-2.09-.626 0-.191-.529-.348-1.176-.348-.647 0-1.288-.18-1.424-.4-.136-.22-.777-.4-1.424-.4-.647 0-1.176-.18-1.176-.4 0-.22-.72-.4-1.6-.4-.88 0-1.6-.18-1.6-.4 0-.22-.72-.4-1.6-.4-.88 0-1.6-.18-1.6-.4 0-.22-.72-.4-1.6-.4-.88 0-1.6-.18-1.6-.4 0-.22-.9-.4-2-.4s-2-.18-2-.4c0-.22-.799-.4-1.776-.4s-1.888-.18-2.024-.4c-.136-.22-1.216-.4-2.4-.4s-2.264-.18-2.4-.4c-.136-.22-1.371-.4-2.744-.4-1.432 0-2.704-.208-2.984-.488-.483-.483-38.474-.832-47.469-.436m-32.28 68.412c14.168 3.398 17.74 16.184 10.083 36.083-2.9 7.534-2.952 6.773.473 6.911l2.921.118-.087 1.8c-.155 3.208-2.15 8.537-3.313 8.851-3.913 1.054-32.545.14-37-1.183-19.454-5.773-12.278-45.467 9.4-52.001.77-.232 2.03-.598 2.8-.813 1.753-.491 12.408-.321 14.723.234m178.977 4.51c3.802.003 3.797-.097.226 4.723a23747.363 23747.363 0 0 1-20.729 27.879c-5.626 7.557-5.305 6.968-6.64 12.172-1.192 4.647-.295 4.117-7.352 4.344l-6.005.193v-1.326c0-.73.17-1.879.378-2.555 1.589-5.168 1.396-8.64-.782-14.028-.808-1.999-.933-2.451-2.044-7.4a53.036 53.036 0 0 1-.62-3.3l-.216-1.5 6.142.006c6.722.007 6.89.048 7.303 1.794 1.179 4.989 1.182 4.991 3.169 2.1.794-1.155 2.895-4.08 4.668-6.5 5.525-7.538 7.757-10.61 9.075-12.49.7-.998 1.833-2.448 2.517-3.221l1.244-1.405 3.283.256c1.806.14 4.678.256 6.383.258m-84.365 6.497c7.702 2.362 9.244 8.006 6.438 23.556l-.262 1.451-13.255.191c-16.092.232-16.567.356-14.819 3.86 1.392 2.792 6.999 3.855 18.676 3.544 3.692-.099 6.807-.027 6.922.159.189.306-.915 5.926-1.757 8.944l-.335 1.2-9.372.129c-17.677.244-22.863-1.106-25.76-6.708-2.389-4.62-1.284-14.684 2.705-24.621 4.099-10.212 18.21-15.572 30.819-11.705m-33.75-.313c.266.321.369.768.229.995-.14.226-.425 1.359-.633 2.517a104.078 104.078 0 0 1-.74 3.706 617.144 617.144 0 0 0-1.685 7.7c-.196.935-.536 2.51-.756 3.5a465.25 465.25 0 0 0-1.582 7.4 181.226 181.226 0 0 1-1.618 7.2 132.608 132.608 0 0 0-1.524 6.915c-.539 2.856.319 2.685-13.495 2.685-13.739 0-14.807-.152-17.951-2.55-3.247-2.476-4.273-10.013-2.458-18.05.397-1.76.899-4.01 1.115-5 .215-.99.536-2.43.712-3.2.176-.77.537-2.39.801-3.6s.644-2.92.843-3.8c.2-.88.467-2.23.593-3 .127-.77.417-1.895.646-2.5l.415-1.1h5.528c5.9 0 6.157.085 5.613 1.854-.193.63-.568 2.226-.833 3.546l-.882 4.4c-.221 1.1-.549 2.72-.73 3.6-.18.88-.512 2.59-.737 3.8-.807 4.348-1.34 7.032-1.762 8.867-1.023 4.455.547 5.885 6.821 6.216 4.776.252 5.685-.004 5.685-1.604 0-.452.179-1.375.398-2.051.219-.675 1.408-5.458 2.642-10.628 1.235-5.17 2.721-11.29 3.303-13.6l1.057-4.2 4-.223c2.2-.122 4.563-.257 5.251-.3.693-.042 1.467.183 1.734.505m80.015-.165c3.747.827 5.345 3.037 6.606 9.133.417 2.014.274 2.037-12.732 2.044-12.389.006-13.474.141-13.474 1.674 0 .461-.172 1.49-.383 2.286-.378 1.43-1.727 7.147-2.417 10.246-.196.88-.716 3.13-1.156 5-.439 1.87-1.252 5.358-1.805 7.751-1.227 5.299-.353 4.694-6.79 4.699-5.758.004-6.471-.137-6.023-1.19.155-.363.421-1.38.591-2.26.693-3.585 1.202-6.095 1.583-7.8.221-.99.598-2.79.836-4 .817-4.137 1.159-5.801 1.563-7.6.222-.99.582-2.7.801-3.8.219-1.1.56-2.72.759-3.6.198-.88.555-2.5.793-3.6 2.13-9.847.53-8.751 13.161-9.016 5.658-.119 11.637-.25 13.287-.29 1.65-.041 3.81.104 4.8.323M106.476 80.8c-.068.77-.523 3.11-1.01 5.2l-.885 3.8-6.091.11c-5.743.105-6.09.068-6.09-.645 0-.794 1.344-6.54 2.053-8.775l.416-1.311 5.865.111 5.866.11-.124 1.4m27.873-1.247c-5.649 1.189-9.621 5.392-11.386 12.047-4.15 15.656-1.697 19.583 12.237 19.588 5.412.001 6.255-.17 6.516-1.324.207-.914 4.009-14.023 4.659-16.064 2.855-8.962-3.179-16.11-12.026-14.247m91.051 10.13c-2.36.824-5.77 4.535-4.905 5.338.598.555 16.11.293 16.22-.274.73-3.789-6.151-6.869-11.315-5.064M103.32 94.2c-.092 1.835-.771 5.282-2.892 14.7l-.853 3.8c-.234 1.045-.587 2.53-.784 3.3a589.93 589.93 0 0 0-2.74 11.1c-2.178 9.372-6.728 12.895-16.651 12.894-4.752-.001-6.695-.408-6.474-1.354.291-1.246 2.26-8.738 2.492-9.485.14-.449.863-.713 2.379-.87 3.408-.352 5.829-2.315 6.762-5.485.694-2.355 1.085-3.934 1.487-6 .72-3.702 1.66-8.007 2.314-10.6a251.994 251.994 0 0 0 1.563-6.6c.571-2.559 1.654-6.439 1.916-6.863.122-.197 2.773-.309 5.891-.248l5.67.111-.08 1.6m116.886 55.809c.139.226-.104 1.531-.539 2.9-5.701 17.918 2 39.864 17.661 50.333 1.941 1.297 3.602 2.358 3.693 2.358.09 0 1.112.591 2.271 1.314 2.87 1.789 7.404 3.689 11.108 4.654.99.258 2.43.636 3.2.841 4.803 1.276 15.967.198 22.8-2.203 3.669-1.289 8.513-3.716 12-6.012 10.406-6.851.712 5.18-10.2 12.66-5.546 3.801-8.966 5.414-12.6 5.945-1.21.176-3.1.537-4.2.802-4.722 1.136-16.151.455-21.2-1.263a37.096 37.096 0 0 0-2.414-.712c-1.084-.27-5.652-2.251-7.486-3.246-20.471-11.103-29.955-34.371-22.817-55.98 2.288-6.929 7.512-14.349 8.723-12.391M177.6 160.446c0 .219-.54 1.487-1.2 2.818-4.01 8.083-5.994 19.86-4.806 28.536.272 1.98.636 4.68.809 6 .512 3.885 2.9 12.814 3.633 13.58.2.209.364.626.364.928 0 .697 4.249 9.194 6.047 12.092 6.406 10.326 16.784 20.468 27.209 26.59 5.326 3.128 5.897 3.437 8.544 4.633 1.1.497 2.35 1.078 2.779 1.293 1.211.606 8.26 3.12 9.821 3.503.77.189 2.39.603 3.6.919 10.225 2.674 27.532 2.495 33.914-.352.722-.322 1.622-.587 2-.588.377-.002 1.202-.272 1.832-.6.63-.329 1.323-.598 1.539-.598 3.271 0 16.38-8.125 22.836-14.154 3.544-3.31 1.604 2.307-3.3 9.554-2.277 3.365-9.421 10.782-12.336 12.808-5.457 3.793-10.437 6.505-15.085 8.216-1.32.485-2.76 1.03-3.2 1.21-1.353.553-5.447 1.576-8.6 2.148-1.65.3-3.81.737-4.8.972-2.259.535-22.254.543-25 .01-1.1-.214-3.35-.63-5-.924-1.65-.295-3.54-.733-4.2-.974-.66-.241-2.601-.921-4.312-1.51-1.712-.59-3.208-1.226-3.324-1.414-.116-.188-.554-.342-.973-.342-1.397 0-12.346-6.739-16.791-10.335-5.885-4.761-11.548-10.602-15.722-16.217a156.4 156.4 0 0 0-2-2.648c-2.411-3.027-9.478-16.779-9.478-18.442 0-.241-.25-1.004-.555-1.698-5.151-11.695-4.036-32.705 2.453-46.23 3.955-8.243 13.302-21.442 13.302-18.784m-51.448 19.476c.11.178-.053.763-.361 1.3a27.57 27.57 0 0 0-.84 1.578c-.155.33-.586 1.05-.959 1.6s-.776 1.45-.895 2-.407 1.54-.642 2.2c-5.824 16.421-6.262 35.916-1.204 53.6 1.863 6.513 6.626 17.013 10.574 23.314 7.812 12.466 20.807 25.614 33.175 33.567a183.8 183.8 0 0 1 3.808 2.503c.554.387 1.393.826 1.864.975.47.15 1.074.535 1.341.856.267.322.764.585 1.104.585.341 0 .904.245 1.252.545 2.355 2.031 16.818 8.069 23.431 9.782 11.087 2.873 15.439 3.592 27 4.465 12.793.966 26.82-1.196 39.048-6.016 6.642-2.618 19.192-9.566 21.823-12.081.291-.278.979-.799 1.529-1.158.55-.358 2.159-1.663 3.575-2.899 3.309-2.887 3.843-2.474 1.866 1.44-6.267 12.409-17.104 24.807-27.841 31.851-1.21.794-2.29 1.553-2.4 1.686-.11.134-.47.361-.8.506-.33.144-1.32.709-2.2 1.256-2.066 1.284-8.924 4.619-9.532 4.636-.258.007-.817.277-1.244.6-.428.323-1.058.593-1.4.601-.343.007-1.344.361-2.224.786-.88.425-2.017.779-2.526.786-.51.008-1.307.218-1.772.466-.901.483-4.296 1.335-7.902 1.984-1.21.217-3.01.583-4 .812-6.051 1.4-21.428 1.732-29.2.63-9.607-1.361-11.349-1.703-18-3.535-17.296-4.765-32.627-13.594-46.605-26.841-5.59-5.297-16.195-17.687-16.195-18.921 0-.146-.51-.922-1.134-1.723-1.54-1.979-5.135-8.274-7.229-12.658-.945-1.98-1.88-3.913-2.078-4.295-.197-.382-.359-.879-.359-1.104 0-.225-.33-1.173-.734-2.105-1.277-2.953-2.015-5.153-3.516-10.496-4.544-16.174-4.064-37.434 1.158-51.2.334-.88.838-2.23 1.121-3 .59-1.604 4.926-10.609 5.673-11.78 6.17-9.674 13.603-18.469 14.45-17.098" fill="#53c3ab"/></g></svg>