<svg xmlns="http://www.w3.org/2000/svg" width="400" height="400"><g fill-rule="evenodd"><path d="M0 28.6c0 24.389.083 28.6.566 28.6.417 0 .632-.814.819-3.1.14-1.705.684-4.27 1.21-5.7.526-1.43 1.07-3.133 1.209-3.785.359-1.676 4.964-10.822 6.66-13.227.78-1.107 1.67-2.493 1.977-3.079 1.552-2.961 13.594-15.027 15.929-15.961.347-.138 1.876-1.088 3.399-2.11 3.455-2.32 11.233-6.101 13.676-6.648 1.01-.226 2.313-.654 2.896-.951.582-.296 2.319-.659 3.859-.806 4.05-.386 5-.626 5-1.265C57.2.083 53.045 0 28.6 0H0v28.6M341.7.499c.192.577 2.435 1.039 5.3 1.091 1.1.02 2.99.399 4.2.843 1.21.444 2.856.975 3.658 1.18 1.685.43 11.715 5.267 12.688 6.118.36.315 1.263.909 2.006 1.321 2.304 1.275 2.594 1.479 5.663 4.002 1.642 1.35 4.297 3.87 5.901 5.6 1.605 1.73 3.307 3.56 3.785 4.065 1.339 1.419 3.84 4.943 4.478 6.313.316.677.838 1.45 1.159 1.716.321.267.705.971.854 1.564.149.594.4 1.172.557 1.284.513.367 4.451 8.736 4.46 9.479.005.399.377 1.535.827 2.525.45.99.981 3.216 1.179 4.946.414 3.61.686 4.654 1.212 4.654.227 0 .373-11.178.373-28.6V0h-29.233c-23.164 0-29.199.104-29.067.499M108.943 87.5c-.565 1.153-.654 231.285-.09 231.964.65.783 126.468.63 127.747-.155.44-.269 2.33-.688 4.2-.931 5.336-.691 6.168-.847 6.672-1.251.26-.209 1.52-.483 2.8-.609 1.281-.126 2.958-.539 3.728-.916.77-.378 2.024-.806 2.787-.952 1.653-.316 6.529-2.218 6.813-2.658.11-.17 1.01-.525 2-.788s2.07-.709 2.4-.991c.33-.281 1.261-.724 2.068-.983.807-.259 1.684-.732 1.949-1.05.265-.319.701-.58.97-.58s.815-.36 1.213-.8c.398-.44.941-.8 1.207-.8.266 0 1.183-.538 2.038-1.195l1.955-1.503c.22-.17.859-.603 1.421-.962.954-.612 8.779-8.276 8.779-8.599 0-.081 1.193-1.895 2.651-4.03 1.458-2.136 2.833-4.429 3.056-5.097.224-.668.614-1.484.868-1.814.589-.765 2.11-4.63 2.439-6.2.139-.66.583-2.1.988-3.2s.816-3.178.914-4.618c.098-1.44.495-3.23.882-3.978.968-1.872 1.013-17.186.057-19.282-.331-.727-.805-3.302-1.053-5.722-.248-2.42-.683-4.76-.968-5.2-.284-.44-.647-1.673-.806-2.741-.159-1.067-.635-2.507-1.057-3.2-.422-.692-.769-1.624-.77-2.07 0-.446-.303-1.242-.672-1.769-.369-.526-.866-1.511-1.105-2.189-1.506-4.268-11.949-16.839-15.172-18.264-.469-.207-1.842-1.094-3.052-1.971s-2.502-1.595-2.871-1.595c-.37-.001-.924-.253-1.232-.561-.832-.832-9.312-3.918-13.225-4.812-1.387-.317-1.221-1.05.353-1.555.646-.208 1.445-.608 1.775-.89.33-.283 1.896-1.162 3.48-1.955 1.585-.792 2.998-1.631 3.141-1.862.144-.232.594-.545 1.001-.696 1.065-.394 3.978-2.934 8.146-7.103 4.431-4.432 4.582-4.626 6.903-8.84.479-.869 1.154-1.816 1.5-2.103.346-.287.63-.815.631-1.173.002-.358.271-1.166.599-1.795.328-.629.855-2.069 1.171-3.2a59.923 59.923 0 0 1 1.193-3.737c1.977-5.375 3.005-23.874 1.489-26.807-.486-.94-1.254-5.196-1.254-6.947 0-.892-.285-1.632-.8-2.072-.505-.433-.8-1.18-.8-2.027 0-.809-.301-1.614-.758-2.028-.417-.378-.875-1.465-1.018-2.416-.142-.951-.611-2.048-1.042-2.438-.43-.389-.782-.922-.782-1.184 0-.262-.36-.802-.8-1.2-.44-.398-.8-.938-.8-1.199 0-.888-8.202-9.593-10.56-11.207a245.673 245.673 0 0 0-2.057-1.394c-.493-.33-1.695-1.158-2.67-1.839-.975-.681-2.221-1.352-2.769-1.489-.548-.138-1.417-.615-1.931-1.061-.515-.446-1.33-.811-1.812-.811s-1.187-.342-1.565-.76c-.379-.419-1.352-.88-2.162-1.026-.811-.146-2.194-.585-3.074-.975-2.336-1.036-5.728-1.917-11.4-2.961-1.43-.263-2.817-.619-3.083-.791-1.961-1.271-130.156-1.65-130.774-.387M222.2 120.742c4.015.202 5.979.473 6.94.959.737.373 1.997.797 2.8.943.803.145 2.128.6 2.944 1.01.816.41 1.747.746 2.069.746.322 0 1.12.45 1.774 1 .654.55 1.359 1 1.567 1 .836 0 6.904 7.082 6.908 8.063.002.295.298 1.077.658 1.737.603 1.104.957 2.498 2.185 8.6.728 3.619.664 11.842-.113 14.4-.368 1.21-.85 2.92-1.072 3.8-.668 2.649-1.84 5.591-2.674 6.71-.432.581-1.236 1.708-1.786 2.505-1.665 2.413-6.27 6.307-8.73 7.382-.512.223-1.178.654-1.48.956-.303.303-1.235.678-2.07.833-.836.155-1.846.575-2.245.933-.399.358-2.109.87-3.8 1.139-1.691.268-3.795.675-4.675.905-1.724.45-70.015.636-71.167.194-1.026-.394-.96-63.127.067-63.725.806-.47 62.813-.548 71.9-.09m9.2 94.173c2.42.332 4.94.891 5.6 1.242.66.351 1.56.639 2 .641 1.066.004 5.457 2.102 6.149 2.939.302.364.807.663 1.123.663 1.399 0 9.728 8.055 9.728 9.407 0 .267.345.924.767 1.46.422.537.892 1.643 1.045 2.458.153.815.591 1.885.974 2.378.413.534.807 2.015.972 3.655.152 1.517.457 3.097.679 3.51.556 1.04.198 12.008-.547 16.751-.543 3.456-3.455 10.691-4.661 11.581-.149.11-.663.845-1.141 1.633-1.167 1.921-7.396 7.566-8.351 7.567-.185.001-.86.451-1.499 1-.639.55-1.449 1.001-1.8 1.001-.351.001-1.193.34-1.871.754-.679.414-1.99.88-2.914 1.036-.924.156-2.253.57-2.954.919-.7.349-2.989.774-5.086.943-5.609.453-79.517.427-79.798-.028-.488-.79-.229-71.326.264-71.92.707-.852 74.847-.478 81.321.41M399 343.601c-.14.44-.402 2.195-.583 3.9-.181 1.704-.704 3.909-1.164 4.899-.459.99-.839 2.119-.844 2.508-.005.39-.706 2.19-1.558 4-.851 1.811-1.684 3.742-1.849 4.292-.166.55-.639 1.322-1.052 1.716-.412.393-.753.933-.756 1.2-.003.266-.638 1.384-1.41 2.484a265.11 265.11 0 0 0-3.003 4.4c-3.684 5.531-14.16 14.835-20.118 17.867-.721.367-1.547.952-1.836 1.3-.289.348-.758.633-1.043.633-.286 0-2.229.81-4.32 1.8-2.09.99-4.09 1.8-4.444 1.8-.354 0-1.713.45-3.02 1s-2.986 1-3.732 1c-2.68 0-5.068.497-5.068 1.054 0 .456 4.68.546 28.4.546H400v-28.6c0-26.527-.143-30.5-1-27.799M0 371.6V400h28.6c19.38 0 28.6-.133 28.6-.413 0-.58-.559-.729-4.261-1.133-1.794-.196-3.837-.644-4.54-.995-.704-.351-1.936-.76-2.739-.91-.803-.149-3.08-1.053-5.06-2.008-1.98-.955-3.906-1.738-4.28-1.739-.374-.001-.824-.248-1-.548-.176-.3-.86-.842-1.52-1.205-1.803-.991-2.608-1.507-4.8-3.082-1.1-.79-2.45-1.675-3-1.966-2.067-1.095-13.6-13.131-13.6-14.193 0-.132-.334-.728-.741-1.324-2.375-3.472-4.411-6.804-4.653-7.613-.153-.511-.982-2.354-1.842-4.096-.86-1.742-1.564-3.538-1.564-3.993 0-.454-.354-1.602-.786-2.55-.432-.949-1.004-3.369-1.272-5.378C1.208 344.34.891 343.2.528 343.2c-.432 0-.528 5.144-.528 28.4" fill="#fafafb"/><path d="M57.2.568c0 .639-.95.879-5 1.265-1.54.147-3.277.51-3.859.806-.583.297-1.886.725-2.896.951-2.443.547-10.221 4.328-13.676 6.648-1.523 1.022-3.052 1.972-3.399 2.11-2.335.934-14.377 13-15.929 15.961-.307.586-1.197 1.972-1.977 3.079-1.696 2.405-6.301 11.551-6.66 13.227-.139.652-.683 2.355-1.209 3.785-.526 1.43-1.07 3.995-1.21 5.7-.187 2.286-.402 3.1-.819 3.1C.079 57.2 0 77.189 0 200.2c0 118.174.092 143 .528 143 .363 0 .68 1.14 1.014 3.654.268 2.009.84 4.429 1.272 5.378.432.948.786 2.096.786 2.55 0 .455.704 2.251 1.564 3.993.86 1.742 1.689 3.585 1.842 4.096.242.809 2.278 4.141 4.653 7.613.407.596.741 1.192.741 1.324 0 1.062 11.533 13.098 13.6 14.193.55.291 1.9 1.176 3 1.966 2.192 1.575 2.997 2.091 4.8 3.082.66.363 1.344.905 1.52 1.205.176.3.626.547 1 .548.374.001 2.3.784 4.28 1.739 1.98.955 4.257 1.859 5.06 2.008.803.15 2.037.56 2.744.913.706.352 2.84.807 4.74 1.01 2.175.233 3.621.585 3.9.949.65.847 286.156.88 286.156.033 0-.557 2.388-1.054 5.068-1.054.746 0 2.425-.45 3.732-1 1.307-.55 2.666-1 3.02-1 .354 0 2.354-.81 4.444-1.8 2.091-.99 4.034-1.8 4.32-1.8.285 0 .754-.285 1.043-.633.289-.348 1.115-.933 1.836-1.3 5.958-3.032 16.434-12.336 20.118-17.867.879-1.32 2.231-3.3 3.003-4.4.772-1.1 1.407-2.218 1.41-2.484.003-.267.344-.807.756-1.2.413-.394.886-1.166 1.052-1.716.165-.55.998-2.481 1.849-4.292.852-1.81 1.549-3.571 1.549-3.912 0-.341.45-1.689 1-2.996s1.004-3.146 1.01-4.088c.012-2.202.628-4.858 1.169-5.038.549-.183.597-285.674.048-285.674-.526 0-.798-1.044-1.212-4.654-.198-1.73-.729-3.956-1.179-4.946-.45-.99-.822-2.126-.827-2.525-.009-.743-3.947-9.112-4.46-9.479-.157-.112-.408-.69-.557-1.284-.149-.593-.533-1.297-.854-1.564-.321-.266-.843-1.039-1.159-1.716-.638-1.37-3.139-4.894-4.478-6.313-.478-.505-2.18-2.335-3.785-4.065-1.604-1.73-4.259-4.25-5.901-5.6-3.069-2.523-3.359-2.727-5.663-4.002-.743-.412-1.646-1.006-2.006-1.321-.908-.794-10.951-5.675-12.269-5.962-.592-.13-1.958-.597-3.036-1.039-1.12-.459-3.689-.963-6-1.177-2.739-.253-4.184-.564-4.485-.963C341.096-.287 57.2-.308 57.2.568m170.717 86.627c6.224.208 11.534.519 11.8.692.266.172 1.653.528 3.083.791 5.672 1.044 9.064 1.925 11.4 2.961.88.39 2.263.829 3.074.975.81.146 1.783.607 2.162 1.026.378.418 1.083.76 1.565.76s1.297.365 1.812.811c.514.446 1.383.923 1.931 1.061.548.137 1.794.808 2.769 1.489.975.681 2.177 1.509 2.67 1.839.494.33 1.42.957 2.057 1.394 2.358 1.614 10.56 10.319 10.56 11.207 0 .261.36.801.8 1.199.44.398.8.938.8 1.2s.352.795.782 1.184c.431.39.9 1.487 1.042 2.438.143.951.601 2.038 1.018 2.416.457.414.758 1.219.758 2.028 0 .847.295 1.594.8 2.027.515.44.8 1.18.8 2.072 0 1.751.768 6.007 1.254 6.947 1.516 2.933.488 21.432-1.489 26.807-.34.925-.877 2.606-1.193 3.737-.316 1.131-.843 2.571-1.171 3.2-.328.629-.597 1.437-.599 1.795-.001.358-.285.886-.631 1.173-.346.287-1.021 1.234-1.5 2.103-2.321 4.214-2.472 4.408-6.903 8.84-4.168 4.169-7.081 6.709-8.146 7.103-.407.151-.857.464-1.001.696-.143.231-1.556 1.07-3.141 1.862-1.584.793-3.15 1.672-3.48 1.955-.33.282-1.129.682-1.775.89-1.574.505-1.74 1.238-.353 1.555 3.913.894 12.393 3.98 13.225 4.812.308.308.862.56 1.232.561.369 0 1.661.718 2.871 1.595s2.583 1.764 3.052 1.971c3.223 1.425 13.666 13.996 15.172 18.264.239.678.736 1.663 1.105 2.189.369.527.672 1.323.672 1.769.001.446.348 1.378.77 2.07.422.693.898 2.133 1.057 3.2.159 1.068.522 2.301.806 2.741.285.44.72 2.78.968 5.2.248 2.42.722 4.995 1.053 5.722.956 2.096.911 17.41-.057 19.282-.387.748-.784 2.538-.882 3.978-.098 1.44-.509 3.518-.914 4.618-.405 1.1-.849 2.54-.988 3.2-.329 1.57-1.85 5.435-2.439 6.2-.254.33-.644 1.146-.868 1.814-.223.668-1.598 2.961-3.056 5.097-1.458 2.135-2.651 3.949-2.651 4.03 0 .323-7.825 7.987-8.779 8.599-.562.359-1.201.792-1.421.962l-1.955 1.503c-.855.657-1.772 1.195-2.038 1.195-.266 0-.809.36-1.207.8-.398.44-.944.8-1.213.8-.269 0-.705.261-.97.58-.265.318-1.142.791-1.949 1.05-.807.259-1.738.702-2.068.983-.33.282-1.41.728-2.4.991s-1.89.618-2 .788c-.284.44-5.16 2.342-6.813 2.658-.763.146-2.017.574-2.787.952-.77.377-2.447.79-3.728.916-1.28.126-2.54.4-2.8.609-.504.404-1.336.56-6.672 1.251-1.87.243-3.76.662-4.2.931-1.279.785-127.097.938-127.747.155-.564-.679-.475-230.811.09-231.964.396-.809 96.5-1.055 118.974-.305M150.3 120.832c-1.027.598-1.093 63.331-.067 63.725 1.152.442 69.443.256 71.167-.194.88-.23 2.984-.637 4.675-.905 1.691-.269 3.401-.781 3.8-1.139s1.409-.778 2.245-.933c.835-.155 1.767-.53 2.07-.833.302-.302.968-.733 1.48-.956 2.46-1.075 7.065-4.969 8.73-7.382.55-.797 1.354-1.924 1.786-2.505.834-1.119 2.006-4.061 2.674-6.71.222-.88.704-2.59 1.072-3.8.777-2.558.841-10.781.113-14.4-1.228-6.102-1.582-7.496-2.185-8.6-.36-.66-.656-1.442-.658-1.737-.004-.981-6.072-8.063-6.908-8.063-.208 0-.913-.45-1.567-1-.654-.55-1.452-1-1.774-1-.322 0-1.253-.336-2.069-.746-.816-.41-2.141-.865-2.944-1.01-.803-.146-2.063-.57-2.8-.943-2.407-1.217-76.834-2.038-78.84-.869m-.221 93.673c-.493.594-.752 71.13-.264 71.92.281.455 74.189.481 79.798.028 2.097-.169 4.386-.594 5.086-.943.701-.349 2.03-.763 2.954-.919.924-.156 2.235-.622 2.914-1.036.678-.414 1.52-.753 1.871-.754.351 0 1.161-.451 1.8-1.001.639-.549 1.314-.999 1.499-1 .955-.001 7.184-5.646 8.351-7.567.478-.788.992-1.523 1.141-1.633 1.206-.89 4.118-8.125 4.661-11.581.745-4.743 1.103-15.711.547-16.751-.222-.413-.527-1.993-.679-3.51-.165-1.64-.559-3.121-.972-3.655-.383-.493-.821-1.563-.974-2.378-.153-.815-.623-1.921-1.045-2.458-.422-.536-.767-1.193-.767-1.46 0-1.352-8.329-9.407-9.728-9.407-.316 0-.821-.299-1.123-.663-.692-.837-5.083-2.935-6.149-2.939-.44-.002-1.34-.29-2-.641-3.444-1.831-85.479-3.39-86.921-1.652" fill="#533b7b"/></g></svg>