<!--?xml version="1.0" encoding="utf-8"?-->
<!-- Generator: Adobe Illustrator 18.1.1, SVG Export Plug-In . SVG Version: 6.00 Build 0)  -->

<svg version="1.1" id="_x31_0" xmlns="http://www.w3.org/2000/svg" xmlns:xlink="http://www.w3.org/1999/xlink" x="0px" y="0px" viewBox="0 0 512 512" style="width: 256px; height: 256px; opacity: 1;" xml:space="preserve">
<style type="text/css">
	.st0{fill:#374149;}
</style>
<g>
	<path class="st0" d="M216.328,171.711c-13.305,0-24.125,10.824-24.125,24.129c0,13.305,10.82,24.129,24.125,24.129
		c13.305,0,24.129-10.824,24.129-24.129C240.457,182.535,229.633,171.711,216.328,171.711z"></path>
	<path class="st0" d="M330.168,219.969c13.305,0,24.129-10.824,24.129-24.129c0-13.305-10.824-24.129-24.129-24.129
		c-13.301,0-24.125,10.824-24.125,24.129C306.043,209.145,316.867,219.969,330.168,219.969z"></path>
	<path class="st0" d="M256,0C114.617,0,0,114.614,0,256c0,141.383,114.617,256,256,256c141.386,0,256-114.617,256-256
		C512,114.614,397.386,0,256,0z M263.953,155.558c1.805,2.137,3.477,4.394,4.989,6.762c1.586,2.516,3.008,5.157,4.234,7.922
		c0.007-0.02,0.019-0.035,0.027-0.055c0.015,0.031,0.031,0.055,0.047,0.086c9.773-21.719,31.554-36.871,56.918-36.871
		c34.484,0,62.438,27.957,62.438,62.438c0,34.48-27.954,62.434-62.438,62.434c-25.363,0-47.145-15.149-56.918-36.867
		c-9.774,21.718-31.559,36.867-56.922,36.867c-34.48,0-62.434-27.954-62.434-62.434c0-34.481,27.954-62.438,62.434-62.438
		c19.02,0,36.027,8.523,47.469,21.946C263.851,155.414,263.898,155.492,263.953,155.558z M112.054,351.539
		c-0.414-0.57-0.656-1.27-0.656-2.086v-76.789c0-0.816,0.242-1.515,0.656-2.086c0.008-0.016,0.024-0.028,0.031-0.043
		c1.274-1.707,4.133-2.222,6.95-0.957l49.641,22.336c0.941,0.453,1.602,1.538,1.602,2.582v33.106c0,1.039-0.661,2.125-1.602,2.578
		l-49.641,22.359c-2.817,1.266-5.676,0.75-6.95-0.957C112.078,351.566,112.066,351.554,112.054,351.539z M184.543,369.008v-89.535
		c0-5.27,4.312-9.586,9.582-9.586h158.246c5.274,0,9.586,4.317,9.586,9.586v89.535c0,5.274-4.312,9.586-9.586,9.586H194.125
		C188.855,378.594,184.543,374.282,184.543,369.008z"></path>
</g>
</svg>
