<svg id="svg" version="1.1" xmlns="http://www.w3.org/2000/svg" xmlns:xlink="http://www.w3.org/1999/xlink" width="400" height="400" viewBox="0, 0, 400,400"><g id="svgg"><path id="path0" d="M131.200 68.454 C 127.874 69.384,126.868 69.755,124.605 70.887 C 118.264 74.057,113.173 80.454,110.438 88.684 C 104.699 105.960,107.852 117.960,119.000 121.268 C 123.455 122.591,152.087 123.505,156.000 122.451 C 157.163 122.137,159.158 116.808,159.313 113.600 L 159.400 111.800 156.479 111.682 C 153.054 111.544,153.106 112.305,156.006 104.771 C 162.846 86.996,161.055 75.728,150.566 70.544 C 146.096 68.335,135.653 67.208,131.200 68.454 M313.990 74.089 C 313.306 74.862,312.173 76.312,311.473 77.310 C 310.155 79.190,307.923 82.262,302.398 89.800 C 300.625 92.220,298.524 95.145,297.730 96.300 C 295.743 99.191,295.740 99.189,294.561 94.200 C 294.148 92.454,293.980 92.413,287.258 92.406 L 281.116 92.400 281.332 93.900 C 281.451 94.725,281.730 96.210,281.952 97.200 C 283.063 102.149,283.188 102.601,283.996 104.600 C 286.174 109.988,286.367 113.460,284.778 118.628 C 284.570 119.304,284.400 120.453,284.400 121.183 L 284.400 122.509 290.405 122.316 C 297.462 122.089,296.565 122.619,297.757 117.972 C 299.092 112.768,298.771 113.357,304.397 105.800 C 312.631 94.740,322.045 82.078,325.126 77.921 C 328.697 73.101,328.702 73.201,324.900 73.198 C 323.195 73.196,320.323 73.080,318.517 72.940 L 315.234 72.684 313.990 74.089 M228.800 78.656 C 215.614 79.755,208.703 87.667,206.162 104.573 C 203.901 119.609,208.956 123.058,232.771 122.729 L 242.143 122.600 242.478 121.400 C 243.320 118.382,244.424 112.762,244.235 112.456 C 244.120 112.270,241.005 112.198,237.313 112.297 C 225.636 112.608,220.029 111.545,218.637 108.753 C 216.889 105.249,217.364 105.125,233.456 104.893 L 246.711 104.702 246.973 103.251 C 250.563 83.355,246.030 77.220,228.800 78.656 M199.800 79.177 L 195.800 79.400 194.743 83.600 C 194.161 85.910,192.675 92.030,191.440 97.200 C 190.206 102.370,189.017 107.153,188.798 107.828 C 188.579 108.504,188.400 109.427,188.400 109.879 C 188.400 111.479,187.491 111.735,182.715 111.483 C 176.441 111.152,174.871 109.722,175.894 105.267 C 176.316 103.432,176.849 100.748,177.656 96.400 C 177.881 95.190,178.213 93.480,178.393 92.600 C 178.574 91.720,178.902 90.100,179.123 89.000 C 179.343 87.900,179.740 85.920,180.005 84.600 C 180.270 83.280,180.645 81.684,180.838 81.054 C 181.382 79.285,181.125 79.200,175.225 79.200 L 169.697 79.200 169.282 80.300 C 169.053 80.905,168.763 82.030,168.636 82.800 C 168.510 83.570,168.243 84.920,168.043 85.800 C 167.844 86.680,167.464 88.390,167.200 89.600 C 166.936 90.810,166.575 92.430,166.399 93.200 C 166.223 93.970,165.902 95.410,165.687 96.400 C 165.471 97.390,164.969 99.640,164.572 101.400 C 162.757 109.437,163.783 116.974,167.030 119.450 C 170.174 121.848,171.242 122.000,184.981 122.000 C 198.795 122.000,197.937 122.171,198.476 119.315 C 198.862 117.273,199.392 114.865,200.000 112.400 C 200.580 110.047,201.061 107.907,201.618 105.200 C 202.150 102.612,202.647 100.290,203.200 97.800 C 203.420 96.810,203.760 95.235,203.956 94.300 C 204.338 92.476,205.057 89.191,205.641 86.600 C 205.840 85.720,206.173 84.052,206.381 82.894 C 206.589 81.736,206.874 80.603,207.014 80.377 C 207.463 79.651,206.345 78.797,205.051 78.877 C 204.363 78.920,202.000 79.055,199.800 79.177 M268.713 79.184 C 256.846 79.433,257.503 79.204,256.589 83.418 C 256.256 84.948,255.790 87.100,255.552 88.200 C 255.314 89.300,254.957 90.920,254.759 91.800 C 254.560 92.680,254.219 94.300,254.000 95.400 C 253.781 96.500,253.421 98.210,253.199 99.200 C 252.795 100.999,252.453 102.663,251.636 106.800 C 251.398 108.010,251.021 109.810,250.800 110.800 C 250.419 112.505,249.910 115.015,249.217 118.600 C 249.047 119.480,248.781 120.497,248.626 120.860 C 248.178 121.913,248.891 122.054,254.649 122.050 C 261.086 122.045,260.212 122.650,261.439 117.351 C 261.992 114.958,262.805 111.470,263.244 109.600 C 263.684 107.730,264.204 105.480,264.400 104.600 C 265.090 101.501,266.439 95.784,266.817 94.354 C 267.028 93.558,267.200 92.529,267.200 92.068 C 267.200 90.535,268.285 90.400,280.674 90.394 C 293.680 90.387,293.823 90.364,293.406 88.350 C 291.800 80.584,289.537 78.708,282.000 78.894 C 280.350 78.934,274.371 79.065,268.713 79.184 M94.453 80.490 C 93.744 82.725,92.400 88.471,92.400 89.265 C 92.400 89.978,92.747 90.015,98.490 89.910 L 104.581 89.800 105.466 86.000 C 105.953 83.910,106.408 81.570,106.476 80.800 L 106.600 79.400 100.734 79.290 L 94.869 79.179 94.453 80.490 M141.952 80.183 C 146.316 82.476,148.167 88.174,146.375 93.800 C 145.725 95.841,141.923 108.950,141.716 109.864 C 141.212 112.092,127.314 111.560,123.978 109.185 C 120.236 106.520,120.415 96.437,124.361 87.570 C 127.224 81.137,136.417 77.277,141.952 80.183 M233.556 89.901 C 234.993 90.642,236.932 93.617,236.715 94.747 C 236.605 95.314,221.093 95.576,220.495 95.021 C 220.118 94.671,221.817 91.879,222.895 91.075 C 225.541 89.102,230.870 88.515,233.556 89.901 M91.839 92.737 C 91.577 93.161,90.494 97.041,89.923 99.600 C 89.413 101.885,88.874 104.162,88.360 106.200 C 87.706 108.793,86.766 113.098,86.046 116.800 C 85.644 118.866,85.253 120.445,84.559 122.800 C 83.626 125.970,81.205 127.933,77.797 128.285 C 76.281 128.442,75.558 128.706,75.418 129.155 C 75.186 129.902,73.217 137.394,72.926 138.640 C 72.705 139.586,74.648 139.993,79.400 139.994 C 89.323 139.995,93.873 136.472,96.051 127.100 C 96.661 124.477,97.762 120.015,98.791 116.000 C 98.988 115.230,99.341 113.745,99.575 112.700 C 99.809 111.655,100.193 109.945,100.428 108.900 C 102.549 99.482,103.228 96.035,103.320 94.200 L 103.400 92.600 97.730 92.489 C 94.612 92.428,91.961 92.540,91.839 92.737 M217.487 151.374 C 202.713 169.048,207.854 199.367,228.157 214.300 C 232.617 217.581,233.220 217.940,237.786 220.041 C 239.319 220.746,241.119 221.460,241.786 221.626 C 242.454 221.793,243.540 222.114,244.200 222.338 C 249.249 224.056,260.678 224.737,265.400 223.601 C 266.500 223.336,268.390 222.975,269.600 222.799 C 275.495 221.938,284.895 215.987,292.324 208.410 C 298.146 202.472,298.184 200.386,292.400 204.194 C 289.841 205.880,287.408 207.185,283.400 209.023 C 276.419 212.225,263.358 213.939,257.600 212.409 C 256.830 212.204,255.390 211.826,254.400 211.568 C 250.696 210.603,246.162 208.703,243.292 206.914 C 242.133 206.191,241.111 205.600,241.021 205.600 C 240.930 205.600,239.269 204.539,237.328 203.242 C 221.667 192.773,213.966 170.827,219.667 152.909 C 220.875 149.112,219.932 148.448,217.487 151.374 M175.283 161.945 C 162.967 178.116,158.504 189.834,158.656 205.600 C 158.725 212.789,160.137 221.582,161.845 225.460 C 162.150 226.154,162.400 226.917,162.400 227.158 C 162.400 228.821,169.467 242.573,171.878 245.600 C 172.141 245.930,173.041 247.121,173.878 248.248 C 178.052 253.863,183.715 259.704,189.600 264.465 C 194.045 268.061,204.994 274.800,206.391 274.800 C 206.810 274.800,207.248 274.954,207.364 275.142 C 207.480 275.330,208.976 275.966,210.688 276.556 C 212.399 277.145,214.340 277.825,215.000 278.066 C 215.660 278.307,217.550 278.745,219.200 279.040 C 220.850 279.334,223.100 279.750,224.200 279.964 C 226.946 280.497,246.941 280.489,249.200 279.954 C 250.190 279.719,252.350 279.282,254.000 278.982 C 257.153 278.410,261.247 277.387,262.600 276.834 C 263.040 276.654,264.480 276.109,265.800 275.624 C 270.448 273.913,275.428 271.201,280.885 267.408 C 283.800 265.382,290.944 257.965,293.221 254.600 C 298.125 247.353,300.065 241.736,296.521 245.046 C 290.065 251.075,276.956 259.200,273.685 259.200 C 273.469 259.200,272.776 259.469,272.146 259.798 C 271.516 260.126,270.691 260.396,270.314 260.398 C 269.936 260.399,269.036 260.664,268.314 260.986 C 261.932 263.833,244.625 264.012,234.400 261.338 C 233.190 261.022,231.570 260.608,230.800 260.419 C 229.239 260.036,222.190 257.522,220.979 256.916 C 220.550 256.701,219.300 256.120,218.200 255.623 C 215.553 254.427,214.982 254.118,209.656 250.990 C 199.231 244.868,188.853 234.726,182.447 224.400 C 180.649 221.502,176.400 213.005,176.400 212.308 C 176.400 212.006,176.236 211.589,176.036 211.380 C 175.303 210.614,172.915 201.685,172.403 197.800 C 172.230 196.480,171.866 193.780,171.594 191.800 C 170.406 183.124,172.390 171.347,176.400 163.264 C 178.378 159.277,177.818 158.617,175.283 161.945 M123.034 182.033 C 119.121 186.259,115.570 190.955,111.702 197.020 C 110.955 198.191,106.619 207.196,106.029 208.800 C 105.746 209.570,105.242 210.920,104.908 211.800 C 99.686 225.566,99.206 246.826,103.750 263.000 C 105.251 268.343,105.989 270.543,107.266 273.496 C 107.670 274.428,108.000 275.376,108.000 275.601 C 108.000 275.826,108.162 276.323,108.359 276.705 C 108.557 277.087,109.492 279.020,110.437 281.000 C 112.531 285.384,116.126 291.679,117.666 293.658 C 118.290 294.459,118.800 295.235,118.800 295.381 C 118.800 296.615,129.405 309.005,134.995 314.302 C 148.973 327.549,164.304 336.378,181.600 341.143 C 188.251 342.975,189.993 343.317,199.600 344.678 C 207.372 345.780,222.749 345.448,228.800 344.048 C 229.790 343.819,231.590 343.453,232.800 343.236 C 236.406 342.587,239.801 341.735,240.702 341.252 C 241.167 341.004,241.964 340.794,242.474 340.786 C 242.983 340.779,244.120 340.425,245.000 340.000 C 245.880 339.575,246.881 339.221,247.224 339.214 C 247.566 339.206,248.196 338.936,248.624 338.613 C 249.051 338.290,249.610 338.020,249.868 338.013 C 250.476 337.996,257.334 334.661,259.400 333.377 C 260.280 332.830,261.270 332.265,261.600 332.121 C 261.930 331.976,262.290 331.749,262.400 331.615 C 262.510 331.482,263.590 330.723,264.800 329.929 C 275.537 322.885,286.374 310.487,292.641 298.078 C 294.618 294.164,294.084 293.751,290.775 296.638 C 289.359 297.874,287.750 299.179,287.200 299.537 C 286.650 299.896,285.962 300.417,285.671 300.695 C 283.040 303.210,270.490 310.158,263.848 312.776 C 251.620 317.596,237.593 319.758,224.800 318.792 C 213.239 317.919,208.887 317.200,197.800 314.327 C 191.187 312.614,176.724 306.576,174.369 304.545 C 174.021 304.245,173.458 304.000,173.117 304.000 C 172.777 304.000,172.280 303.737,172.013 303.415 C 171.746 303.094,171.142 302.709,170.672 302.559 C 170.201 302.410,169.362 301.971,168.808 301.584 C 168.253 301.198,166.540 300.071,165.000 299.081 C 152.632 291.128,139.637 277.980,131.825 265.514 C 127.877 259.213,123.114 248.713,121.251 242.200 C 116.193 224.516,116.631 205.021,122.455 188.600 C 122.690 187.940,122.978 186.950,123.097 186.400 C 123.216 185.850,123.619 184.950,123.992 184.400 C 124.365 183.850,124.796 183.130,124.951 182.800 C 125.105 182.470,125.483 181.760,125.791 181.222 C 126.343 180.259,126.273 179.600,125.619 179.600 C 125.436 179.600,124.273 180.695,123.034 182.033 " stroke="none" fill="#d8efea" fill-rule="evenodd"></path><path id="path1" d="M178.203 0.276 C 176.225 0.363,174.434 0.606,174.223 0.817 C 174.012 1.028,172.717 1.200,171.344 1.200 C 169.971 1.200,168.736 1.380,168.600 1.600 C 168.464 1.820,167.384 2.000,166.200 2.000 C 165.016 2.000,163.936 2.180,163.800 2.400 C 163.664 2.620,162.753 2.800,161.776 2.800 C 160.799 2.800,160.000 2.980,160.000 3.200 C 160.000 3.420,159.100 3.600,158.000 3.600 C 156.900 3.600,156.000 3.780,156.000 4.000 C 156.000 4.220,155.280 4.400,154.400 4.400 C 153.520 4.400,152.800 4.580,152.800 4.800 C 152.800 5.020,152.080 5.200,151.200 5.200 C 150.320 5.200,149.600 5.380,149.600 5.600 C 149.600 5.820,148.880 6.000,148.000 6.000 C 147.120 6.000,146.400 6.180,146.400 6.400 C 146.400 6.620,145.871 6.800,145.224 6.800 C 144.577 6.800,143.936 6.980,143.800 7.200 C 143.664 7.420,143.023 7.600,142.376 7.600 C 141.729 7.600,141.200 7.757,141.200 7.948 C 141.200 8.140,140.259 8.422,139.110 8.574 C 137.960 8.727,136.821 9.016,136.579 9.218 C 136.336 9.419,135.751 9.643,135.279 9.715 C 134.807 9.787,134.296 9.971,134.144 10.123 C 133.991 10.275,133.534 10.400,133.128 10.400 C 132.722 10.400,132.077 10.559,131.695 10.753 C 131.313 10.948,130.460 11.329,129.800 11.600 C 129.140 11.871,128.287 12.252,127.905 12.447 C 127.523 12.641,126.848 12.800,126.405 12.800 C 125.962 12.800,125.600 12.980,125.600 13.200 C 125.600 13.420,125.240 13.600,124.800 13.600 C 124.360 13.600,124.000 13.780,124.000 14.000 C 124.000 14.220,123.460 14.400,122.800 14.400 C 122.140 14.400,121.600 14.580,121.600 14.800 C 121.600 15.020,121.240 15.200,120.800 15.200 C 120.360 15.200,120.000 15.380,120.000 15.600 C 120.000 15.820,119.640 16.000,119.200 16.000 C 118.760 16.000,118.400 16.180,118.400 16.400 C 118.400 16.620,117.961 16.800,117.424 16.800 C 116.887 16.800,116.336 16.980,116.200 17.200 C 116.064 17.420,115.603 17.600,115.176 17.600 C 114.749 17.600,114.400 17.780,114.400 18.000 C 114.400 18.220,114.040 18.400,113.600 18.400 C 113.160 18.400,112.800 18.580,112.800 18.800 C 112.800 19.020,112.440 19.200,112.000 19.200 C 111.560 19.200,111.200 19.346,111.200 19.525 C 111.200 19.704,110.570 20.098,109.800 20.400 C 109.030 20.702,108.400 21.096,108.400 21.275 C 108.400 21.454,108.040 21.600,107.600 21.600 C 107.160 21.600,106.800 21.780,106.800 22.000 C 106.800 22.220,106.440 22.400,106.000 22.400 C 105.560 22.400,105.200 22.580,105.200 22.800 C 105.200 23.020,104.880 23.200,104.488 23.200 C 104.097 23.200,103.517 23.560,103.200 24.000 C 102.883 24.440,102.387 24.800,102.098 24.800 C 101.549 24.800,97.547 26.723,97.200 27.153 C 97.090 27.290,96.460 27.671,95.800 28.001 C 95.140 28.330,94.251 28.915,93.825 29.300 C 93.398 29.685,92.853 30.000,92.613 30.000 C 92.373 30.000,91.917 30.360,91.600 30.800 C 91.283 31.240,90.703 31.600,90.312 31.600 C 89.920 31.600,89.600 31.750,89.600 31.932 C 89.600 32.115,89.105 32.519,88.500 32.830 C 87.895 33.140,87.109 33.711,86.753 34.097 C 86.397 34.484,85.852 34.800,85.541 34.800 C 85.231 34.800,84.717 35.160,84.400 35.600 C 84.083 36.040,83.575 36.400,83.272 36.400 C 82.969 36.400,82.217 36.940,81.600 37.600 C 80.983 38.260,80.263 38.800,80.000 38.800 C 79.737 38.800,79.017 39.340,78.400 40.000 C 77.783 40.660,77.124 41.200,76.935 41.200 C 76.746 41.200,76.144 41.610,75.596 42.111 C 75.048 42.613,73.970 43.461,73.200 43.996 C 72.430 44.531,71.350 45.433,70.800 46.000 C 70.250 46.567,69.179 47.467,68.420 47.999 C 66.624 49.260,49.260 66.624,47.999 68.420 C 47.467 69.179,46.567 70.250,46.000 70.800 C 45.433 71.350,44.531 72.430,43.996 73.200 C 43.461 73.970,42.613 75.048,42.111 75.596 C 41.610 76.144,41.200 76.746,41.200 76.935 C 41.200 77.124,40.660 77.783,40.000 78.400 C 39.340 79.017,38.800 79.737,38.800 80.000 C 38.800 80.263,38.260 80.983,37.600 81.600 C 36.940 82.217,36.400 82.969,36.400 83.272 C 36.400 83.575,36.040 84.083,35.600 84.400 C 35.160 84.717,34.800 85.231,34.800 85.541 C 34.800 85.852,34.484 86.397,34.097 86.753 C 33.711 87.109,33.140 87.895,32.830 88.500 C 32.519 89.105,32.115 89.600,31.932 89.600 C 31.750 89.600,31.600 89.920,31.600 90.312 C 31.600 90.703,31.240 91.283,30.800 91.600 C 30.360 91.917,30.000 92.373,30.000 92.613 C 30.000 92.853,29.685 93.398,29.300 93.825 C 28.915 94.251,28.330 95.140,28.001 95.800 C 27.671 96.460,27.290 97.090,27.153 97.200 C 26.723 97.547,24.800 101.549,24.800 102.098 C 24.800 102.387,24.440 102.883,24.000 103.200 C 23.560 103.517,23.200 104.097,23.200 104.488 C 23.200 104.880,23.020 105.200,22.800 105.200 C 22.580 105.200,22.400 105.560,22.400 106.000 C 22.400 106.440,22.220 106.800,22.000 106.800 C 21.780 106.800,21.600 107.160,21.600 107.600 C 21.600 108.040,21.454 108.400,21.275 108.400 C 21.096 108.400,20.702 109.030,20.400 109.800 C 20.098 110.570,19.704 111.200,19.525 111.200 C 19.346 111.200,19.200 111.560,19.200 112.000 C 19.200 112.440,19.020 112.800,18.800 112.800 C 18.580 112.800,18.400 113.160,18.400 113.600 C 18.400 114.040,18.220 114.400,18.000 114.400 C 17.780 114.400,17.600 114.749,17.600 115.176 C 17.600 115.603,17.420 116.064,17.200 116.200 C 16.980 116.336,16.800 116.887,16.800 117.424 C 16.800 117.961,16.620 118.400,16.400 118.400 C 16.180 118.400,16.000 118.760,16.000 119.200 C 16.000 119.640,15.820 120.000,15.600 120.000 C 15.380 120.000,15.200 120.360,15.200 120.800 C 15.200 121.240,15.020 121.600,14.800 121.600 C 14.580 121.600,14.400 122.140,14.400 122.800 C 14.400 123.460,14.220 124.000,14.000 124.000 C 13.780 124.000,13.600 124.360,13.600 124.800 C 13.600 125.240,13.420 125.600,13.200 125.600 C 12.980 125.600,12.800 125.962,12.800 126.405 C 12.800 126.848,12.641 127.523,12.447 127.905 C 12.252 128.287,11.871 129.140,11.600 129.800 C 11.329 130.460,10.948 131.313,10.753 131.695 C 10.559 132.077,10.400 132.722,10.400 133.128 C 10.400 133.534,10.275 133.991,10.123 134.144 C 9.971 134.296,9.787 134.807,9.715 135.279 C 9.643 135.751,9.419 136.336,9.218 136.579 C 9.016 136.821,8.727 137.960,8.574 139.110 C 8.422 140.259,8.140 141.200,7.948 141.200 C 7.757 141.200,7.600 141.729,7.600 142.376 C 7.600 143.023,7.420 143.664,7.200 143.800 C 6.980 143.936,6.800 144.577,6.800 145.224 C 6.800 145.871,6.620 146.400,6.400 146.400 C 6.180 146.400,6.000 147.120,6.000 148.000 C 6.000 148.880,5.820 149.600,5.600 149.600 C 5.380 149.600,5.200 150.320,5.200 151.200 C 5.200 152.080,5.020 152.800,4.800 152.800 C 4.580 152.800,4.400 153.520,4.400 154.400 C 4.400 155.280,4.220 156.000,4.000 156.000 C 3.780 156.000,3.600 156.900,3.600 158.000 C 3.600 159.100,3.420 160.000,3.200 160.000 C 2.980 160.000,2.800 160.799,2.800 161.776 C 2.800 162.753,2.620 163.664,2.400 163.800 C 2.180 163.936,2.000 165.016,2.000 166.200 C 2.000 167.384,1.820 168.464,1.600 168.600 C 1.380 168.736,1.200 169.971,1.200 171.344 C 1.200 172.807,0.993 174.047,0.700 174.340 C -0.029 175.069,-0.029 224.931,0.700 225.660 C 0.993 225.953,1.200 227.193,1.200 228.656 C 1.200 230.029,1.380 231.264,1.600 231.400 C 1.820 231.536,2.000 232.616,2.000 233.800 C 2.000 234.984,2.180 236.064,2.400 236.200 C 2.620 236.336,2.800 237.247,2.800 238.224 C 2.800 239.201,2.980 240.000,3.200 240.000 C 3.420 240.000,3.600 240.900,3.600 242.000 C 3.600 243.100,3.780 244.000,4.000 244.000 C 4.220 244.000,4.400 244.720,4.400 245.600 C 4.400 246.480,4.580 247.200,4.800 247.200 C 5.020 247.200,5.200 247.920,5.200 248.800 C 5.200 249.680,5.380 250.400,5.600 250.400 C 5.820 250.400,6.000 251.120,6.000 252.000 C 6.000 252.880,6.180 253.600,6.400 253.600 C 6.620 253.600,6.800 254.129,6.800 254.776 C 6.800 255.423,6.980 256.064,7.200 256.200 C 7.420 256.336,7.600 256.977,7.600 257.624 C 7.600 258.271,7.757 258.800,7.948 258.800 C 8.140 258.800,8.422 259.741,8.574 260.890 C 8.727 262.040,9.016 263.179,9.218 263.421 C 9.419 263.664,9.643 264.249,9.715 264.721 C 9.787 265.193,9.971 265.704,10.123 265.856 C 10.275 266.009,10.400 266.466,10.400 266.872 C 10.400 267.278,10.559 267.923,10.753 268.305 C 10.948 268.687,11.329 269.540,11.600 270.200 C 11.871 270.860,12.252 271.713,12.447 272.095 C 12.641 272.477,12.800 273.152,12.800 273.595 C 12.800 274.038,12.980 274.400,13.200 274.400 C 13.420 274.400,13.600 274.760,13.600 275.200 C 13.600 275.640,13.780 276.000,14.000 276.000 C 14.220 276.000,14.400 276.540,14.400 277.200 C 14.400 277.860,14.580 278.400,14.800 278.400 C 15.020 278.400,15.200 278.760,15.200 279.200 C 15.200 279.640,15.380 280.000,15.600 280.000 C 15.820 280.000,16.000 280.360,16.000 280.800 C 16.000 281.240,16.180 281.600,16.400 281.600 C 16.620 281.600,16.800 282.039,16.800 282.576 C 16.800 283.113,16.980 283.664,17.200 283.800 C 17.420 283.936,17.600 284.397,17.600 284.824 C 17.600 285.251,17.780 285.600,18.000 285.600 C 18.220 285.600,18.400 285.960,18.400 286.400 C 18.400 286.840,18.580 287.200,18.800 287.200 C 19.020 287.200,19.200 287.560,19.200 288.000 C 19.200 288.440,19.346 288.800,19.525 288.800 C 19.704 288.800,20.098 289.430,20.400 290.200 C 20.702 290.970,21.096 291.600,21.275 291.600 C 21.454 291.600,21.600 291.960,21.600 292.400 C 21.600 292.840,21.780 293.200,22.000 293.200 C 22.220 293.200,22.400 293.560,22.400 294.000 C 22.400 294.440,22.580 294.800,22.800 294.800 C 23.020 294.800,23.200 295.120,23.200 295.512 C 23.200 295.903,23.560 296.483,24.000 296.800 C 24.440 297.117,24.800 297.613,24.800 297.902 C 24.800 298.451,26.723 302.453,27.153 302.800 C 27.290 302.910,27.671 303.540,28.001 304.200 C 28.330 304.860,28.915 305.749,29.300 306.175 C 29.685 306.602,30.000 307.147,30.000 307.387 C 30.000 307.627,30.360 308.083,30.800 308.400 C 31.240 308.717,31.600 309.297,31.600 309.688 C 31.600 310.080,31.750 310.400,31.932 310.400 C 32.115 310.400,32.519 310.895,32.830 311.500 C 33.140 312.105,33.711 312.891,34.097 313.247 C 34.484 313.603,34.800 314.148,34.800 314.459 C 34.800 314.769,35.160 315.283,35.600 315.600 C 36.040 315.917,36.400 316.425,36.400 316.728 C 36.400 317.031,36.940 317.783,37.600 318.400 C 38.260 319.017,38.800 319.737,38.800 320.000 C 38.800 320.263,39.340 320.983,40.000 321.600 C 40.660 322.217,41.200 322.892,41.200 323.102 C 41.200 323.312,41.626 323.942,42.146 324.504 C 42.666 325.065,43.514 326.126,44.030 326.862 C 44.547 327.598,45.433 328.650,46.000 329.200 C 46.567 329.750,47.467 330.821,47.999 331.580 C 49.260 333.376,66.624 350.740,68.420 352.001 C 69.179 352.533,70.250 353.433,70.800 354.000 C 71.350 354.567,72.430 355.470,73.200 356.007 C 73.970 356.543,75.013 357.392,75.518 357.891 C 76.023 358.391,76.626 358.800,76.858 358.800 C 77.089 358.800,77.783 359.340,78.400 360.000 C 79.017 360.660,79.737 361.200,80.000 361.200 C 80.263 361.200,80.983 361.740,81.600 362.400 C 82.217 363.060,82.969 363.600,83.272 363.600 C 83.575 363.600,84.083 363.960,84.400 364.400 C 84.717 364.840,85.231 365.200,85.541 365.200 C 85.852 365.200,86.397 365.516,86.753 365.903 C 87.109 366.289,87.895 366.860,88.500 367.170 C 89.105 367.481,89.600 367.885,89.600 368.068 C 89.600 368.250,89.920 368.400,90.312 368.400 C 90.703 368.400,91.283 368.760,91.600 369.200 C 91.917 369.640,92.373 370.000,92.613 370.000 C 92.853 370.000,93.398 370.315,93.825 370.700 C 94.251 371.085,95.140 371.670,95.800 371.999 C 96.460 372.329,97.090 372.709,97.200 372.843 C 97.601 373.333,101.411 375.200,102.009 375.200 C 102.347 375.200,102.883 375.560,103.200 376.000 C 103.517 376.440,104.097 376.800,104.488 376.800 C 104.880 376.800,105.200 376.980,105.200 377.200 C 105.200 377.420,105.560 377.600,106.000 377.600 C 106.440 377.600,106.800 377.780,106.800 378.000 C 106.800 378.220,107.160 378.400,107.600 378.400 C 108.040 378.400,108.400 378.546,108.400 378.725 C 108.400 378.904,109.030 379.298,109.800 379.600 C 110.570 379.902,111.200 380.296,111.200 380.475 C 111.200 380.654,111.560 380.800,112.000 380.800 C 112.440 380.800,112.800 380.980,112.800 381.200 C 112.800 381.420,113.160 381.600,113.600 381.600 C 114.040 381.600,114.400 381.780,114.400 382.000 C 114.400 382.220,114.749 382.400,115.176 382.400 C 115.603 382.400,116.064 382.580,116.200 382.800 C 116.336 383.020,116.887 383.200,117.424 383.200 C 117.961 383.200,118.400 383.380,118.400 383.600 C 118.400 383.820,118.760 384.000,119.200 384.000 C 119.640 384.000,120.000 384.180,120.000 384.400 C 120.000 384.620,120.360 384.800,120.800 384.800 C 121.240 384.800,121.600 384.980,121.600 385.200 C 121.600 385.420,122.140 385.600,122.800 385.600 C 123.460 385.600,124.000 385.780,124.000 386.000 C 124.000 386.220,124.360 386.400,124.800 386.400 C 125.240 386.400,125.600 386.580,125.600 386.800 C 125.600 387.020,125.962 387.200,126.405 387.200 C 126.848 387.200,127.523 387.359,127.905 387.553 C 128.287 387.748,129.140 388.129,129.800 388.400 C 130.460 388.671,131.313 389.052,131.695 389.247 C 132.077 389.441,132.741 389.600,133.171 389.600 C 133.601 389.600,134.064 389.780,134.200 390.000 C 134.336 390.220,134.876 390.400,135.400 390.400 C 135.924 390.400,136.456 390.567,136.583 390.772 C 136.709 390.977,137.800 391.267,139.006 391.418 C 140.213 391.569,141.200 391.851,141.200 392.046 C 141.200 392.241,141.729 392.400,142.376 392.400 C 143.023 392.400,143.664 392.580,143.800 392.800 C 143.936 393.020,144.577 393.200,145.224 393.200 C 145.871 393.200,146.400 393.380,146.400 393.600 C 146.400 393.820,147.120 394.000,148.000 394.000 C 148.880 394.000,149.600 394.180,149.600 394.400 C 149.600 394.620,150.320 394.800,151.200 394.800 C 152.080 394.800,152.800 394.980,152.800 395.200 C 152.800 395.420,153.520 395.600,154.400 395.600 C 155.280 395.600,156.000 395.780,156.000 396.000 C 156.000 396.220,156.900 396.400,158.000 396.400 C 159.100 396.400,160.000 396.580,160.000 396.800 C 160.000 397.020,160.799 397.200,161.776 397.200 C 162.753 397.200,163.664 397.380,163.800 397.600 C 163.936 397.820,165.016 398.000,166.200 398.000 C 167.384 398.000,168.464 398.180,168.600 398.400 C 168.736 398.620,169.971 398.800,171.344 398.800 C 172.807 398.800,174.047 399.007,174.340 399.300 C 174.729 399.689,180.405 399.800,200.000 399.800 C 219.595 399.800,225.271 399.689,225.660 399.300 C 225.953 399.007,227.193 398.800,228.656 398.800 C 230.029 398.800,231.264 398.620,231.400 398.400 C 231.536 398.180,232.616 398.000,233.800 398.000 C 234.984 398.000,236.064 397.820,236.200 397.600 C 236.336 397.380,237.247 397.200,238.224 397.200 C 239.201 397.200,240.000 397.020,240.000 396.800 C 240.000 396.580,240.900 396.400,242.000 396.400 C 243.100 396.400,244.000 396.220,244.000 396.000 C 244.000 395.780,244.720 395.600,245.600 395.600 C 246.480 395.600,247.200 395.420,247.200 395.200 C 247.200 394.980,247.920 394.800,248.800 394.800 C 249.680 394.800,250.400 394.620,250.400 394.400 C 250.400 394.180,251.120 394.000,252.000 394.000 C 252.880 394.000,253.600 393.820,253.600 393.600 C 253.600 393.380,254.129 393.200,254.776 393.200 C 255.423 393.200,256.064 393.020,256.200 392.800 C 256.336 392.580,256.977 392.400,257.624 392.400 C 258.271 392.400,258.800 392.241,258.800 392.046 C 258.800 391.851,259.787 391.569,260.994 391.418 C 262.200 391.267,263.291 390.977,263.417 390.772 C 263.544 390.567,264.076 390.400,264.600 390.400 C 265.124 390.400,265.664 390.220,265.800 390.000 C 265.936 389.780,266.399 389.600,266.829 389.600 C 267.259 389.600,267.923 389.441,268.305 389.247 C 268.687 389.052,269.540 388.671,270.200 388.400 C 270.860 388.129,271.713 387.748,272.095 387.553 C 272.477 387.359,273.152 387.200,273.595 387.200 C 274.038 387.200,274.400 387.020,274.400 386.800 C 274.400 386.580,274.760 386.400,275.200 386.400 C 275.640 386.400,276.000 386.220,276.000 386.000 C 276.000 385.780,276.540 385.600,277.200 385.600 C 277.860 385.600,278.400 385.420,278.400 385.200 C 278.400 384.980,278.760 384.800,279.200 384.800 C 279.640 384.800,280.000 384.620,280.000 384.400 C 280.000 384.180,280.360 384.000,280.800 384.000 C 281.240 384.000,281.600 383.820,281.600 383.600 C 281.600 383.380,282.039 383.200,282.576 383.200 C 283.113 383.200,283.664 383.020,283.800 382.800 C 283.936 382.580,284.397 382.400,284.824 382.400 C 285.251 382.400,285.600 382.220,285.600 382.000 C 285.600 381.780,285.960 381.600,286.400 381.600 C 286.840 381.600,287.200 381.420,287.200 381.200 C 287.200 380.980,287.560 380.800,288.000 380.800 C 288.440 380.800,288.800 380.654,288.800 380.475 C 288.800 380.296,289.430 379.902,290.200 379.600 C 290.970 379.298,291.600 378.904,291.600 378.725 C 291.600 378.546,291.960 378.400,292.400 378.400 C 292.840 378.400,293.200 378.220,293.200 378.000 C 293.200 377.780,293.560 377.600,294.000 377.600 C 294.440 377.600,294.800 377.420,294.800 377.200 C 294.800 376.980,295.120 376.800,295.512 376.800 C 295.903 376.800,296.483 376.440,296.800 376.000 C 297.117 375.560,297.653 375.200,297.991 375.200 C 298.589 375.200,302.399 373.333,302.800 372.843 C 302.910 372.709,303.540 372.329,304.200 371.999 C 304.860 371.670,305.749 371.085,306.175 370.700 C 306.602 370.315,307.147 370.000,307.387 370.000 C 307.627 370.000,308.083 369.640,308.400 369.200 C 308.717 368.760,309.297 368.400,309.688 368.400 C 310.080 368.400,310.400 368.250,310.400 368.068 C 310.400 367.885,310.895 367.481,311.500 367.170 C 312.105 366.860,312.891 366.289,313.247 365.903 C 313.603 365.516,314.148 365.200,314.459 365.200 C 314.769 365.200,315.283 364.840,315.600 364.400 C 315.917 363.960,316.425 363.600,316.728 363.600 C 317.031 363.600,317.783 363.060,318.400 362.400 C 319.017 361.740,319.737 361.200,320.000 361.200 C 320.263 361.200,320.983 360.660,321.600 360.000 C 322.217 359.340,322.927 358.800,323.179 358.800 C 323.430 358.800,324.064 358.372,324.587 357.850 C 325.109 357.327,326.136 356.479,326.869 355.965 C 327.601 355.451,328.650 354.567,329.200 354.000 C 329.750 353.433,330.821 352.533,331.580 352.001 C 333.376 350.740,350.740 333.376,352.001 331.580 C 352.533 330.821,353.433 329.750,354.000 329.200 C 354.567 328.650,355.451 327.601,355.965 326.869 C 356.479 326.136,357.327 325.109,357.850 324.587 C 358.372 324.064,358.800 323.430,358.800 323.179 C 358.800 322.927,359.340 322.217,360.000 321.600 C 360.660 320.983,361.200 320.263,361.200 320.000 C 361.200 319.737,361.740 319.017,362.400 318.400 C 363.060 317.783,363.600 317.031,363.600 316.728 C 363.600 316.425,363.960 315.917,364.400 315.600 C 364.840 315.283,365.200 314.769,365.200 314.459 C 365.200 314.148,365.516 313.603,365.903 313.247 C 366.289 312.891,366.860 312.105,367.170 311.500 C 367.481 310.895,367.885 310.400,368.068 310.400 C 368.250 310.400,368.400 310.080,368.400 309.688 C 368.400 309.297,368.760 308.717,369.200 308.400 C 369.640 308.083,370.000 307.627,370.000 307.387 C 370.000 307.147,370.315 306.602,370.700 306.175 C 371.085 305.749,371.670 304.860,371.999 304.200 C 372.329 303.540,372.709 302.910,372.843 302.800 C 373.333 302.399,375.200 298.589,375.200 297.991 C 375.200 297.653,375.560 297.117,376.000 296.800 C 376.440 296.483,376.800 295.903,376.800 295.512 C 376.800 295.120,376.980 294.800,377.200 294.800 C 377.420 294.800,377.600 294.440,377.600 294.000 C 377.600 293.560,377.780 293.200,378.000 293.200 C 378.220 293.200,378.400 292.840,378.400 292.400 C 378.400 291.960,378.546 291.600,378.725 291.600 C 378.904 291.600,379.298 290.970,379.600 290.200 C 379.902 289.430,380.296 288.800,380.475 288.800 C 380.654 288.800,380.800 288.440,380.800 288.000 C 380.800 287.560,380.980 287.200,381.200 287.200 C 381.420 287.200,381.600 286.840,381.600 286.400 C 381.600 285.960,381.780 285.600,382.000 285.600 C 382.220 285.600,382.400 285.251,382.400 284.824 C 382.400 284.397,382.580 283.936,382.800 283.800 C 383.020 283.664,383.200 283.113,383.200 282.576 C 383.200 282.039,383.380 281.600,383.600 281.600 C 383.820 281.600,384.000 281.240,384.000 280.800 C 384.000 280.360,384.180 280.000,384.400 280.000 C 384.620 280.000,384.800 279.640,384.800 279.200 C 384.800 278.760,384.980 278.400,385.200 278.400 C 385.420 278.400,385.600 277.860,385.600 277.200 C 385.600 276.540,385.780 276.000,386.000 276.000 C 386.220 276.000,386.400 275.640,386.400 275.200 C 386.400 274.760,386.580 274.400,386.800 274.400 C 387.020 274.400,387.200 274.038,387.200 273.595 C 387.200 273.152,387.359 272.477,387.553 272.095 C 387.748 271.713,388.129 270.860,388.400 270.200 C 388.671 269.540,389.052 268.687,389.247 268.305 C 389.441 267.923,389.600 267.259,389.600 266.829 C 389.600 266.399,389.780 265.936,390.000 265.800 C 390.220 265.664,390.400 265.124,390.400 264.600 C 390.400 264.076,390.567 263.544,390.772 263.417 C 390.977 263.291,391.267 262.200,391.418 260.994 C 391.569 259.787,391.851 258.800,392.046 258.800 C 392.241 258.800,392.400 258.271,392.400 257.624 C 392.400 256.977,392.580 256.336,392.800 256.200 C 393.020 256.064,393.200 255.423,393.200 254.776 C 393.200 254.129,393.380 253.600,393.600 253.600 C 393.820 253.600,394.000 252.880,394.000 252.000 C 394.000 251.120,394.180 250.400,394.400 250.400 C 394.620 250.400,394.800 249.680,394.800 248.800 C 394.800 247.920,394.980 247.200,395.200 247.200 C 395.420 247.200,395.600 246.480,395.600 245.600 C 395.600 244.720,395.780 244.000,396.000 244.000 C 396.220 244.000,396.400 243.100,396.400 242.000 C 396.400 240.900,396.580 240.000,396.800 240.000 C 397.020 240.000,397.200 239.201,397.200 238.224 C 397.200 237.247,397.380 236.336,397.600 236.200 C 397.820 236.064,398.000 234.984,398.000 233.800 C 398.000 232.616,398.180 231.536,398.400 231.400 C 398.620 231.264,398.800 230.029,398.800 228.656 C 398.800 227.193,399.007 225.953,399.300 225.660 C 399.689 225.271,399.800 219.595,399.800 200.000 C 399.800 180.405,399.689 174.729,399.300 174.340 C 399.007 174.047,398.800 172.807,398.800 171.344 C 398.800 169.971,398.620 168.736,398.400 168.600 C 398.180 168.464,398.000 167.384,398.000 166.200 C 398.000 165.016,397.820 163.936,397.600 163.800 C 397.380 163.664,397.200 162.753,397.200 161.776 C 397.200 160.799,397.020 160.000,396.800 160.000 C 396.580 160.000,396.400 159.100,396.400 158.000 C 396.400 156.900,396.220 156.000,396.000 156.000 C 395.780 156.000,395.600 155.280,395.600 154.400 C 395.600 153.520,395.420 152.800,395.200 152.800 C 394.980 152.800,394.800 152.080,394.800 151.200 C 394.800 150.320,394.620 149.600,394.400 149.600 C 394.180 149.600,394.000 148.880,394.000 148.000 C 394.000 147.120,393.820 146.400,393.600 146.400 C 393.380 146.400,393.200 145.871,393.200 145.224 C 393.200 144.577,393.020 143.936,392.800 143.800 C 392.580 143.664,392.400 143.023,392.400 142.376 C 392.400 141.729,392.241 141.200,392.046 141.200 C 391.851 141.200,391.569 140.213,391.418 139.006 C 391.267 137.800,390.977 136.709,390.772 136.583 C 390.567 136.456,390.400 135.924,390.400 135.400 C 390.400 134.876,390.220 134.336,390.000 134.200 C 389.780 134.064,389.600 133.601,389.600 133.171 C 389.600 132.741,389.441 132.077,389.247 131.695 C 389.052 131.313,388.671 130.460,388.400 129.800 C 388.129 129.140,387.748 128.287,387.553 127.905 C 387.359 127.523,387.200 126.848,387.200 126.405 C 387.200 125.962,387.020 125.600,386.800 125.600 C 386.580 125.600,386.400 125.240,386.400 124.800 C 386.400 124.360,386.220 124.000,386.000 124.000 C 385.780 124.000,385.600 123.460,385.600 122.800 C 385.600 122.140,385.420 121.600,385.200 121.600 C 384.980 121.600,384.800 121.240,384.800 120.800 C 384.800 120.360,384.620 120.000,384.400 120.000 C 384.180 120.000,384.000 119.640,384.000 119.200 C 384.000 118.760,383.820 118.400,383.600 118.400 C 383.380 118.400,383.200 117.961,383.200 117.424 C 383.200 116.887,383.020 116.336,382.800 116.200 C 382.580 116.064,382.400 115.603,382.400 115.176 C 382.400 114.749,382.220 114.400,382.000 114.400 C 381.780 114.400,381.600 114.040,381.600 113.600 C 381.600 113.160,381.420 112.800,381.200 112.800 C 380.980 112.800,380.800 112.440,380.800 112.000 C 380.800 111.560,380.654 111.200,380.475 111.200 C 380.296 111.200,379.902 110.570,379.600 109.800 C 379.298 109.030,378.904 108.400,378.725 108.400 C 378.546 108.400,378.400 108.040,378.400 107.600 C 378.400 107.160,378.220 106.800,378.000 106.800 C 377.780 106.800,377.600 106.440,377.600 106.000 C 377.600 105.560,377.420 105.200,377.200 105.200 C 376.980 105.200,376.800 104.880,376.800 104.488 C 376.800 104.097,376.440 103.517,376.000 103.200 C 375.560 102.883,375.200 102.347,375.200 102.009 C 375.200 101.411,373.333 97.601,372.843 97.200 C 372.709 97.090,372.329 96.460,371.999 95.800 C 371.670 95.140,371.085 94.251,370.700 93.825 C 370.315 93.398,370.000 92.853,370.000 92.613 C 370.000 92.373,369.640 91.917,369.200 91.600 C 368.760 91.283,368.400 90.703,368.400 90.312 C 368.400 89.920,368.250 89.600,368.068 89.600 C 367.885 89.600,367.481 89.105,367.170 88.500 C 366.860 87.895,366.289 87.109,365.903 86.753 C 365.516 86.397,365.200 85.852,365.200 85.541 C 365.200 85.231,364.840 84.717,364.400 84.400 C 363.960 84.083,363.600 83.575,363.600 83.272 C 363.600 82.969,363.060 82.217,362.400 81.600 C 361.740 80.983,361.200 80.263,361.200 80.000 C 361.200 79.737,360.660 79.017,360.000 78.400 C 359.340 77.783,358.800 77.089,358.800 76.858 C 358.800 76.626,358.391 76.023,357.891 75.518 C 357.392 75.013,356.543 73.970,356.007 73.200 C 355.470 72.430,354.567 71.350,354.000 70.800 C 353.433 70.250,352.533 69.179,352.001 68.420 C 350.740 66.624,333.376 49.260,331.580 47.999 C 330.821 47.467,329.750 46.567,329.200 46.000 C 328.650 45.433,327.598 44.547,326.862 44.030 C 326.126 43.514,325.065 42.666,324.504 42.146 C 323.942 41.626,323.312 41.200,323.102 41.200 C 322.892 41.200,322.217 40.660,321.600 40.000 C 320.983 39.340,320.263 38.800,320.000 38.800 C 319.737 38.800,319.017 38.260,318.400 37.600 C 317.783 36.940,317.031 36.400,316.728 36.400 C 316.425 36.400,315.917 36.040,315.600 35.600 C 315.283 35.160,314.769 34.800,314.459 34.800 C 314.148 34.800,313.603 34.484,313.247 34.097 C 312.891 33.711,312.105 33.140,311.500 32.830 C 310.895 32.519,310.400 32.115,310.400 31.932 C 310.400 31.750,310.080 31.600,309.688 31.600 C 309.297 31.600,308.717 31.240,308.400 30.800 C 308.083 30.360,307.627 30.000,307.387 30.000 C 307.147 30.000,306.602 29.685,306.175 29.300 C 305.749 28.915,304.860 28.330,304.200 28.001 C 303.540 27.671,302.910 27.290,302.800 27.153 C 302.453 26.723,298.451 24.800,297.902 24.800 C 297.613 24.800,297.117 24.440,296.800 24.000 C 296.483 23.560,295.903 23.200,295.512 23.200 C 295.120 23.200,294.800 23.020,294.800 22.800 C 294.800 22.580,294.440 22.400,294.000 22.400 C 293.560 22.400,293.200 22.220,293.200 22.000 C 293.200 21.780,292.840 21.600,292.400 21.600 C 291.960 21.600,291.600 21.454,291.600 21.275 C 291.600 21.096,290.970 20.702,290.200 20.400 C 289.430 20.098,288.800 19.704,288.800 19.525 C 288.800 19.346,288.440 19.200,288.000 19.200 C 287.560 19.200,287.200 19.020,287.200 18.800 C 287.200 18.580,286.840 18.400,286.400 18.400 C 285.960 18.400,285.600 18.220,285.600 18.000 C 285.600 17.780,285.251 17.600,284.824 17.600 C 284.397 17.600,283.936 17.420,283.800 17.200 C 283.664 16.980,283.113 16.800,282.576 16.800 C 282.039 16.800,281.600 16.620,281.600 16.400 C 281.600 16.180,281.240 16.000,280.800 16.000 C 280.360 16.000,280.000 15.820,280.000 15.600 C 280.000 15.380,279.640 15.200,279.200 15.200 C 278.760 15.200,278.400 15.020,278.400 14.800 C 278.400 14.580,277.860 14.400,277.200 14.400 C 276.540 14.400,276.000 14.220,276.000 14.000 C 276.000 13.780,275.640 13.600,275.200 13.600 C 274.760 13.600,274.400 13.420,274.400 13.200 C 274.400 12.980,274.038 12.800,273.595 12.800 C 273.152 12.800,272.477 12.641,272.095 12.447 C 271.713 12.252,270.860 11.871,270.200 11.600 C 269.540 11.329,268.687 10.948,268.305 10.753 C 267.923 10.559,267.278 10.400,266.872 10.400 C 266.466 10.400,266.009 10.275,265.856 10.123 C 265.704 9.971,265.193 9.787,264.721 9.715 C 264.249 9.643,263.664 9.419,263.421 9.218 C 263.179 9.016,262.040 8.727,260.890 8.574 C 259.741 8.422,258.800 8.140,258.800 7.948 C 258.800 7.757,258.271 7.600,257.624 7.600 C 256.977 7.600,256.336 7.420,256.200 7.200 C 256.064 6.980,255.423 6.800,254.776 6.800 C 254.129 6.800,253.600 6.620,253.600 6.400 C 253.600 6.180,252.880 6.000,252.000 6.000 C 251.120 6.000,250.400 5.820,250.400 5.600 C 250.400 5.380,249.680 5.200,248.800 5.200 C 247.920 5.200,247.200 5.020,247.200 4.800 C 247.200 4.580,246.480 4.400,245.600 4.400 C 244.720 4.400,244.000 4.220,244.000 4.000 C 244.000 3.780,243.100 3.600,242.000 3.600 C 240.900 3.600,240.000 3.420,240.000 3.200 C 240.000 2.980,239.201 2.800,238.224 2.800 C 237.247 2.800,236.336 2.620,236.200 2.400 C 236.064 2.180,234.984 2.000,233.800 2.000 C 232.616 2.000,231.536 1.820,231.400 1.600 C 231.264 1.380,230.029 1.200,228.656 1.200 C 227.224 1.200,225.952 0.992,225.672 0.712 C 225.189 0.229,187.198 -0.120,178.203 0.276 M145.923 68.688 C 160.091 72.086,163.663 84.872,156.006 104.771 C 153.106 112.305,153.054 111.544,156.479 111.682 L 159.400 111.800 159.313 113.600 C 159.158 116.808,157.163 122.137,156.000 122.451 C 152.087 123.505,123.455 122.591,119.000 121.268 C 99.546 115.495,106.722 75.801,128.400 69.267 C 129.170 69.035,130.430 68.669,131.200 68.454 C 132.953 67.963,143.608 68.133,145.923 68.688 M324.900 73.198 C 328.702 73.201,328.697 73.101,325.126 77.921 C 322.045 82.078,312.631 94.740,304.397 105.800 C 298.771 113.357,299.092 112.768,297.757 117.972 C 296.565 122.619,297.462 122.089,290.405 122.316 L 284.400 122.509 284.400 121.183 C 284.400 120.453,284.570 119.304,284.778 118.628 C 286.367 113.460,286.174 109.988,283.996 104.600 C 283.188 102.601,283.063 102.149,281.952 97.200 C 281.730 96.210,281.451 94.725,281.332 93.900 L 281.116 92.400 287.258 92.406 C 293.980 92.413,294.148 92.454,294.561 94.200 C 295.740 99.189,295.743 99.191,297.730 96.300 C 298.524 95.145,300.625 92.220,302.398 89.800 C 307.923 82.262,310.155 79.190,311.473 77.310 C 312.173 76.312,313.306 74.862,313.990 74.089 L 315.234 72.684 318.517 72.940 C 320.323 73.080,323.195 73.196,324.900 73.198 M240.535 79.695 C 248.237 82.057,249.779 87.701,246.973 103.251 L 246.711 104.702 233.456 104.893 C 217.364 105.125,216.889 105.249,218.637 108.753 C 220.029 111.545,225.636 112.608,237.313 112.297 C 241.005 112.198,244.120 112.270,244.235 112.456 C 244.424 112.762,243.320 118.382,242.478 121.400 L 242.143 122.600 232.771 122.729 C 215.094 122.973,209.908 121.623,207.011 116.021 C 204.622 111.401,205.727 101.337,209.716 91.400 C 213.815 81.188,227.926 75.828,240.535 79.695 M206.785 79.382 C 207.051 79.703,207.154 80.150,207.014 80.377 C 206.874 80.603,206.589 81.736,206.381 82.894 C 206.173 84.052,205.840 85.720,205.641 86.600 C 205.057 89.191,204.338 92.476,203.956 94.300 C 203.760 95.235,203.420 96.810,203.200 97.800 C 202.647 100.290,202.150 102.612,201.618 105.200 C 201.061 107.907,200.580 110.047,200.000 112.400 C 199.392 114.865,198.862 117.273,198.476 119.315 C 197.937 122.171,198.795 122.000,184.981 122.000 C 171.242 122.000,170.174 121.848,167.030 119.450 C 163.783 116.974,162.757 109.437,164.572 101.400 C 164.969 99.640,165.471 97.390,165.687 96.400 C 165.902 95.410,166.223 93.970,166.399 93.200 C 166.575 92.430,166.936 90.810,167.200 89.600 C 167.464 88.390,167.844 86.680,168.043 85.800 C 168.243 84.920,168.510 83.570,168.636 82.800 C 168.763 82.030,169.053 80.905,169.282 80.300 L 169.697 79.200 175.225 79.200 C 181.125 79.200,181.382 79.285,180.838 81.054 C 180.645 81.684,180.270 83.280,180.005 84.600 C 179.740 85.920,179.343 87.900,179.123 89.000 C 178.902 90.100,178.574 91.720,178.393 92.600 C 178.213 93.480,177.881 95.190,177.656 96.400 C 176.849 100.748,176.316 103.432,175.894 105.267 C 174.871 109.722,176.441 111.152,182.715 111.483 C 187.491 111.735,188.400 111.479,188.400 109.879 C 188.400 109.427,188.579 108.504,188.798 107.828 C 189.017 107.153,190.206 102.370,191.440 97.200 C 192.675 92.030,194.161 85.910,194.743 83.600 L 195.800 79.400 199.800 79.177 C 202.000 79.055,204.363 78.920,205.051 78.877 C 205.744 78.835,206.518 79.060,206.785 79.382 M286.800 79.217 C 290.547 80.044,292.145 82.254,293.406 88.350 C 293.823 90.364,293.680 90.387,280.674 90.394 C 268.285 90.400,267.200 90.535,267.200 92.068 C 267.200 92.529,267.028 93.558,266.817 94.354 C 266.439 95.784,265.090 101.501,264.400 104.600 C 264.204 105.480,263.684 107.730,263.244 109.600 C 262.805 111.470,261.992 114.958,261.439 117.351 C 260.212 122.650,261.086 122.045,254.649 122.050 C 248.891 122.054,248.178 121.913,248.626 120.860 C 248.781 120.497,249.047 119.480,249.217 118.600 C 249.910 115.015,250.419 112.505,250.800 110.800 C 251.021 109.810,251.398 108.010,251.636 106.800 C 252.453 102.663,252.795 100.999,253.199 99.200 C 253.421 98.210,253.781 96.500,254.000 95.400 C 254.219 94.300,254.560 92.680,254.759 91.800 C 254.957 90.920,255.314 89.300,255.552 88.200 C 257.682 78.353,256.082 79.449,268.713 79.184 C 274.371 79.065,280.350 78.934,282.000 78.894 C 283.650 78.853,285.810 78.998,286.800 79.217 M106.476 80.800 C 106.408 81.570,105.953 83.910,105.466 86.000 L 104.581 89.800 98.490 89.910 C 92.747 90.015,92.400 89.978,92.400 89.265 C 92.400 88.471,93.744 82.725,94.453 80.490 L 94.869 79.179 100.734 79.290 L 106.600 79.400 106.476 80.800 M134.349 79.553 C 128.700 80.742,124.728 84.945,122.963 91.600 C 118.813 107.256,121.266 111.183,135.200 111.188 C 140.612 111.189,141.455 111.018,141.716 109.864 C 141.923 108.950,145.725 95.841,146.375 93.800 C 149.230 84.838,143.196 77.690,134.349 79.553 M225.400 89.683 C 223.040 90.507,219.630 94.218,220.495 95.021 C 221.093 95.576,236.605 95.314,236.715 94.747 C 237.445 90.958,230.564 87.878,225.400 89.683 M103.320 94.200 C 103.228 96.035,102.549 99.482,100.428 108.900 C 100.193 109.945,99.809 111.655,99.575 112.700 C 99.341 113.745,98.988 115.230,98.791 116.000 C 97.762 120.015,96.661 124.477,96.051 127.100 C 93.873 136.472,89.323 139.995,79.400 139.994 C 74.648 139.993,72.705 139.586,72.926 138.640 C 73.217 137.394,75.186 129.902,75.418 129.155 C 75.558 128.706,76.281 128.442,77.797 128.285 C 81.205 127.933,83.626 125.970,84.559 122.800 C 85.253 120.445,85.644 118.866,86.046 116.800 C 86.766 113.098,87.706 108.793,88.360 106.200 C 88.874 104.162,89.413 101.885,89.923 99.600 C 90.494 97.041,91.577 93.161,91.839 92.737 C 91.961 92.540,94.612 92.428,97.730 92.489 L 103.400 92.600 103.320 94.200 M220.206 150.009 C 220.345 150.235,220.102 151.540,219.667 152.909 C 213.966 170.827,221.667 192.773,237.328 203.242 C 239.269 204.539,240.930 205.600,241.021 205.600 C 241.111 205.600,242.133 206.191,243.292 206.914 C 246.162 208.703,250.696 210.603,254.400 211.568 C 255.390 211.826,256.830 212.204,257.600 212.409 C 262.403 213.685,273.567 212.607,280.400 210.206 C 284.069 208.917,288.913 206.490,292.400 204.194 C 302.806 197.343,293.112 209.374,282.200 216.854 C 276.654 220.655,273.234 222.268,269.600 222.799 C 268.390 222.975,266.500 223.336,265.400 223.601 C 260.678 224.737,249.249 224.056,244.200 222.338 C 243.540 222.114,242.454 221.793,241.786 221.626 C 240.702 221.356,236.134 219.375,234.300 218.380 C 213.829 207.277,204.345 184.009,211.483 162.400 C 213.771 155.471,218.995 148.051,220.206 150.009 M177.600 160.446 C 177.600 160.665,177.060 161.933,176.400 163.264 C 172.390 171.347,170.406 183.124,171.594 191.800 C 171.866 193.780,172.230 196.480,172.403 197.800 C 172.915 201.685,175.303 210.614,176.036 211.380 C 176.236 211.589,176.400 212.006,176.400 212.308 C 176.400 213.005,180.649 221.502,182.447 224.400 C 188.853 234.726,199.231 244.868,209.656 250.990 C 214.982 254.118,215.553 254.427,218.200 255.623 C 219.300 256.120,220.550 256.701,220.979 256.916 C 222.190 257.522,229.239 260.036,230.800 260.419 C 231.570 260.608,233.190 261.022,234.400 261.338 C 244.625 264.012,261.932 263.833,268.314 260.986 C 269.036 260.664,269.936 260.399,270.314 260.398 C 270.691 260.396,271.516 260.126,272.146 259.798 C 272.776 259.469,273.469 259.200,273.685 259.200 C 276.956 259.200,290.065 251.075,296.521 245.046 C 300.065 241.736,298.125 247.353,293.221 254.600 C 290.944 257.965,283.800 265.382,280.885 267.408 C 275.428 271.201,270.448 273.913,265.800 275.624 C 264.480 276.109,263.040 276.654,262.600 276.834 C 261.247 277.387,257.153 278.410,254.000 278.982 C 252.350 279.282,250.190 279.719,249.200 279.954 C 246.941 280.489,226.946 280.497,224.200 279.964 C 223.100 279.750,220.850 279.334,219.200 279.040 C 217.550 278.745,215.660 278.307,215.000 278.066 C 214.340 277.825,212.399 277.145,210.688 276.556 C 208.976 275.966,207.480 275.330,207.364 275.142 C 207.248 274.954,206.810 274.800,206.391 274.800 C 204.994 274.800,194.045 268.061,189.600 264.465 C 183.715 259.704,178.052 253.863,173.878 248.248 C 173.041 247.121,172.141 245.930,171.878 245.600 C 169.467 242.573,162.400 228.821,162.400 227.158 C 162.400 226.917,162.150 226.154,161.845 225.460 C 156.694 213.765,157.809 192.755,164.298 179.230 C 168.253 170.987,177.600 157.788,177.600 160.446 M126.152 179.922 C 126.262 180.100,126.099 180.685,125.791 181.222 C 125.483 181.760,125.105 182.470,124.951 182.800 C 124.796 183.130,124.365 183.850,123.992 184.400 C 123.619 184.950,123.216 185.850,123.097 186.400 C 122.978 186.950,122.690 187.940,122.455 188.600 C 116.631 205.021,116.193 224.516,121.251 242.200 C 123.114 248.713,127.877 259.213,131.825 265.514 C 139.637 277.980,152.632 291.128,165.000 299.081 C 166.540 300.071,168.253 301.198,168.808 301.584 C 169.362 301.971,170.201 302.410,170.672 302.559 C 171.142 302.709,171.746 303.094,172.013 303.415 C 172.280 303.737,172.777 304.000,173.117 304.000 C 173.458 304.000,174.021 304.245,174.369 304.545 C 176.724 306.576,191.187 312.614,197.800 314.327 C 208.887 317.200,213.239 317.919,224.800 318.792 C 237.593 319.758,251.620 317.596,263.848 312.776 C 270.490 310.158,283.040 303.210,285.671 300.695 C 285.962 300.417,286.650 299.896,287.200 299.537 C 287.750 299.179,289.359 297.874,290.775 296.638 C 294.084 293.751,294.618 294.164,292.641 298.078 C 286.374 310.487,275.537 322.885,264.800 329.929 C 263.590 330.723,262.510 331.482,262.400 331.615 C 262.290 331.749,261.930 331.976,261.600 332.121 C 261.270 332.265,260.280 332.830,259.400 333.377 C 257.334 334.661,250.476 337.996,249.868 338.013 C 249.610 338.020,249.051 338.290,248.624 338.613 C 248.196 338.936,247.566 339.206,247.224 339.214 C 246.881 339.221,245.880 339.575,245.000 340.000 C 244.120 340.425,242.983 340.779,242.474 340.786 C 241.964 340.794,241.167 341.004,240.702 341.252 C 239.801 341.735,236.406 342.587,232.800 343.236 C 231.590 343.453,229.790 343.819,228.800 344.048 C 222.749 345.448,207.372 345.780,199.600 344.678 C 189.993 343.317,188.251 342.975,181.600 341.143 C 164.304 336.378,148.973 327.549,134.995 314.302 C 129.405 309.005,118.800 296.615,118.800 295.381 C 118.800 295.235,118.290 294.459,117.666 293.658 C 116.126 291.679,112.531 285.384,110.437 281.000 C 109.492 279.020,108.557 277.087,108.359 276.705 C 108.162 276.323,108.000 275.826,108.000 275.601 C 108.000 275.376,107.670 274.428,107.266 273.496 C 105.989 270.543,105.251 268.343,103.750 263.000 C 99.206 246.826,99.686 225.566,104.908 211.800 C 105.242 210.920,105.746 209.570,106.029 208.800 C 106.619 207.196,110.955 198.191,111.702 197.020 C 117.872 187.346,125.305 178.551,126.152 179.922 " stroke="none" fill="#53c3ab" fill-rule="evenodd"></path></g></svg>