<svg id="svg" version="1.1" xmlns="http://www.w3.org/2000/svg" xmlns:xlink="http://www.w3.org/1999/xlink" width="400" height="400" viewBox="0, 0, 400,400"><g id="svgg"><path id="path0" d="M0.000 28.600 C 0.000 52.989,0.083 57.200,0.566 57.200 C 0.983 57.200,1.198 56.386,1.385 54.100 C 1.525 52.395,2.069 49.830,2.595 48.400 C 3.121 46.970,3.665 45.267,3.804 44.615 C 4.163 42.939,8.768 33.793,10.464 31.388 C 11.244 30.281,12.134 28.895,12.441 28.309 C 13.993 25.348,26.035 13.282,28.370 12.348 C 28.717 12.210,30.246 11.260,31.769 10.238 C 35.224 7.918,43.002 4.137,45.445 3.590 C 46.455 3.364,47.758 2.936,48.341 2.639 C 48.923 2.343,50.660 1.980,52.200 1.833 C 56.250 1.447,57.200 1.207,57.200 0.568 C 57.200 0.083,53.045 0.000,28.600 0.000 L 0.000 0.000 0.000 28.600 M341.700 0.499 C 341.892 1.076,344.135 1.538,347.000 1.590 C 348.100 1.610,349.990 1.989,351.200 2.433 C 352.410 2.877,354.056 3.408,354.858 3.613 C 356.543 4.043,366.573 8.880,367.546 9.731 C 367.906 10.046,368.809 10.640,369.552 11.052 C 371.856 12.327,372.146 12.531,375.215 15.054 C 376.857 16.404,379.512 18.924,381.116 20.654 C 382.721 22.384,384.423 24.214,384.901 24.719 C 386.240 26.138,388.741 29.662,389.379 31.032 C 389.695 31.709,390.217 32.482,390.538 32.748 C 390.859 33.015,391.243 33.719,391.392 34.312 C 391.541 34.906,391.792 35.484,391.949 35.596 C 392.462 35.963,396.400 44.332,396.409 45.075 C 396.414 45.474,396.786 46.610,397.236 47.600 C 397.686 48.590,398.217 50.816,398.415 52.546 C 398.829 56.156,399.101 57.200,399.627 57.200 C 399.854 57.200,400.000 46.022,400.000 28.600 L 400.000 0.000 370.767 0.000 C 347.603 0.000,341.568 0.104,341.700 0.499 M108.943 87.500 C 108.378 88.653,108.289 318.785,108.853 319.464 C 109.503 320.247,235.321 320.094,236.600 319.309 C 237.040 319.040,238.930 318.621,240.800 318.378 C 246.136 317.687,246.968 317.531,247.472 317.127 C 247.732 316.918,248.992 316.644,250.272 316.518 C 251.553 316.392,253.230 315.979,254.000 315.602 C 254.770 315.224,256.024 314.796,256.787 314.650 C 258.440 314.334,263.316 312.432,263.600 311.992 C 263.710 311.822,264.610 311.467,265.600 311.204 C 266.590 310.941,267.670 310.495,268.000 310.213 C 268.330 309.932,269.261 309.489,270.068 309.230 C 270.875 308.971,271.752 308.498,272.017 308.180 C 272.282 307.861,272.718 307.600,272.987 307.600 C 273.256 307.600,273.802 307.240,274.200 306.800 C 274.598 306.360,275.141 306.000,275.407 306.000 C 275.673 306.000,276.590 305.462,277.445 304.805 C 278.300 304.147,279.180 303.471,279.400 303.302 C 279.620 303.132,280.259 302.699,280.821 302.340 C 281.775 301.728,289.600 294.064,289.600 293.741 C 289.600 293.660,290.793 291.846,292.251 289.711 C 293.709 287.575,295.084 285.282,295.307 284.614 C 295.531 283.946,295.921 283.130,296.175 282.800 C 296.764 282.035,298.285 278.170,298.614 276.600 C 298.753 275.940,299.197 274.500,299.602 273.400 C 300.007 272.300,300.418 270.222,300.516 268.782 C 300.614 267.342,301.011 265.552,301.398 264.804 C 302.366 262.932,302.411 247.618,301.455 245.522 C 301.124 244.795,300.650 242.220,300.402 239.800 C 300.154 237.380,299.719 235.040,299.434 234.600 C 299.150 234.160,298.787 232.927,298.628 231.859 C 298.469 230.792,297.993 229.352,297.571 228.659 C 297.149 227.967,296.802 227.035,296.801 226.589 C 296.801 226.143,296.498 225.347,296.129 224.820 C 295.760 224.294,295.263 223.309,295.024 222.631 C 293.518 218.363,283.075 205.792,279.852 204.367 C 279.383 204.160,278.010 203.273,276.800 202.396 C 275.590 201.519,274.298 200.801,273.929 200.801 C 273.559 200.800,273.005 200.548,272.697 200.240 C 271.865 199.408,263.385 196.322,259.472 195.428 C 258.085 195.111,258.251 194.378,259.825 193.873 C 260.471 193.665,261.270 193.265,261.600 192.983 C 261.930 192.700,263.496 191.821,265.080 191.028 C 266.665 190.236,268.078 189.397,268.221 189.166 C 268.365 188.934,268.815 188.621,269.222 188.470 C 270.287 188.076,273.200 185.536,277.368 181.367 C 281.799 176.935,281.950 176.741,284.271 172.527 C 284.750 171.658,285.425 170.711,285.771 170.424 C 286.117 170.137,286.401 169.609,286.402 169.251 C 286.404 168.893,286.673 168.085,287.001 167.456 C 287.329 166.827,287.856 165.387,288.172 164.256 C 288.488 163.125,289.025 161.444,289.365 160.519 C 291.342 155.144,292.370 136.645,290.854 133.712 C 290.368 132.772,289.600 128.516,289.600 126.765 C 289.600 125.873,289.315 125.133,288.800 124.693 C 288.295 124.260,288.000 123.513,288.000 122.666 C 288.000 121.857,287.699 121.052,287.242 120.638 C 286.825 120.260,286.367 119.173,286.224 118.222 C 286.082 117.271,285.613 116.174,285.182 115.784 C 284.752 115.395,284.400 114.862,284.400 114.600 C 284.400 114.338,284.040 113.798,283.600 113.400 C 283.160 113.002,282.800 112.462,282.800 112.201 C 282.800 111.313,274.598 102.608,272.240 100.994 C 271.603 100.557,270.677 99.930,270.183 99.600 C 269.690 99.270,268.488 98.442,267.513 97.761 C 266.538 97.080,265.292 96.409,264.744 96.272 C 264.196 96.134,263.327 95.657,262.813 95.211 C 262.298 94.765,261.483 94.400,261.001 94.400 C 260.519 94.400,259.814 94.058,259.436 93.640 C 259.057 93.221,258.084 92.760,257.274 92.614 C 256.463 92.468,255.080 92.029,254.200 91.639 C 251.864 90.603,248.472 89.722,242.800 88.678 C 241.370 88.415,239.983 88.059,239.717 87.887 C 237.756 86.616,109.561 86.237,108.943 87.500 M222.200 120.742 C 226.215 120.944,228.179 121.215,229.140 121.701 C 229.877 122.074,231.137 122.498,231.940 122.644 C 232.743 122.789,234.068 123.244,234.884 123.654 C 235.700 124.064,236.631 124.400,236.953 124.400 C 237.275 124.400,238.073 124.850,238.727 125.400 C 239.381 125.950,240.086 126.400,240.294 126.400 C 241.130 126.400,247.198 133.482,247.202 134.463 C 247.204 134.758,247.500 135.540,247.860 136.200 C 248.463 137.304,248.817 138.698,250.045 144.800 C 250.773 148.419,250.709 156.642,249.932 159.200 C 249.564 160.410,249.082 162.120,248.860 163.000 C 248.192 165.649,247.020 168.591,246.186 169.710 C 245.754 170.291,244.950 171.418,244.400 172.215 C 242.735 174.628,238.130 178.522,235.670 179.597 C 235.158 179.820,234.492 180.251,234.190 180.553 C 233.887 180.856,232.955 181.231,232.120 181.386 C 231.284 181.541,230.274 181.961,229.875 182.319 C 229.476 182.677,227.766 183.189,226.075 183.458 C 224.384 183.726,222.280 184.133,221.400 184.363 C 219.676 184.813,151.385 184.999,150.233 184.557 C 149.207 184.163,149.273 121.430,150.300 120.832 C 151.106 120.362,213.113 120.284,222.200 120.742 M231.400 214.915 C 233.820 215.247,236.340 215.806,237.000 216.157 C 237.660 216.508,238.560 216.796,239.000 216.798 C 240.066 216.802,244.457 218.900,245.149 219.737 C 245.451 220.101,245.956 220.400,246.272 220.400 C 247.671 220.400,256.000 228.455,256.000 229.807 C 256.000 230.074,256.345 230.731,256.767 231.267 C 257.189 231.804,257.659 232.910,257.812 233.725 C 257.965 234.540,258.403 235.610,258.786 236.103 C 259.199 236.637,259.593 238.118,259.758 239.758 C 259.910 241.275,260.215 242.855,260.437 243.268 C 260.993 244.308,260.635 255.276,259.890 260.019 C 259.347 263.475,256.435 270.710,255.229 271.600 C 255.080 271.710,254.566 272.445,254.088 273.233 C 252.921 275.154,246.692 280.799,245.737 280.800 C 245.552 280.801,244.877 281.251,244.238 281.800 C 243.599 282.350,242.789 282.801,242.438 282.801 C 242.087 282.802,241.245 283.141,240.567 283.555 C 239.888 283.969,238.577 284.435,237.653 284.591 C 236.729 284.747,235.400 285.161,234.699 285.510 C 233.999 285.859,231.710 286.284,229.613 286.453 C 224.004 286.906,150.096 286.880,149.815 286.425 C 149.327 285.635,149.586 215.099,150.079 214.505 C 150.786 213.653,224.926 214.027,231.400 214.915 M399.000 343.601 C 398.860 344.041,398.598 345.796,398.417 347.501 C 398.236 349.205,397.713 351.410,397.253 352.400 C 396.794 353.390,396.414 354.519,396.409 354.908 C 396.404 355.298,395.703 357.098,394.851 358.908 C 394.000 360.719,393.167 362.650,393.002 363.200 C 392.836 363.750,392.363 364.522,391.950 364.916 C 391.538 365.309,391.197 365.849,391.194 366.116 C 391.191 366.382,390.556 367.500,389.784 368.600 C 389.012 369.700,387.660 371.680,386.781 373.000 C 383.097 378.531,372.621 387.835,366.663 390.867 C 365.942 391.234,365.116 391.819,364.827 392.167 C 364.538 392.515,364.069 392.800,363.784 392.800 C 363.498 392.800,361.555 393.610,359.464 394.600 C 357.374 395.590,355.374 396.400,355.020 396.400 C 354.666 396.400,353.307 396.850,352.000 397.400 C 350.693 397.950,349.014 398.400,348.268 398.400 C 345.588 398.400,343.200 398.897,343.200 399.454 C 343.200 399.910,347.880 400.000,371.600 400.000 L 400.000 400.000 400.000 371.400 C 400.000 344.873,399.857 340.900,399.000 343.601 M0.000 371.600 L 0.000 400.000 28.600 400.000 C 47.980 400.000,57.200 399.867,57.200 399.587 C 57.200 399.007,56.641 398.858,52.939 398.454 C 51.145 398.258,49.102 397.810,48.399 397.459 C 47.695 397.108,46.463 396.699,45.660 396.549 C 44.857 396.400,42.580 395.496,40.600 394.541 C 38.620 393.586,36.694 392.803,36.320 392.802 C 35.946 392.801,35.496 392.554,35.320 392.254 C 35.144 391.954,34.460 391.412,33.800 391.049 C 31.997 390.058,31.192 389.542,29.000 387.967 C 27.900 387.177,26.550 386.292,26.000 386.001 C 23.933 384.906,12.400 372.870,12.400 371.808 C 12.400 371.676,12.066 371.080,11.659 370.484 C 9.284 367.012,7.248 363.680,7.006 362.871 C 6.853 362.360,6.024 360.517,5.164 358.775 C 4.304 357.033,3.600 355.237,3.600 354.782 C 3.600 354.328,3.246 353.180,2.814 352.232 C 2.382 351.283,1.810 348.863,1.542 346.854 C 1.208 344.340,0.891 343.200,0.528 343.200 C 0.096 343.200,0.000 348.344,0.000 371.600 " stroke="none" fill="#fafafb" fill-rule="evenodd"></path><path id="path1" d="M57.200 0.568 C 57.200 1.207,56.250 1.447,52.200 1.833 C 50.660 1.980,48.923 2.343,48.341 2.639 C 47.758 2.936,46.455 3.364,45.445 3.590 C 43.002 4.137,35.224 7.918,31.769 10.238 C 30.246 11.260,28.717 12.210,28.370 12.348 C 26.035 13.282,13.993 25.348,12.441 28.309 C 12.134 28.895,11.244 30.281,10.464 31.388 C 8.768 33.793,4.163 42.939,3.804 44.615 C 3.665 45.267,3.121 46.970,2.595 48.400 C 2.069 49.830,1.525 52.395,1.385 54.100 C 1.198 56.386,0.983 57.200,0.566 57.200 C 0.079 57.200,0.000 77.189,0.000 200.200 C 0.000 318.374,0.092 343.200,0.528 343.200 C 0.891 343.200,1.208 344.340,1.542 346.854 C 1.810 348.863,2.382 351.283,2.814 352.232 C 3.246 353.180,3.600 354.328,3.600 354.782 C 3.600 355.237,4.304 357.033,5.164 358.775 C 6.024 360.517,6.853 362.360,7.006 362.871 C 7.248 363.680,9.284 367.012,11.659 370.484 C 12.066 371.080,12.400 371.676,12.400 371.808 C 12.400 372.870,23.933 384.906,26.000 386.001 C 26.550 386.292,27.900 387.177,29.000 387.967 C 31.192 389.542,31.997 390.058,33.800 391.049 C 34.460 391.412,35.144 391.954,35.320 392.254 C 35.496 392.554,35.946 392.801,36.320 392.802 C 36.694 392.803,38.620 393.586,40.600 394.541 C 42.580 395.496,44.857 396.400,45.660 396.549 C 46.463 396.699,47.697 397.109,48.404 397.462 C 49.110 397.814,51.244 398.269,53.144 398.472 C 55.319 398.705,56.765 399.057,57.044 399.421 C 57.694 400.268,343.200 400.301,343.200 399.454 C 343.200 398.897,345.588 398.400,348.268 398.400 C 349.014 398.400,350.693 397.950,352.000 397.400 C 353.307 396.850,354.666 396.400,355.020 396.400 C 355.374 396.400,357.374 395.590,359.464 394.600 C 361.555 393.610,363.498 392.800,363.784 392.800 C 364.069 392.800,364.538 392.515,364.827 392.167 C 365.116 391.819,365.942 391.234,366.663 390.867 C 372.621 387.835,383.097 378.531,386.781 373.000 C 387.660 371.680,389.012 369.700,389.784 368.600 C 390.556 367.500,391.191 366.382,391.194 366.116 C 391.197 365.849,391.538 365.309,391.950 364.916 C 392.363 364.522,392.836 363.750,393.002 363.200 C 393.167 362.650,394.000 360.719,394.851 358.908 C 395.703 357.098,396.400 355.337,396.400 354.996 C 396.400 354.655,396.850 353.307,397.400 352.000 C 397.950 350.693,398.404 348.854,398.410 347.912 C 398.422 345.710,399.038 343.054,399.579 342.874 C 400.128 342.691,400.176 57.200,399.627 57.200 C 399.101 57.200,398.829 56.156,398.415 52.546 C 398.217 50.816,397.686 48.590,397.236 47.600 C 396.786 46.610,396.414 45.474,396.409 45.075 C 396.400 44.332,392.462 35.963,391.949 35.596 C 391.792 35.484,391.541 34.906,391.392 34.312 C 391.243 33.719,390.859 33.015,390.538 32.748 C 390.217 32.482,389.695 31.709,389.379 31.032 C 388.741 29.662,386.240 26.138,384.901 24.719 C 384.423 24.214,382.721 22.384,381.116 20.654 C 379.512 18.924,376.857 16.404,375.215 15.054 C 372.146 12.531,371.856 12.327,369.552 11.052 C 368.809 10.640,367.906 10.046,367.546 9.731 C 366.638 8.937,356.595 4.056,355.277 3.769 C 354.685 3.639,353.319 3.172,352.241 2.730 C 351.121 2.271,348.552 1.767,346.241 1.553 C 343.502 1.300,342.057 0.989,341.756 0.590 C 341.096 -0.287,57.200 -0.308,57.200 0.568 M227.917 87.195 C 234.141 87.403,239.451 87.714,239.717 87.887 C 239.983 88.059,241.370 88.415,242.800 88.678 C 248.472 89.722,251.864 90.603,254.200 91.639 C 255.080 92.029,256.463 92.468,257.274 92.614 C 258.084 92.760,259.057 93.221,259.436 93.640 C 259.814 94.058,260.519 94.400,261.001 94.400 C 261.483 94.400,262.298 94.765,262.813 95.211 C 263.327 95.657,264.196 96.134,264.744 96.272 C 265.292 96.409,266.538 97.080,267.513 97.761 C 268.488 98.442,269.690 99.270,270.183 99.600 C 270.677 99.930,271.603 100.557,272.240 100.994 C 274.598 102.608,282.800 111.313,282.800 112.201 C 282.800 112.462,283.160 113.002,283.600 113.400 C 284.040 113.798,284.400 114.338,284.400 114.600 C 284.400 114.862,284.752 115.395,285.182 115.784 C 285.613 116.174,286.082 117.271,286.224 118.222 C 286.367 119.173,286.825 120.260,287.242 120.638 C 287.699 121.052,288.000 121.857,288.000 122.666 C 288.000 123.513,288.295 124.260,288.800 124.693 C 289.315 125.133,289.600 125.873,289.600 126.765 C 289.600 128.516,290.368 132.772,290.854 133.712 C 292.370 136.645,291.342 155.144,289.365 160.519 C 289.025 161.444,288.488 163.125,288.172 164.256 C 287.856 165.387,287.329 166.827,287.001 167.456 C 286.673 168.085,286.404 168.893,286.402 169.251 C 286.401 169.609,286.117 170.137,285.771 170.424 C 285.425 170.711,284.750 171.658,284.271 172.527 C 281.950 176.741,281.799 176.935,277.368 181.367 C 273.200 185.536,270.287 188.076,269.222 188.470 C 268.815 188.621,268.365 188.934,268.221 189.166 C 268.078 189.397,266.665 190.236,265.080 191.028 C 263.496 191.821,261.930 192.700,261.600 192.983 C 261.270 193.265,260.471 193.665,259.825 193.873 C 258.251 194.378,258.085 195.111,259.472 195.428 C 263.385 196.322,271.865 199.408,272.697 200.240 C 273.005 200.548,273.559 200.800,273.929 200.801 C 274.298 200.801,275.590 201.519,276.800 202.396 C 278.010 203.273,279.383 204.160,279.852 204.367 C 283.075 205.792,293.518 218.363,295.024 222.631 C 295.263 223.309,295.760 224.294,296.129 224.820 C 296.498 225.347,296.801 226.143,296.801 226.589 C 296.802 227.035,297.149 227.967,297.571 228.659 C 297.993 229.352,298.469 230.792,298.628 231.859 C 298.787 232.927,299.150 234.160,299.434 234.600 C 299.719 235.040,300.154 237.380,300.402 239.800 C 300.650 242.220,301.124 244.795,301.455 245.522 C 302.411 247.618,302.366 262.932,301.398 264.804 C 301.011 265.552,300.614 267.342,300.516 268.782 C 300.418 270.222,300.007 272.300,299.602 273.400 C 299.197 274.500,298.753 275.940,298.614 276.600 C 298.285 278.170,296.764 282.035,296.175 282.800 C 295.921 283.130,295.531 283.946,295.307 284.614 C 295.084 285.282,293.709 287.575,292.251 289.711 C 290.793 291.846,289.600 293.660,289.600 293.741 C 289.600 294.064,281.775 301.728,280.821 302.340 C 280.259 302.699,279.620 303.132,279.400 303.302 C 279.180 303.471,278.300 304.147,277.445 304.805 C 276.590 305.462,275.673 306.000,275.407 306.000 C 275.141 306.000,274.598 306.360,274.200 306.800 C 273.802 307.240,273.256 307.600,272.987 307.600 C 272.718 307.600,272.282 307.861,272.017 308.180 C 271.752 308.498,270.875 308.971,270.068 309.230 C 269.261 309.489,268.330 309.932,268.000 310.213 C 267.670 310.495,266.590 310.941,265.600 311.204 C 264.610 311.467,263.710 311.822,263.600 311.992 C 263.316 312.432,258.440 314.334,256.787 314.650 C 256.024 314.796,254.770 315.224,254.000 315.602 C 253.230 315.979,251.553 316.392,250.272 316.518 C 248.992 316.644,247.732 316.918,247.472 317.127 C 246.968 317.531,246.136 317.687,240.800 318.378 C 238.930 318.621,237.040 319.040,236.600 319.309 C 235.321 320.094,109.503 320.247,108.853 319.464 C 108.289 318.785,108.378 88.653,108.943 87.500 C 109.339 86.691,205.443 86.445,227.917 87.195 M150.300 120.832 C 149.273 121.430,149.207 184.163,150.233 184.557 C 151.385 184.999,219.676 184.813,221.400 184.363 C 222.280 184.133,224.384 183.726,226.075 183.458 C 227.766 183.189,229.476 182.677,229.875 182.319 C 230.274 181.961,231.284 181.541,232.120 181.386 C 232.955 181.231,233.887 180.856,234.190 180.553 C 234.492 180.251,235.158 179.820,235.670 179.597 C 238.130 178.522,242.735 174.628,244.400 172.215 C 244.950 171.418,245.754 170.291,246.186 169.710 C 247.020 168.591,248.192 165.649,248.860 163.000 C 249.082 162.120,249.564 160.410,249.932 159.200 C 250.709 156.642,250.773 148.419,250.045 144.800 C 248.817 138.698,248.463 137.304,247.860 136.200 C 247.500 135.540,247.204 134.758,247.202 134.463 C 247.198 133.482,241.130 126.400,240.294 126.400 C 240.086 126.400,239.381 125.950,238.727 125.400 C 238.073 124.850,237.275 124.400,236.953 124.400 C 236.631 124.400,235.700 124.064,234.884 123.654 C 234.068 123.244,232.743 122.789,231.940 122.644 C 231.137 122.498,229.877 122.074,229.140 121.701 C 226.733 120.484,152.306 119.663,150.300 120.832 M150.079 214.505 C 149.586 215.099,149.327 285.635,149.815 286.425 C 150.096 286.880,224.004 286.906,229.613 286.453 C 231.710 286.284,233.999 285.859,234.699 285.510 C 235.400 285.161,236.729 284.747,237.653 284.591 C 238.577 284.435,239.888 283.969,240.567 283.555 C 241.245 283.141,242.087 282.802,242.438 282.801 C 242.789 282.801,243.599 282.350,244.238 281.800 C 244.877 281.251,245.552 280.801,245.737 280.800 C 246.692 280.799,252.921 275.154,254.088 273.233 C 254.566 272.445,255.080 271.710,255.229 271.600 C 256.435 270.710,259.347 263.475,259.890 260.019 C 260.635 255.276,260.993 244.308,260.437 243.268 C 260.215 242.855,259.910 241.275,259.758 239.758 C 259.593 238.118,259.199 236.637,258.786 236.103 C 258.403 235.610,257.965 234.540,257.812 233.725 C 257.659 232.910,257.189 231.804,256.767 231.267 C 256.345 230.731,256.000 230.074,256.000 229.807 C 256.000 228.455,247.671 220.400,246.272 220.400 C 245.956 220.400,245.451 220.101,245.149 219.737 C 244.457 218.900,240.066 216.802,239.000 216.798 C 238.560 216.796,237.660 216.508,237.000 216.157 C 233.556 214.326,151.521 212.767,150.079 214.505 " stroke="none" fill="#533b7b" fill-rule="evenodd"></path></g></svg>