<svg version="1.1" id="Layer_1" xmlns="http://www.w3.org/2000/svg" x="0" y="0" viewBox="0 0 630 630" xml:space="preserve"><style>.st1{fill:#fff}.st2{fill:#99d7dc}</style><path id="XMLID_1_" d="M549.8 144.6L345.1 26.4c-9.1-4.9-20.7-7.9-32.3-7.9s-23.8 2.4-32.3 7.9L74.7 144.6c-17.7 10.4-32.3 35.3-32.3 56v237c0 20.7 14.6 45.7 32.3 56L280 612.4c17.7 10.4 46.9 10.4 64.6 0l205.3-118.8c17.7-10.4 32.3-35.3 32.3-56V201.3c.5-20.8-14.1-46.3-32.4-56.7z" fill="#009ca8" stroke="#fff" stroke-width="10"/><path class="st1" d="M261.3 403.3s-13.2 7.7 9.4 10.3c27.4 3.1 41.4 2.7 71.5-3 0 0 7.9 5 19 9.3-67.6 28.9-153-1.8-99.9-16.6m-8.2-37.8s-14.8 11 7.8 13.3c29.2 3 52.3 3.3 92.3-4.4 0 0 5.5 5.6 14.2 8.7-81.8 23.8-172.8 1.8-114.3-17.6"/><path class="st2" d="M322.7 301.3c16.7 19.2-4.4 36.4-4.4 36.4s42.3-21.8 22.9-49.2c-18.1-25.5-32.1-38.2 43.3-81.9 0 .1-118.2 29.7-61.8 94.7"/><path class="st1" d="M412.1 431.3s9.8 8-10.8 14.3c-39 11.8-162.4 15.4-196.7.5-12.3-5.4 10.8-12.8 18.1-14.4 7.6-1.6 11.9-1.3 11.9-1.3-13.7-9.7-88.6 19-38 27.2 137.9 22.2 251.3-10.2 215.5-26.3m-144.4-105s-62.8 14.9-22.2 20.3c17.1 2.3 51.2 1.8 83-.9 26-2.2 52.1-6.9 52.1-6.9s-9.2 3.9-15.8 8.4c-63.7 16.8-186.9 9-151.4-8.2 29.9-14.3 54.3-12.7 54.3-12.7m112.6 62.9c64.8-33.7 34.8-66 13.9-61.7-5.1 1.1-7.4 2-7.4 2s1.9-3 5.5-4.3c41.4-14.5 73.2 42.9-13.4 65.6.1.1 1.1-.8 1.4-1.6"/><path class="st2" d="M341.2 136.2s35.9 35.9-34 91.1c-56.1 44.3-12.8 69.5 0 98.4-32.7-29.5-56.7-55.5-40.6-79.7 23.6-35.6 89.1-52.8 74.6-109.8"/><path class="st1" d="M274.1 480.5c62.2 4 157.7-2.2 160-31.6 0 0-4.3 11.2-51.4 20-53.1 10-118.6 8.8-157.4 2.4-.1 0 7.9 6.6 48.8 9.2"/></svg>