<svg xmlns="http://www.w3.org/2000/svg" width="400" height="347.445"><g fill-rule="evenodd"><path d="M215.986 1.408c-.685.186-.328.216 1.043.089 1.146-.107 2.15-.253 2.23-.324.258-.233-2.201-.056-3.273.235m-8.862 1.72l-.869.278.869.029c.478.016 1.104-.122 1.39-.307.664-.429-.05-.429-1.39 0m87.924.289c.286.177.912.426 1.39.554.604.162.71.134.347-.09-.286-.177-.912-.426-1.39-.554-.604-.162-.71-.134-.347.09m-97.133 1.796l-.695.299.695-.011c.382-.005 1.086-.135 1.564-.288l.869-.278-.869-.011c-.478-.005-1.182.125-1.564.289m-4.344 1.047c-.367.241-.161.276.695.119 1.499-.275 1.781-.473.666-.466-.462.003-1.074.159-1.361.347m-6.169 1.744c-1.106.444-.973.708.174.346 1.961-.62 2.019-.649 1.303-.655-.382-.003-1.047.136-1.477.309m-5.299 1.727c-.691.446.177.446 1.216 0l.695-.299-.695-.019c-.382-.011-.93.132-1.216.318m134.491.347c1.189.381 2.102.381 1.217 0-.383-.164-1.008-.294-1.39-.288-.559.008-.525.065.173.288m-139.531 1.39c-.438.189-.502.299-.173.299.286 0 .834-.134 1.216-.299.438-.188.502-.298.174-.298-.287 0-.834.134-1.217.298m145.121.125c.079.069.614.23 1.187.358.761.171.902.138.521-.119-.469-.318-2.057-.54-1.708-.239m9.18 2.655c.382.165.93.299 1.216.299.329 0 .265-.11-.173-.299-.383-.164-.93-.298-1.217-.298-.328 0-.264.11.174.298m-166.985 1.814c-.669.199-1.052.422-.852.496.201.074.983-.091 1.738-.368 1.573-.576.934-.668-.886-.128m173.096.049c.079.069.614.23 1.187.358.761.17.902.138.521-.119-.469-.318-2.057-.54-1.708-.239m6.921 2.134c1.646.634 2.555.623 1.09-.014-.643-.279-1.425-.495-1.738-.481-.312.015-.021.237.648.495M155.38 19.838c-.458.183-.746.42-.639.527.106.106.637-.047 1.18-.341 1.091-.592.759-.706-.541-.186m-4.033 2.037c-.765.362-1.268.67-1.119.686.408.042 2.683-.95 2.683-1.171 0-.258.016-.263-1.564.485m-5.908 2.638c-.869.418-.898.466-.174.289.985-.24 2.092-.804 1.564-.797-.191.003-.817.231-1.39.508m216.073.205c.108.489-1.631.959-10.165 2.742a1754.07 1754.07 0 0 0-14.77 3.177c-4.396.968-9.401 2.053-11.121 2.412-1.72.359-4.613.98-6.429 1.379l-6.255 1.377c-1.625.357-4.245.919-5.822 1.248-1.576.329-2.867.743-2.867.92 0 .178 2.477 4.022 5.505 8.542a5122.8 5122.8 0 0 1 6.424 9.61 51.475 51.475 0 0 0 1.186 1.738c.24.314 5.365 7.977 37.424 55.951 5.365 8.028 9.879 14.752 10.033 14.944.153.191 2.343 3.448 4.867 7.239 2.523 3.79 4.738 7.106 4.923 7.368.763 1.085.127.998-7.807-1.07-1.816-.473-6.273-1.573-9.905-2.444a3781.23 3781.23 0 0 1-16.333-3.972c-5.352-1.314-13.953-3.422-19.114-4.686-5.161-1.263-13.215-3.238-17.898-4.389-13.315-3.273-26-6.375-37.532-9.179-5.83-1.417-11.08-2.737-11.667-2.933-1.546-.517-2.232-.44-2.247.252-.013.622-.375 5.646-1.006 13.987-.196 2.581-.595 8.211-.888 12.511-.599 8.783-1.994 28.416-2.804 39.444-.657 8.939-2.845 39.616-3.285 46.047-.902 13.181-1.097 15.924-1.517 21.373-.251 3.249-.36 5.986-.242 6.081.226.184 1.465 2.016 1.763 2.607.096.191.779 1.286 1.517 2.433 2.659 4.132 4.732 7.417 9.099 14.422 2.442 3.918 5.032 8.062 5.754 9.209a1218.32 1218.32 0 0 1 3.258 5.213c1.07 1.72 3.031 4.848 4.359 6.951 1.327 2.102 2.518 4.057 2.645 4.344.128.286.426.755.664 1.042.238.287 1.441 2.164 2.673 4.17 4.41 7.181 7.012 11.34 8.916 14.249 1.064 1.625 2.25 3.501 2.636 4.17 1.007 1.745 2.505 4.159 4.717 7.598a797.358 797.358 0 0 1 8.4 13.423c1.704 2.795 3.008 4.175 2.401 2.54-.194-.521.049-3.028.7-7.227a1848.52 1848.52 0 0 0 1.687-11.121c.38-2.58 1.082-7.194 1.561-10.252.478-3.058 1.021-6.577 1.207-7.819.185-1.243.662-4.37 1.06-6.951.397-2.58.947-6.255 1.223-8.166a463.75 463.75 0 0 1 1.191-7.646c.38-2.294.997-6.36 1.372-9.036.374-2.676 1.249-8.462 1.943-12.858.695-4.396 1.481-9.479 1.748-11.295.267-1.815.727-4.865 1.023-6.776.296-1.912.77-5.039 1.052-6.951.283-1.911.66-4.413.84-5.56.179-1.147.645-4.196 1.034-6.777a7080.142 7080.142 0 0 1 3.169-20.851c.166-1.051.526-3.37.801-5.153.275-1.783.636-3.36.803-3.503 11.986-10.314 19.909-17.773 28.473-26.804 6.033-6.362 9.032-9.737 14.351-16.148 5.597-6.746 18.469-25.395 18.469-26.759 0-.52 3.242-5.357 3.547-5.292.207.043.524-.468.706-1.137.181-.668.432-1.294.558-1.39.386-.295 1.444-2.462 1.444-2.957 0-.258.21-.679.467-.935.256-.257.821-1.558 1.256-2.892.434-1.334.982-2.582 1.219-2.773.236-.191.517-.817.625-1.39.336-1.788 1.054-4.163 1.314-4.344.314-.221 1.722-5.337 1.722-6.26 0-.38.129-.691.287-.691.291 0 .919-2.673 1.51-6.429.552-3.51.768-22.186.295-25.543-.436-3.088-1.213-6.634-1.715-7.819-.162-.382-.659-1.868-1.105-3.302-.446-1.433-.908-2.684-1.025-2.78-.118-.095-.592-.951-1.055-1.901-.462-.95-1.114-2.005-1.449-2.346-.334-.34-.608-.849-.608-1.131 0-.283-.391-.77-.869-1.083-.478-.313-.869-.739-.869-.946 0-.207-.443-.854-.985-1.437-2.271-2.443-5.548-5.66-6.922-6.794-.81-.669-1.904-1.584-2.43-2.034-.526-.449-1.379-1.035-1.896-1.303-.516-.267-1.063-.682-1.216-.921-.325-.508-1.411-1.237-2.276-1.527-.335-.112-.608-.335-.608-.495 0-.16-.701-.601-1.558-.98-.857-.379-2.084-1.09-2.726-1.58-.643-.49-1.416-.891-1.719-.891-.303 0-.757-.202-1.01-.448-.516-.502-2.82-1.637-3.325-1.637-.181 0-.69-.313-1.131-.695-.874-.759-1.788-.927-1.65-.304m-223.625 3.549c-.904.413-1.647.871-1.651 1.018-.003.146.775-.13 1.731-.614.956-.485 1.738-.956 1.738-1.049 0-.203.17-.263-1.818.645m-5.525 2.893c-.436.529-.403.54.392.127 1.165-.605 1.253-.705.622-.705-.295 0-.751.26-1.014.578m-2.8 1.519c-.704.372-1.373.826-1.485 1.008-.162.261 2.658-1.123 3.258-1.6.46-.365-.682.016-1.773.592m-3.258 1.889c-.371.28-.509.515-.306.521.202.006.671-.219 1.042-.499.371-.281.509-.516.307-.522-.202-.006-.672.219-1.043.5m-10.839 6.48c-.621.398-1.13.79-1.13.872 0 .154 1.527-.625 2.433-1.242 1.004-.683-.185-.346-1.303.37m-8.159 5.259c-1.477.981-2.626 1.843-2.553 1.915.072.072 1.425-.739 3.006-1.804 1.581-1.064 2.73-1.926 2.553-1.915-.176.011-1.529.823-3.006 1.804m-4.613 3.206c-.764.471-1.281.861-1.149.867.301.014 2.713-1.397 2.713-1.587 0-.226-.107-.177-1.564.72m-5.88 4.266a39.272 39.272 0 0 0-2.402 1.941l-1.101.985 1.564-1.051c1.805-1.214 3.744-2.8 3.444-2.818-.112-.007-.79.418-1.505.943m-5.42 4.173c-.864.715-1.871 1.468-2.239 1.673-.367.205-.74.589-.828.853-.154.463 1.21-.533 3.768-2.749 1.742-1.51 1.17-1.328-.701.223m-4.908 3.896c-.451.376-.649.688-.44.695.209.006.664-.301 1.01-.684.805-.889.491-.895-.57-.011m-6.836 5.933c-.419.389-.761.808-.761.929 0 .122.391-.146.869-.595.815-.766 1.017-1.043.76-1.043-.059 0-.45.319-.868.709m-7.048 6.68c-2.372 2.344-4.537 4.573-4.811 4.952-.275.38 1.719-1.496 4.431-4.169 2.711-2.674 4.929-4.902 4.929-4.953 0-.281-.62.287-4.549 4.17m-8.499 9.032l-1.374 1.477 1.477-1.374c.812-.756 1.477-1.42 1.477-1.477 0-.263-.303 0-1.58 1.374m-4.448 5.066c-.633.7-.773 1.266-.229.93.362-.224 1.165-1.565.936-1.565-.072 0-.39.286-.707.635m-1.791 2.145c-.348.384-.555.777-.459.873.095.095.458-.141.806-.526.348-.384.555-.777.459-.873-.095-.095-.458.141-.806.526m-4.518 6.603c-.297.573-.461 1.042-.365 1.042.095 0 .416-.469.712-1.042.297-.574.461-1.043.366-1.043-.096 0-.417.469-.713 1.043m-22.079 30.426c-.42.679-.704 1.294-.631 1.367.073.073.486-.483.919-1.234.98-1.704.749-1.81-.288-.133m354.408 2.738c-.283.861-.387 1.487-.232 1.391.31-.192 1.059-2.644.867-2.837-.066-.065-.351.586-.635 1.446M28.391 133.28c-.318.666-.506 1.212-.419 1.212.238 0 1.293-2.128 1.134-2.287-.075-.075-.397.408-.715 1.075M24.58 142c-.139.139-.249.579-.243.977.01.669.039.676.372.103.389-.668.29-1.499-.129-1.08m355.481 2.91c-.784 1.96-.664 2.252.162.391.373-.84.616-1.589.54-1.665-.075-.076-.391.498-.702 1.274m-361.98 14.057c-.197.516-.346 1.203-.333 1.525.014.322.249-.027.523-.774.274-.748.424-1.435.333-1.526-.091-.091-.327.258-.523.775m355.269 3.099c-.399 1.081-.659 1.965-.578 1.965.261 0 1.537-3.225 1.417-3.583-.063-.191-.441.537-.839 1.618m-356.956 1.878c-.386.754-.821 2.52-.621 2.52.081 0 .388-.704.681-1.564.54-1.585.509-2.067-.06-.956m5.5 19.894C6.597 198.94 5.447 199.983 5.119 199.044c-.084-.239-.269.543-.411 1.738-.142 1.195-.373 2.172-.514 2.172-.249 0-.642 1.674-1.47 6.255-.225 1.243-.516 2.337-.647 2.433-.275.201-.874 3.394-1.435 7.646-1.366 10.358-.372 31.972 1.47 31.972.176 0 .321.23.321.51 0 .49 1.319 3.3 1.719 3.66.105.096.7 1.19 1.322 2.433 1.087 2.174 3.216 5.293 5.097 7.466.493.571.897 1.21.897 1.422 0 .211.391.561.869.779.478.218.869.599.869.847 0 .496 5.05 5.472 5.554 5.472.173 0 .519.274.769.608.826 1.107 7.093 5.646 7.796 5.647.215 0 .584.232.82.516.236.284 1.154.87 2.041 1.303.887.433 1.805.969 2.04 1.191.236.222 1.174.685 2.086 1.029.911.345 1.859.824 2.107 1.065.247.241 1.107.599 1.911.795.804.197 2.009.65 2.678 1.007.669.357 2.154.913 3.301 1.235 1.147.322 2.555.791 3.128 1.041.573.251 2.215.727 3.649 1.059 3.128.724 6.042 1.476 7.496 1.934.587.185 1.725.336 2.529.336.803 0 2.302.296 3.329.657 1.028.361 3.409.932 5.291 1.268 1.883.336 3.501.726 3.597.866.095.141 1.112.436 2.258.657 2.652.51 9.407 2.057 10.774 2.467.573.172 1.746.41 2.606.528.86.118 1.877.351 2.259.519.84.368 7.501 1.726 8.465 1.726.378 0 .739.148.802.328.064.18 1.524.587 3.244.904 1.72.317 3.831.811 4.691 1.098.861.286 2.899.73 4.531.986 1.632.255 3.665.7 4.518.988.853.288 3.193.853 5.2 1.256s3.884.827 4.17.941c.287.115.9.272 1.364.349.463.077 1.088.269 1.39.426.301.157 1.916.486 3.589.731 1.672.245 3.04.577 3.04.737 0 .161.393.292.874.292.48 0 1.145.142 1.477.316.332.174 1.814.485 3.293.69 1.479.205 2.965.53 3.302.722.336.192 2.304.664 4.373 1.049 2.069.386 4.029.845 4.357 1.02.627.335 5.569 1.399 7.78 1.674.717.089 1.304.328 1.304.531s.082.286.183.185c.102-.101 1.079.043 2.172.321 1.094.277 3.003.658 4.243.846 1.24.188 2.334.458 2.433.6.098.142 2.097.619 4.442 1.061 2.345.442 4.339.925 4.432 1.075.092.149 1.692.531 3.555.848 1.863.317 3.779.743 4.256.947.821.349 2.763.767 7.994 1.721 1.242.227 2.337.52 2.432.651.096.132 2.051.591 4.344 1.02 2.294.429 4.327.907 4.518 1.061.361.292 4.34 1.16 7.211 1.574.908.131 1.651.37 1.651.53 0 .161.586.379 1.303.485 2.973.44 7.594 1.366 8.08 1.619.287.149 2.163.598 4.17.997s3.962.865 4.344 1.035c.859.383 5.279 1.303 7.733 1.61 1.003.125 1.824.344 1.824.486 0 .331 2.216.869 5.734 1.392 1.53.228 2.937.539 3.128.691.191.152 2.04.612 4.108 1.02 2.067.409 4.022.878 4.344 1.041.805.41 7.326 1.764 8.494 1.764.523 0 .952.156.952.347 0 .192.46.348 1.022.348s1.104.133 1.205.297c.101.163 1.635.493 3.409.732 1.774.24 3.386.566 3.581.724.196.158 1.995.613 3.997 1.013 2.002.399 3.953.881 4.336 1.072.382.19 1.868.567 3.301.836 1.434.27 3.301.665 4.15.879 1.814.456 3.806.342 2.627-.151-.382-.16-1.521-.659-2.53-1.109-1.009-.45-1.92-.818-2.023-.818-.204 0-17.615-6.845-20.469-8.047-2.536-1.068-2.666-1.12-8.167-3.261-2.771-1.079-8.01-3.137-11.642-4.575-3.631-1.437-11.138-4.404-16.681-6.593-5.543-2.189-11.564-4.589-13.38-5.332a622.21 622.21 0 0 0-8.166-3.246 5002.354 5002.354 0 0 1-19.462-7.68c-8.028-3.182-17.411-6.896-20.851-8.252a2409.15 2409.15 0 0 1-10.773-4.265 137.543 137.543 0 0 1-3.476-1.424c-.573-.254-3.349-1.35-6.168-2.435-2.82-1.085-5.126-2.114-5.126-2.286 0-.365-.274-.282 4.865-1.481 4.555-1.063 4.213-.975 13.032-3.341 3.632-.975 7.933-2.17 9.557-2.658 6.762-2.027 7.503-2.26 8.167-2.57.382-.178 1.946-.702 3.475-1.164 1.529-.462 4.344-1.411 6.256-2.109a268.177 268.177 0 0 1 4.344-1.557c2.4-.798 10.813-4.117 17.028-6.72 9.527-3.988 25.03-11.407 25.016-11.97-.006-.228-3.858-3.064-10.971-8.078-1.22-.86-4.203-2.971-6.63-4.692-2.426-1.72-5.283-3.737-6.348-4.482a749.728 749.728 0 0 1-6.279-4.489 490.168 490.168 0 0 0-7.125-5.048c-1.529-1.052-3.327-2.334-3.996-2.85-.669-.515-4.501-3.25-8.515-6.077a1481.332 1481.332 0 0 1-8.688-6.149c-3.378-2.454-15.459-11.05-21.199-15.084a1141.466 1141.466 0 0 1-6.603-4.675c-1.338-.959-4.778-3.397-7.645-5.417-2.867-2.021-5.995-4.256-6.951-4.967-5.377-4.001-11.745-8.294-12.101-8.157-.227.087-1.376 1.603-2.555 3.368a670.694 670.694 0 0 1-4.66 6.86 2667.97 2667.97 0 0 0-4.775 6.95 6471.736 6471.736 0 0 1-4.524 6.603c-4.386 6.39-6.812 9.935-8.918 13.032-6.682 9.827-11.154 16.337-12.564 18.292-.639.886-1.162 1.772-1.162 1.969 0 .197-.125.411-.277.475-.277.115-.894.988-5.121 7.24a1384.048 1384.048 0 0 1-3.898 5.734l-4.76 6.951-5.356 7.819-8.575 12.511a2023.828 2023.828 0 0 1-4.426 6.429 581.752 581.752 0 0 0-4.521 6.683c-1.56 2.338-2.956 4.131-3.103 3.984-.148-.148-.587-4.093-.976-8.769-.39-4.676-.853-9.83-1.028-11.455-.176-1.625-.49-5.456-.697-8.514-.208-3.059-.526-6.499-.706-7.646-.181-1.147-.651-6.307-1.046-11.468a1202.1 1202.1 0 0 0-1.417-16.855c-.385-4.11-.845-9.27-1.021-11.468a953.642 953.642 0 0 0-.852-9.731l-.872-9.383a1087.04 1087.04 0 0 1-.88-10.426c-.81-10.147-1.341-14.702-1.728-14.815-.191-.056-7.463 6.923-16.16 15.508m-7.794-13.7c-.128.509-.166.993-.084 1.075.082.082.254-.268.381-.777.128-.51.166-.993.084-1.075-.082-.082-.254.267-.381.777m-2.4 6.636c-.127.127-.222.557-.21.956.021.665.049.656.355-.109.341-.851.27-1.262-.145-.847m-1.911 6.255c-.236.88-.367 1.661-.291 1.737.075.075.336-.576.58-1.447.244-.871.375-1.653.291-1.737-.084-.084-.345.568-.58 1.447m-1.906 5.462c-.131.34-.228.88-.215 1.199.014.384.135.296.357-.26.184-.461.281-1.001.216-1.198-.066-.198-.227-.082-.358.259m352.803 5.928c-.311.871-.51 1.584-.443 1.584.294 0 1.213-2.182 1.116-2.65-.059-.285-.362.195-.673 1.066m-1.178 2.714c-.844 2.337-1.196 3.519-1.079 3.636.076.076.459-.808.849-1.966.578-1.71.783-3.198.23-1.67m-7.049 18.228c-.217.706-.337 1.342-.267 1.413.07.07.316-.441.545-1.135.229-.695.349-1.331.266-1.414-.082-.082-.327.429-.544 1.136m-2.095 5.643c-.226.647-.336 1.251-.245 1.342.232.232.93-1.692.779-2.146-.068-.205-.309.157-.534.804m-6.489 16.702c-.131.411-.159.826-.064.922.096.095.281-.163.411-.574.131-.411.159-.826.064-.921-.096-.096-.281.162-.411.573m-1.873 4.557c-.214.614-.328 1.177-.254 1.252.074.074.31-.368.524-.982.215-.614.329-1.177.255-1.252-.075-.074-.311.368-.525.982m-6.603 17.077c-.344 1.033-.332 1.072.14.455.284-.371.517-.88.517-1.13 0-.775-.263-.505-.657.675m-1.577 3.76c-.322.985-.523 1.853-.446 1.929.076.077.4-.668.719-1.656.318-.987.519-1.855.446-1.928-.074-.074-.398.671-.719 1.655m-1.878 5.015c-.248.764-.526 1.624-.617 1.911-.091.287.163-.076.565-.806.401-.73.679-1.59.617-1.912-.065-.337-.303.003-.565.807m-1.97 4.691c-.131.411-.159.826-.064.921.096.096.281-.162.411-.573.131-.411.159-.826.064-.921-.096-.096-.281.162-.411.573m-2.74 7.165c-.727 2.132-.496 2.363.294.294.334-.876.531-1.67.437-1.765-.095-.094-.424.568-.731 1.471m-1.678 4.486c-.107.378-.301.999-.43 1.381-.13.383.019.256.33-.281s.505-1.159.431-1.381c-.075-.223-.223-.096-.331.281m-1.841 4.571c-.294.703-.489 1.415-.433 1.581.055.166.364-.409.686-1.278.7-1.89.507-2.121-.253-.303m-4.609 12.015c-.592 1.636-.51 2.079.117.634.284-.655.47-1.33.413-1.502-.057-.171-.296.219-.53.868m-2.24 5.63c-.322.869-.517 1.581-.434 1.581.243 0 1.232-2.525 1.121-2.86-.056-.166-.365.409-.687 1.279m-1.333 3.193c-.191.504-.284.981-.205 1.06.079.079.31-.334.513-.917.452-1.296.179-1.423-.308-.143m-6.837 17.663c-.231.752-.351 1.436-.267 1.52.24.24.907-1.738.791-2.343-.058-.299-.294.072-.524.823m-3.532 8.961c-.551 1.471-.78 2.346-.615 2.346.09 0 .404-.704.697-1.564.535-1.572.465-2.244-.082-.782m-2.778 7.27a6.4 6.4 0 0 1-.24 1.216c-.19.603-.179.604.197.017.218-.34.326-.887.24-1.216-.141-.538-.161-.54-.197-.017" fill="#980f14"/><path d="M259.079.322l-2.433.199 1.113.608c.611.335 1.415.609 1.786.609 1.011 0 6.976 1.601 9.49 2.548 26.323 9.908 29.388 35.318 7.915 65.604-9.187 12.957-23.52 27.284-38.899 38.883a646.132 646.132 0 0 0-4.689 3.555c-4.491 3.623-22.253 15.061-28.67 18.461-.861.456-3.05 1.652-4.866 2.657-3.692 2.044-16.149 8.257-20.156 10.053-5.908 2.649-18.166 7.624-20.157 8.181-.477.134-1.338.453-1.911.709-1.337.597-12.454 4.225-15.638 5.103-52.295 14.419-88.83 9.041-98.96-14.568-3.015-7.028-2.385-19.358 1.436-28.067 1.98-4.516 3.25-7.151 4.821-10.008 2.154-3.916 2.263-4.98.233-2.277a756.084 756.084 0 0 1-4.941 6.434c-1.95 2.516-3.545 4.732-3.545 4.923 0 .192-.121.401-.269.464-.235.102-3.347 4.282-4.013 5.39-.135.225-.007 5.777.285 12.337.291 6.561.747 17.061 1.013 23.334.266 6.273.576 11.499.69 11.612.273.273 4.468.631 14.978 1.278 4.779.294 10.565.698 12.859.897 4.279.371 10.591.802 20.677 1.41 3.154.191 7.768.5 10.252.687 2.485.188 8.193.575 12.685.86a1245.3 1245.3 0 0 1 13.079.896l4.912.377 8.294-3.986a6514.56 6514.56 0 0 0 14.202-6.847c3.249-1.573 7.315-3.526 9.035-4.338 4.961-2.344 9.686-4.6 15.118-7.218 9.894-4.77 15.168-7.304 18.592-8.933 1.911-.91 7.541-3.61 12.511-6.001a7864.879 7864.879 0 0 1 12.685-6.094c2.006-.961 5.76-2.761 8.34-4.001l14.596-7.004c11.606-5.566 9.759-3.999 16.413-13.923a3581.442 3581.442 0 0 1 8.662-12.858 4298.805 4298.805 0 0 0 11.095-16.508c4.285-6.403 7.876-11.72 7.98-11.816.103-.095.915-1.268 1.803-2.606 1.953-2.94 9.52-14.141 13.224-19.575 3.178-4.662 3.075-3.924.979-7.065-.937-1.404-3.959-5.993-6.717-10.198a8294.924 8294.924 0 0 0-10.165-15.453C281.97 4.752 279.579.96 279.49.619c-.168-.641-13.789-.839-20.411-.297" fill="#fbf6f6"/><path d="M226.551.15c-.095.096-.713.244-1.373.329l-5.543.719c-5.246.679-8.277 1.197-9.209 1.573-.383.154-2.65.671-5.039 1.148-2.39.477-5.048 1.038-5.908 1.248-.86.209-2.424.566-3.476.793-1.051.226-2.11.565-2.354.751-.243.186-.542.239-.663.118s-.391-.085-.6.079c-.208.164-1.239.498-2.29.741-1.052.243-2.303.6-2.781.794-1.023.414-.743.326-4.691 1.478-1.72.502-3.291 1.047-3.49 1.212-.199.165-1.13.472-2.069.682-.939.211-2.184.607-2.766.88-1.623.763-5.15 1.922-5.323 1.749-.084-.084-.454.126-.821.468-.367.342-1.328.816-2.135 1.052-.807.237-2.093.722-2.858 1.08-.764.357-2.484 1.067-3.822 1.576-1.338.51-3.684 1.516-5.213 2.236a933.75 933.75 0 0 1-5.039 2.35l-4.608 2.124c-1.292.596-2.543 1.123-2.78 1.17-.237.047-.51.164-.605.259-.752.752-2.656 1.825-3.307 1.864-.438.026-.733.151-.655.278.078.126-1.149.867-2.727 1.645-1.577.778-3.728 1.911-4.78 2.516a218.828 218.828 0 0 1-3.649 2.051c-3.037 1.659-5.202 2.906-5.56 3.202-.191.159-1.599 1.057-3.128 1.998-1.529.94-2.936 1.841-3.127 2.002-.192.16-.608.391-.926.512-.318.122-1.804 1.063-3.302 2.092a1131.412 1131.412 0 0 1-5.503 3.752c-1.529 1.034-2.937 2.002-3.128 2.151-2.546 1.989-5.811 4.46-6.777 5.129-.668.463-2.753 2.1-4.631 3.636-1.879 1.536-3.677 2.954-3.997 3.151-.319.197-1.242.979-2.05 1.738a90.221 90.221 0 0 1-3.127 2.77c-9.267 7.765-29.372 30.887-28.714 33.022.057.187-.343 1.122-.889 2.078a130.26 130.26 0 0 0-1.989 3.649c-.548 1.051-1.114 1.963-1.258 2.027-.143.064-.26.314-.26.556 0 .243-.396 1.185-.879 2.094-6.127 11.523-6.965 25.291-2.122 34.848 1.917 3.782 9.076 11.213 10.804 11.213.264 0 .532.137.595.305.357.939 9.854 4.844 13.561 5.577 1.015.201 3.352.668 5.192 1.037 13.388 2.688 36.641 1.148 56.428-3.738 11.174-2.759 28.62-8.263 33.71-10.635.574-.268 1.955-.827 3.071-1.244 1.116-.416 2.445-.975 2.954-1.24.509-.266 1.049-.484 1.2-.485.808-.007 19.828-9.012 25.79-12.211 3.659-1.964 12.671-7.131 13.963-8.007.799-.541 1.565-.983 1.702-.983.273 0 1.13-.553 9.357-6.037 7.146-4.764 8.958-6.045 13.34-9.428 1.98-1.529 3.933-3.007 4.339-3.284 4.188-2.853 16.649-14.21 23.525-21.442 4.548-4.783 13.558-16.176 15.456-19.542.39-.692 1.212-2.04 1.827-2.995 8.818-13.708 11.657-29.842 7.122-40.483-4.256-9.983-16.189-17.992-29.814-20.008-.956-.142-1.894-.467-2.086-.723-.587-.788-29.352-1.76-30.095-1.017m75.393 40.405c-.859 1.3-2.737 4.084-4.173 6.187a650.826 650.826 0 0 0-3.534 5.213c-.507.764-2.604 3.858-4.66 6.874-2.056 3.016-4.03 5.987-4.385 6.603-.356.615-1.386 2.137-2.289 3.381-.903 1.244-1.848 2.651-2.099 3.128-.251.476-.552.943-.67 1.039-.219.178-6.878 9.988-7.501 11.051-.19.325-.737 1.138-1.214 1.807-1.909 2.674-3.131 4.512-3.131 4.708 0 .114-.195.418-.434.675-.239.257-1.102 1.458-1.918 2.669-11.775 17.464-13.102 19.522-12.678 19.664.239.079.434.334.434.566 0 .241 1.153.685 2.694 1.037 1.481.339 8.088 1.943 14.683 3.565 6.594 1.622 14.57 3.574 17.723 4.337 13.84 3.352 18.715 4.545 20.504 5.02 3.078.816 18.807 4.7 20.373 5.03.787.166 4.228 1.007 7.645 1.867 3.417.861 7.934 1.975 10.036 2.476 10.377 2.473 22.354 5.411 23.284 5.711.574.185 1.713.442 2.532.571l1.488.234-2.531-3.74a961.347 961.347 0 0 1-2.879-4.269c-.191-.291-1.82-2.734-3.62-5.429-3.228-4.833-9.726-14.577-11.7-17.544a444.083 444.083 0 0 1-1.882-2.858c-.478-.734-4.31-6.424-8.515-12.644-4.205-6.221-7.802-11.581-7.995-11.912-.192-.331-1.209-1.853-2.259-3.383-1.05-1.529-1.987-2.936-2.083-3.127-.095-.191-1.282-1.99-2.636-3.997-1.354-2.007-7.276-10.843-13.159-19.635-13.089-19.562-11.509-17.815-13.451-14.875m-51.379 74.548c-.669.352-4.11 2.025-7.646 3.719a5089.458 5089.458 0 0 0-11.989 5.765c-3.059 1.477-6.421 3.073-7.472 3.547-1.051.474-4.57 2.157-7.819 3.74a2315.729 2315.729 0 0 1-19.114 9.215c-2.103.999-5.778 2.763-8.167 3.918a1202.221 1202.221 0 0 1-7.819 3.745 2248.338 2248.338 0 0 0-16.16 7.718 2951.948 2951.948 0 0 1-8.862 4.258 2608.79 2608.79 0 0 0-9.383 4.514 2863.712 2863.712 0 0 1-15.776 7.575l-1.528.721 1.007.819c.553.45 2.022 1.504 3.265 2.341 1.242.838 3.353 2.295 4.691 3.239 4.772 3.367 16.728 11.892 19.46 13.875 1.528 1.11 3.249 2.31 3.823 2.668.574.357 1.096.787 1.16.956a.524.524 0 0 0 .461.305c.189 0 1.232.669 2.316 1.486 1.085.817 2.636 1.951 3.448 2.519.811.569 2.062 1.47 2.78 2.003.717.533 2.165 1.549 3.216 2.258 1.051.709 2.036 1.485 2.189 1.724.153.24.425.436.604.436s1.566.899 3.082 1.998c2.918 2.114 13.449 9.63 14.73 10.513a2249.06 2249.06 0 0 1 13.8 9.773c.86.622 2.346 1.7 3.301 2.395a386.25 386.25 0 0 0 4.435 3.148c3.639 2.544 10.58 7.479 13.984 9.942 5.076 3.673 11.038 7.782 11.141 7.678.139-.138.801-7.667 1.032-11.737.103-1.816.419-6.273.7-9.905.282-3.631.661-8.87.843-11.642a2509.74 2509.74 0 0 1 1.747-24.153c.195-2.485.506-6.942.692-9.904.917-14.608 1.053-16.595 1.211-17.724.094-.669.333-4.031.531-7.472.198-3.44.511-7.897.696-9.904.185-2.007.653-8.419 1.039-14.249.85-12.803.971-14.484 1.359-18.94.167-1.911.282-3.485.256-3.498-.026-.013-.595.265-1.264.617m136.58 9.919a49.691 49.691 0 0 1-1.03 1.824c-.179.287-1.291 2.242-2.471 4.344-2.414 4.301-6.608 10.768-9.013 13.901a101.326 101.326 0 0 0-2.684 3.671c-.595.872-1.994 2.69-3.109 4.041a1507.41 1507.41 0 0 0-4.807 5.864c-8.458 10.371-24.458 26.46-37.237 37.445l-3.528 3.032-.39 2.239a157.988 157.988 0 0 0-.714 4.599 231.465 231.465 0 0 1-.663 4.444c-.357 2.214-1.092 7.077-2.794 18.511-.577 3.874-1.291 8.438-1.586 10.141a166.579 166.579 0 0 0-.85 5.468 351.275 351.275 0 0 1-.875 6.012 761.137 761.137 0 0 0-.712 4.692c-.157 1.102-1.182 7.788-2.053 13.386-.283 1.816-.918 6.116-1.411 9.557-.494 3.44-1.126 7.585-1.405 9.209a409.087 409.087 0 0 0-1.033 6.429 3156.2 3156.2 0 0 1-1.415 9.21c-.49 3.154-1.19 7.845-1.556 10.426a899.577 899.577 0 0 1-2.419 15.986 688.82 688.82 0 0 0-1.218 7.993c-.319 2.198-.723 4.747-.898 5.664-.785 4.112.119 4.707 1.114.733.235-.938.772-2.409 1.193-3.27.421-.86 1.033-2.387 1.359-3.393.326-1.006.806-2.043 1.068-2.304.261-.261.398-.553.303-.647-.095-.095.206-1.013.667-2.04.462-1.027 1.194-2.962 1.625-4.3.432-1.338.92-2.604 1.084-2.812.164-.209.199-.479.078-.6-.121-.122.026-.316.328-.432.329-.126.465-.431.339-.76-.151-.393-.08-.468.249-.265.288.178.377.149.237-.077-.29-.468.398-2.47 1.209-3.523.349-.452.56-.944.468-1.092-.212-.344 1.564-4.861 1.912-4.862.097-.001.207-.447.245-.993.038-.546.468-1.865.956-2.931.487-1.067.886-2.114.886-2.329 0-.215.181-.279.401-.142.233.143.308.096.178-.114-.217-.352.374-2.526.781-2.874.112-.095.488-1.006.836-2.024a48.17 48.17 0 0 1 1.362-3.476c.866-1.928.775-1.66 1.113-3.275.149-.716.411-1.303.581-1.303.17 0 .292-.117.271-.26-.076-.525.475-1.825.773-1.825.169 0 .268-.117.221-.261-.16-.48.903-3.909 1.212-3.909.168 0 .208-.158.089-.35-.119-.193.027-.444.325-.558.298-.114.472-.32.388-.456-.085-.137.541-2.115 1.391-4.395.85-2.28 1.545-4.341 1.546-4.58 0-.239.166-.434.369-.434.202 0 .281-.14.175-.312-.105-.171.039-.399.322-.508.317-.122.426-.422.286-.788-.125-.326-.084-.503.093-.394.176.108.343-.197.372-.679.066-1.101 1.163-3.575 1.585-3.575.173 0 .228-.14.123-.31-.171-.277.272-1.648 1.19-3.686.173-.383.583-1.588.912-2.678.332-1.098.751-1.888.941-1.771.189.117.235.038.104-.175-.132-.213-.079-.667.117-1.01.196-.342 1.077-2.498 1.958-4.792.881-2.294 1.701-4.327 1.822-4.518.121-.191.236-.426.254-.521.207-1.067.633-2.085.873-2.085.164 0 .209-.235.099-.522-.111-.286-.045-.521.146-.521.19 0 .338-.195.33-.434-.045-1.191.121-1.675.494-1.444.243.15.307.096.162-.139-.131-.213-.086-.667.102-1.01.585-1.068 3.505-8.616 3.505-9.061 0-.233.157-.423.348-.423.191 0 .322-.117.29-.26-.117-.537.493-2.172.81-2.172.182 0 .246-.137.143-.305-.204-.33.8-3.582 1.193-3.866.133-.095.55-1.074.928-2.174.377-1.1.816-1.882.975-1.737.16.144.188.084.064-.133-.124-.218.256-1.547.844-2.954.588-1.407 1.118-2.715 1.177-2.906.49-1.588.648-1.912.935-1.912.18 0 .238-.144.128-.322-.256-.415 1.097-4.042 1.753-4.698.277-.277.465-.628.419-.782-.179-.591.875-3.566 1.5-4.237.361-.388.657-1.007.657-1.376 0-.37.302-1.347.671-2.172.369-.824.594-1.624.499-1.778-.095-.153.072-.372.369-.486.298-.114.463-.335.366-.492-.097-.156.231-1.352.729-2.657.497-1.305 1.251-3.276 1.675-4.379.423-1.104.878-1.925 1.01-1.825.133.101.168.084.079-.037-.088-.12.021-.551.244-.955.223-.405.451-1.009.506-1.342.122-.728 2.378-6.874 3.179-8.66.314-.699.714-1.183.888-1.075.175.107.207.017.071-.203-.21-.341.357-1.981 2.605-7.528.233-.573.454-1.199.492-1.39.193-.963.621-1.888.818-1.767.121.075.243-.233.27-.685.027-.452.379-1.503.782-2.336.403-.832.733-1.708.733-1.945 0-.238.18-.321.401-.184.234.144.307.096.176-.117-.242-.392.413-2.494 1.517-4.865.377-.81.686-1.631.686-1.824 0-.194.123-.352.273-.352.15 0 .293-.273.319-.608.087-1.159 1.1-3.909 1.44-3.91.125 0 .251-.425.282-.945.03-.519.226-1.002.436-1.072.21-.07.289-.277.176-.46-.113-.183-.062-.522.113-.752.175-.231.837-1.749 1.472-3.373.634-1.625 1.247-3.033 1.361-3.128.115-.096.265-.565.332-1.043s.296-1.181.508-1.564c.212-.382.347-.828.3-.992-.047-.163.049-.476.214-.695.165-.219.582-1.18.927-2.135.345-.956.997-2.564 1.45-3.573.452-1.009.823-1.988.823-2.176 0-.523 1.494-3.619 1.81-3.751.153-.064.191-.26.083-.435-.108-.174-.07-.318.084-.318.155 0 .314-.47.354-1.043.096-1.364-.085-1.314-.938.262" fill="#eb1424"/><path d="M279.478.575c.096.365 2.492 4.177 5.325 8.472A8294.924 8294.924 0 0 1 294.968 24.5c2.758 4.205 5.78 8.794 6.717 10.198 2.096 3.141 2.199 2.403-.979 7.065-3.704 5.434-11.271 16.635-13.224 19.575-.888 1.338-1.7 2.511-1.803 2.606-.104.096-3.695 5.413-7.98 11.816a4298.805 4298.805 0 0 1-11.095 16.508 3581.442 3581.442 0 0 0-8.662 12.858c-2.947 4.396-5.618 8.257-5.934 8.581-.492.503-7.341 3.871-26.547 13.053-2.243 1.073-4.022 2.006-3.953 2.075.198.198 1.252-.296 20.369-9.543a680.237 680.237 0 0 1 7.124-3.4c3.254-1.513 3.833-2.246 14.531-18.412 2.351-3.553 3.924-5.831 4.322-6.259.239-.257.434-.561.434-.675 0-.196 1.222-2.034 3.131-4.708.477-.669 1.024-1.482 1.214-1.807.623-1.063 7.282-10.873 7.501-11.051.118-.096.419-.563.67-1.039.251-.477 1.196-1.884 2.099-3.128.903-1.244 1.933-2.765 2.289-3.379.355-.614 2.288-3.502 4.295-6.417s3.962-5.812 4.344-6.436c.383-.625 2.103-3.184 3.823-5.688 1.72-2.503 3.846-5.673 4.724-7.043 1.523-2.378 1.68-2.512 3.475-2.959 2.128-.529 11.338-2.526 16.302-3.534 1.815-.369 3.927-.829 4.691-1.022.765-.193 6.551-1.451 12.859-2.794 6.307-1.344 12.719-2.75 14.248-3.125a84.768 84.768 0 0 1 5.155-1.079c2.536-.424 2.602-.665.405-1.473a229.572 229.572 0 0 1-4.17-1.616 220.505 220.505 0 0 0-6.255-2.339c-3.284-1.167-4.575-1.567-12.164-3.772-1.72-.499-3.596-1.111-4.17-1.36-.573-.248-2.137-.719-3.475-1.047-1.338-.328-2.687-.732-2.998-.897-.312-.166-2.11-.634-3.997-1.041-1.887-.407-3.587-.868-3.778-1.023-.191-.156-1.731-.617-3.421-1.026-1.691-.408-3.333-.882-3.649-1.053-.573-.309-6.006-1.918-10.654-3.153-1.338-.356-2.745-.8-3.128-.986-2.991-1.458-9.226-3.252-13.553-3.898-1.338-.2-2.965-.449-3.614-.553-1.035-.165-1.16-.106-1.009.475m-22.505.652c.371.281.919.505 1.217.498.347-.008.23-.19-.327-.509-1.137-.65-1.753-.642-.89.011m2.454.74c4.961 1.058 12.148 3.588 15.388 5.416 1.067.602 1.822.904 1.677.67-.978-1.582-14.128-6.432-17.017-6.275-.696.038-.699.05-.048.189m18.383 7.175c4.107 3.109 5.371 4.369 8.82 8.784.705.903.748.919.389.145-1.186-2.553-8.595-9.801-9.929-9.711-.158.01.166.362.72.782m9.705 10.406l1.244 2.901c4.314 10.063 1.29 26.524-7.335 39.932a74.045 74.045 0 0 0-1.827 2.995c-1.898 3.366-10.908 14.759-15.456 19.542-6.876 7.232-19.337 18.589-23.525 21.442-.406.277-2.359 1.755-4.339 3.284-4.382 3.383-6.194 4.664-13.34 9.428-8.227 5.484-9.084 6.037-9.357 6.037-.137 0-.903.442-1.702.982-.799.54-2.908 1.808-4.687 2.818-1.779 1.009-3.155 1.915-3.057 2.013.097.098.693-.139 1.323-.525.63-.387 2.553-1.519 4.274-2.518 6.481-3.761 20.239-12.815 23.631-15.551.191-.155 2.301-1.754 4.689-3.555 12.524-9.446 25.449-21.764 34.109-32.51 17.258-21.414 23.241-42.319 16.077-56.173-.493-.953-1.093-1.404-.722-.542M51.52 100.337c-.239.086-.434.389-.434.674 0 .286-.832 2.032-1.849 3.881-1.551 2.82-2.82 5.457-4.797 9.965-1.965 4.477-3.108 10.103-3.251 15.986l-.126 5.213.297-5.039c.414-7.043 2.501-14.946 5.372-20.345.483-.909.879-1.851.879-2.094 0-.242.117-.492.26-.556.144-.064.764-1.054 1.379-2.201l2.022-3.77c.94-1.755.972-1.972.248-1.714m-15.378 20.37c0 .318-.249.853-.554 1.187-1.213 1.33-4.429 6.714-6.073 10.165-.956 2.007-1.889 3.921-2.073 4.253-.184.331-.711 1.661-1.171 2.953-1.205 3.39-2.595 7.054-3.134 8.259a26.025 26.025 0 0 0-.893 2.433c-.235.764-.62 1.702-.856 2.085-.236.382-.787 1.789-1.224 3.127-.437 1.338-.91 2.589-1.05 2.781-.141.191-.53 1.207-.865 2.259-.335 1.051-.821 2.38-1.08 2.953-.26.574-.849 2.138-1.309 3.476-4.671 13.586-5.81 16.969-6.315 18.766-.322 1.147-.725 2.234-.895 2.415-.17.182-.309.737-.309 1.234s-.135 1.052-.3 1.234c-.165.181-.567 1.422-.893 2.756-.326 1.334-.717 2.585-.869 2.78-.152.195-.384 1.058-.515 1.918l-.239 1.564 1.459-1.39c.802-.765 5.462-5.319 10.356-10.121 16.085-15.782 20.609-20.114 21.008-20.114.495 0 .724 1.694 1.435 10.6a791.35 791.35 0 0 0 1.051 11.989c.265 2.676.575 6.273.688 7.993.114 1.721.347 4.536.519 6.256.311 3.107.591 6.237 1.602 17.897.29 3.345.669 7.568.841 9.383.173 1.816.555 6.195.849 9.731.293 3.536.686 8.071.872 10.078.186 2.007.583 6.464.882 9.905.3 3.44.77 8.679 1.046 11.642.276 2.962.677 7.498.892 10.078.214 2.58.434 4.738.488 4.794.13.135 2.371-3.025 6.824-9.624 4.461-6.61 7.456-11.012 10.487-15.413 2.239-3.252 3.661-5.322 9.319-13.562 1.414-2.06 2.806-4.117 3.092-4.572.287-.454 1.421-2.088 2.52-3.629s1.998-2.951 1.998-3.132c0-.181.137-.382.305-.446.167-.063 2.093-2.774 4.28-6.023 4.107-6.105 8.55-12.598 9.036-13.206.153-.191 1.099-1.568 2.104-3.058 5.616-8.34 7.575-11.226 7.831-11.538.157-.191 1.928-2.772 3.936-5.734 6.636-9.795 8.393-12.33 9.047-13.055.355-.395.646-.836.646-.982 0-.145.793-1.386 1.761-2.757.969-1.372 2.594-3.686 3.613-5.143l1.852-2.649-2.136-.215c-1.175-.118-6.045-.449-10.824-.735-4.778-.286-10.721-.679-13.206-.873-7.49-.585-9.149-.702-14.943-1.045-9.433-.56-16.153-1.017-20.504-1.394-2.294-.199-8.08-.603-12.859-.897-10.51-.647-14.705-1.005-14.978-1.278-.114-.113-.424-5.339-.69-11.612-1.096-25.85-1.539-34.985-1.706-35.151-.096-.097-.176.085-.176.404m182.848 9.133c-1.003.5-1.753.98-1.666 1.066.176.176 3.701-1.544 3.701-1.807 0-.26-.093-.227-2.035.741M200 132.959c-6.857 3.756-26.873 13.343-27.875 13.351-.151.001-.672.209-1.159.463-.486.254-2.05.901-3.475 1.438-1.425.537-2.747 1.09-2.938 1.228-.192.139-1.208.532-2.259.874-1.052.342-2.381.84-2.954 1.106l-1.043.483 1.016-.212c1.605-.336 12.96-4.898 20.357-8.178 6.805-3.018 25.125-12.544 23.979-12.469-.096.007-1.738.868-3.649 1.916m8.331 1.986a2391.836 2391.836 0 0 1-12.511 6.041c-4.102 1.957-7.382 3.534-21.711 10.44a564.687 564.687 0 0 1-6.863 3.259c-1.195.549-2.172 1.074-2.172 1.167 0 .261 1.121-.23 7.124-3.123 3.058-1.473 6.968-3.34 8.688-4.148 1.72-.808 5.083-2.415 7.472-3.572a1540.11 1540.11 0 0 1 8.167-3.921c2.102-1.001 6.012-2.876 8.688-4.167a885.97 885.97 0 0 1 7.645-3.649c2.798-1.309 4.44-2.272 3.814-2.236-.186.01-3.94 1.769-8.341 3.909m-166.932 1.806c-.046 1.187.619 3.724 1.594 6.081 8.147 19.702 35.717 26.972 75.86 20.002 1.434-.249 2.197-.473 1.696-.497-.5-.024-2.22.182-3.822.458-14.662 2.526-31.9 2.878-41.965.857-1.84-.369-4.177-.836-5.192-1.037-3.707-.733-13.204-4.638-13.561-5.577-.063-.168-.331-.305-.595-.305-.86 0-6.593-5.069-8.297-7.335-2.547-3.387-4.216-7.026-5.244-11.431-.246-1.051-.459-1.599-.474-1.216m110.469 17.155c-3.154 1.081-7.924 2.568-10.6 3.304-2.675.736-5.881 1.621-7.124 1.966-1.242.345-4.214 1.037-6.603 1.538-2.389.5-4.714.99-5.167 1.088-.452.098-.738.262-.635.365.871.872 36.384-9.003 36.384-10.117 0-.281-.146-.237-6.255 1.856m9.731 3.446c-3.794 1.844-18.951 9.158-26.467 12.771-3.566 1.715-6.426 3.177-6.356 3.249.071.072.799-.185 1.619-.572 2.43-1.148 10.172-4.864 15.391-7.389 11.706-5.662 15.864-7.635 16.091-7.637.134-.001.868-.387 1.633-.858 2.006-1.236 1.105-1.03-1.911.436m78.015 98.345c-.957.522-4.476 2.25-7.819 3.84-3.343 1.589-6.361 3.043-6.708 3.23-.897.486-6.786 3.066-8.232 3.607-.669.25-2.389.955-3.823 1.567-3.429 1.462-13.559 5.323-17.724 6.754-8.476 2.913-12.976 4.367-13.518 4.367-.325 0-.74.14-.921.312-.182.172-1.816.733-3.632 1.247-1.816.513-4.943 1.405-6.95 1.982a232.464 232.464 0 0 1-6.951 1.862 345.324 345.324 0 0 0-5.213 1.327c-1.051.282-3.123.775-4.604 1.096-3.313.718-3.325.857-.174 2.069a173.95 173.95 0 0 1 3.562 1.408c.573.242 1.981.792 3.128 1.223 1.147.43 2.91 1.15 3.919 1.6 1.009.449 1.959.817 2.111.817.152 0 2.377.87 4.943 1.934s5.369 2.176 6.229 2.473c.86.296 2.01.767 2.555 1.047.546.28 1.64.718 2.433.974 1.305.422 4.892 1.827 6.654 2.608.686.304 6.073 2.408 12.164 4.752 1.72.662 3.596 1.421 4.17 1.688.573.266 3.701 1.524 6.95 2.796 9.47 3.705 12.812 5.027 13.554 5.359.382.171 2.571 1.036 4.865 1.923s5.031 1.978 6.082 2.425c1.051.446 3.475 1.393 5.386 2.103 1.912.71 3.945 1.499 4.518 1.753 2.381 1.055 6.348 2.661 7.646 3.095.764.255 5.911 2.275 11.437 4.488 5.525 2.212 10.187 4.023 10.36 4.023.172 0 1.125.368 2.117.818.991.45 3.288 1.403 5.104 2.119a486.59 486.59 0 0 1 4.865 1.943c3.895 1.602 7.95 3.197 9.383 3.691.861.297 1.79.718 2.065.937.403.318.441.294.195-.125-.792-1.349-5.582-9.055-6.589-10.6-1.481-2.274-7.036-11.126-7.959-12.684-.396-.669-.843-1.269-.993-1.332-.15-.064-.272-.291-.272-.504 0-.213-.678-1.412-1.507-2.664-.829-1.252-3.136-4.895-5.126-8.094-1.99-3.2-4.046-6.484-4.568-7.298-.521-.815-1.108-1.794-1.303-2.176-.195-.382-1.137-1.868-2.093-3.302-.956-1.433-1.847-2.841-1.979-3.127-.132-.287-1.109-1.851-2.171-3.475-1.062-1.625-2.104-3.267-2.315-3.649-.381-.688-4.007-6.511-5.518-8.862-.43-.669-1.389-2.199-2.132-3.4-1.282-2.076-2.57-4.122-6.828-10.849-3.904-6.168-5.308-8.425-5.747-9.238-.572-1.059-.883-1.046-3.026.122" fill="#f36464"/><path d="M298.349 4.812c1.075.46 2.876.815 2.259.446-.287-.172-1.068-.41-1.737-.528-.821-.146-.991-.119-.522.082m21.749 6.434c.08.068.614.229 1.188.358.761.17.902.138.521-.12-.469-.317-2.057-.539-1.709-.238m41.098 13.339c.142.23-.643.511-2.118.757-1.29.215-3.596.698-5.125 1.074-1.529.375-7.941 1.781-14.248 3.125-6.308 1.343-12.094 2.601-12.859 2.794-.764.193-2.876.653-4.691 1.023-3.378.686-10.692 2.255-15.403 3.303-3.115.693-3.704 1.175-2.58 2.113.429.358.585.429.346.157-.838-.955-.41-1.285 2.432-1.878 1.577-.329 4.197-.891 5.822-1.248l6.255-1.377c1.816-.399 4.709-1.02 6.429-1.379 1.72-.359 6.725-1.444 11.121-2.412 4.396-.968 11.042-2.397 14.77-3.176 10.196-2.131 11.023-2.376 10.054-2.975-.263-.163-.343-.124-.205.099m-108.911 89.25c-.344.414-.258.5.496.5.977 0 1.232-.497.416-.811-.273-.104-.683.035-.912.311m-.926 7.625c.003.955.07 1.305.15.777.08-.529.078-1.31-.005-1.738-.082-.427-.147.005-.145.961m-.7 8.861c0 .861.068 1.212.151.782a4.937 4.937 0 0 0 0-1.563c-.083-.431-.151-.079-.151.781m-.361 4.866c0 .669.071.942.159.608a2.865 2.865 0 0 0 0-1.216c-.088-.335-.159-.061-.159.608m-1.029 15.291c0 .86.068 1.212.151.782a4.943 4.943 0 0 0 0-1.564c-.083-.43-.151-.078-.151.782m-227.684.386c-.214.614-.328 1.177-.254 1.252.074.074.31-.368.524-.982.214-.614.329-1.177.255-1.252-.075-.074-.311.368-.525.982m227.346 3.784c0 1.051.065 1.481.145.956.08-.526.08-1.386 0-1.912-.08-.525-.145-.095-.145.956m-229.49 1.617c-.192.506-.299 1.074-.237 1.261.062.186.287-.228.5-.922.447-1.457.256-1.704-.263-.339m229.133 3.248c0 .861.068 1.212.151.782a4.937 4.937 0 0 0 0-1.563c-.083-.431-.151-.079-.151.781m108.143 7.385l-1.374 1.477 1.477-1.373c1.374-1.278 1.637-1.581 1.374-1.581-.057 0-.722.665-1.477 1.477m-341.387.647c-.214.614-.329 1.178-.254 1.252.074.074.31-.367.524-.982.214-.614.328-1.177.254-1.251-.074-.075-.31.367-.524.981m16.816 5.76a15847.05 15847.05 0 0 0-16.134 15.809c-7.151 7.016-10.311 9.9-10.508 9.591-.202-.319-.282-.265-.286.191-.01 1.263 1.196.173 16.676-15.056 8.645-8.506 15.896-15.465 16.113-15.465.45 0 .877 3.642 1.975 16.855 1.875 22.559 4.036 45.274 3.621 38.054-.176-3.07-.662-9.07-1.209-14.943a948.911 948.911 0 0 1-.865-10.252c-.279-3.536-.661-7.837-.848-9.557-.186-1.721-.593-6.334-.903-10.252-.684-8.648-.925-10.511-1.377-10.647-.191-.057-3.006 2.495-6.255 5.672m215.719-3.713c0 .669.072.942.159.608a2.838 2.838 0 0 0 0-1.217c-.087-.334-.159-.06-.159.609m103.124 3.388l-2.249 2.346 2.346-2.249c1.29-1.237 2.346-2.293 2.346-2.346 0-.256-.354.07-2.443 2.249m-103.441 1.477c0 1.242.063 1.751.14 1.129.077-.621.077-1.637 0-2.258-.077-.622-.14-.113-.14 1.129m-119.725-.434c-.287.334-1.588 2.172-2.893 4.083-1.305 1.911-2.737 3.959-3.182 4.551-.445.591-.81 1.207-.81 1.367 0 .161-.291.615-.646 1.01-.654.725-2.411 3.26-9.047 13.055-2.008 2.962-3.779 5.543-3.936 5.734-.256.312-2.215 3.198-7.831 11.538-1.005 1.49-1.951 2.867-2.104 3.058-.486.608-4.929 7.101-9.036 13.206-2.187 3.249-4.113 5.96-4.28 6.023a.514.514 0 0 0-.305.446c0 .181-.899 1.591-1.998 3.132-1.099 1.541-2.233 3.175-2.52 3.629-.286.455-1.678 2.512-3.092 4.572-5.72 8.331-6.966 10.145-9.259 13.475-3.092 4.49-6.066 8.86-10.547 15.5-4.453 6.599-6.694 9.759-6.824 9.624-.054-.056-.274-2.214-.488-4.794-.215-2.58-.616-7.116-.892-10.078a2422.65 2422.65 0 0 1-1.046-11.642c-.299-3.441-.696-7.898-.882-9.905a1335.91 1335.91 0 0 1-.872-10.078c-.973-11.715-1.238-14.405-1.435-14.588-.107-.1-.099.991.018 2.425.116 1.433.53 6.75.919 11.816.39 5.065.855 10.147 1.036 11.294.18 1.147.497 4.587.705 7.646.207 3.058.521 6.889.697 8.514.175 1.625.638 6.779 1.028 11.455.389 4.676.828 8.621.976 8.769.147.147 1.543-1.646 3.103-3.984a581.752 581.752 0 0 1 4.521-6.683c.927-1.338 2.919-4.231 4.426-6.429l8.575-12.511 5.356-7.819 4.76-6.951c.916-1.338 2.671-3.918 3.898-5.734 4.227-6.252 4.844-7.125 5.121-7.24.152-.064.277-.278.277-.475 0-.197.523-1.083 1.162-1.969 1.41-1.955 5.882-8.465 12.564-18.292 2.106-3.097 4.532-6.642 8.918-13.032 1.246-1.816 3.279-4.787 4.517-6.603a807.5 807.5 0 0 1 3.823-5.56 864.426 864.426 0 0 0 4.632-6.777c3.158-4.664 3.564-5.135 4.125-4.789.182.113.22.024.083-.196-.345-.559-.708-.502-1.315.207m119.354 5.821c.004.764.075 1.036.158.604.083-.433.08-1.058-.007-1.39-.087-.333-.155.021-.151.786m94.081 2.867l-2.248 2.345 2.345-2.248c1.291-1.237 2.346-2.293 2.346-2.346 0-.256-.354.07-2.443 2.249m-94.417 1.65c.003.956.07 1.306.15.778.08-.529.078-1.311-.004-1.738-.083-.427-.148.005-.146.96m-237.954 2.11c-.128.51-.166.993-.084 1.075.082.082.254-.267.382-.777.127-.509.165-.993.083-1.075-.082-.082-.253.268-.381.777m326.278 1.974l-1.021 1.129 1.13-1.02c.621-.562 1.129-1.07 1.129-1.13 0-.268-.287-.032-1.238 1.021m-4.17 3.823l-1.021 1.129 1.129-1.021c.622-.561 1.13-1.069 1.13-1.129 0-.269-.287-.032-1.238 1.021M6.33 194.84c-.214.699-.252 1.129-.083.956.34-.348.868-2.225.626-2.225-.085 0-.329.571-.543 1.269m239.11 8.983c.003.764.075 1.036.158.604.083-.432.08-1.058-.007-1.39-.087-.332-.155.021-.151.786m-.348 5.213c.004.764.075 1.036.158.604.083-.433.08-1.058-.007-1.39-.087-.333-.155.021-.151.786m-.355 5.039c0 .669.072.942.159.608a2.833 2.833 0 0 0 0-1.216c-.087-.335-.159-.061-.159.608m-.328 4.344c.002.955.07 1.305.15.777.08-.528.077-1.31-.005-1.738-.083-.427-.148.005-.145.961m-.707 10.078c.004.765.075 1.036.158.604.083-.432.08-1.058-.007-1.39-.087-.332-.155.021-.151.786m-.355 4.692c0 .669.072.942.159.608a2.838 2.838 0 0 0 0-1.217c-.087-.334-.159-.06-.159.609m-.317 5.212c0 1.243.064 1.751.141 1.13.077-.621.077-1.638 0-2.259s-.141-.113-.141 1.129m-1.073 13.901c0 .669.072.943.159.609a2.838 2.838 0 0 0 0-1.217c-.087-.334-.159-.061-.159.608m-.428 1.738c0 .219-3.636 2.18-8.08 4.357-4.444 2.178-7.982 3.965-7.862 3.971.391.022 3.92-1.619 9.999-4.652 6.747-3.365 6.443-3.272 7.054-2.141.439.813 1.843 3.07 5.747 9.238 4.258 6.727 5.546 8.773 6.828 10.849a303.586 303.586 0 0 0 2.132 3.4c1.511 2.351 5.137 8.174 5.518 8.862.211.382 1.253 2.024 2.315 3.649 1.062 1.624 2.039 3.188 2.171 3.475.132.286 1.023 1.694 1.979 3.127.956 1.434 1.898 2.92 2.093 3.302.195.382.782 1.361 1.303 2.176.522.814 2.578 4.098 4.568 7.298 1.99 3.199 4.297 6.842 5.126 8.094.829 1.252 1.507 2.451 1.507 2.664 0 .213.122.44.272.504.15.063.597.663.993 1.332.923 1.558 6.478 10.41 7.959 12.684.917 1.408 5.556 8.861 6.524 10.482.133.222-.397.096-1.176-.281-.779-.377-1.601-.616-1.826-.532-.225.084.06.328.634.542.573.214 1.314.545 1.646.737.772.444 1.9.446 2.174.003.117-.189-.006-.259-.273-.157-.322.124-.95-.605-1.875-2.176-1.431-2.432-5.391-8.768-8.782-14.052-2.228-3.471-3.719-5.876-4.713-7.598-.386-.669-1.572-2.545-2.636-4.17-1.904-2.909-4.506-7.068-8.916-14.249-1.232-2.006-2.435-3.883-2.673-4.17a5.528 5.528 0 0 1-.664-1.042c-.127-.287-1.318-2.242-2.645-4.344a1483.751 1483.751 0 0 1-4.359-6.951 1218.32 1218.32 0 0 0-3.258-5.213c-.722-1.147-3.312-5.291-5.754-9.209-4.367-7.005-6.44-10.29-9.099-14.422-.738-1.147-1.421-2.242-1.517-2.433-.796-1.579-2.434-3.567-2.434-2.954m-18.182 9.072c-2.326 1.227-13.725 5.898-21.088 8.641a375.504 375.504 0 0 0-4.17 1.576c-.669.261-1.842.667-2.607.902-.764.234-1.215.485-1.002.557.213.072 1.621-.329 3.128-.89 7.172-2.67 13.053-4.94 15.424-5.954 1.434-.613 3.154-1.32 3.823-1.57 2.269-.849 7.817-3.349 8.149-3.672.552-.537-.228-.344-1.657.41m-30.993 12.249c-.573.243-2.293.804-3.822 1.247-1.529.443-2.937.917-3.128 1.054-.191.137-1.121.459-2.066.715-.946.256-1.557.52-1.359.586.365.121 10.632-3.201 11.592-3.752.79-.453-.035-.351-1.217.15m-11.815 3.868c-.191.062-1.558.468-3.037.904-1.479.435-2.633.846-2.566.914.192.192 5.562-1.323 5.933-1.673.337-.319.282-.343-.33-.145m-13.206 3.694c-7.923 2.179-8.04 2.21-11.961 3.141-1.8.428-3.113.831-2.918.896.678.226 21.365-5.059 21.901-5.595.422-.422-.826-.145-7.022 1.558m-17.319 4.363c-.127.128-.231.342-.231.477 0 .309 10.064 4.287 10.285 4.066.09-.09-.35-.359-.978-.598a92.058 92.058 0 0 1-2.183-.87c-.573-.239-2.176-.871-3.562-1.404-2.556-.984-3.008-1.376-1.911-1.663.398-.104.299-.173-.29-.199-.494-.022-1.002.064-1.13.191m11.063 5.121c.383.294.874.539 1.093.545.335.009 2.047.677 6.205 2.423.684.287 6.107 2.361 7.125 2.725.286.102.429.082.316-.045-.243-.274-9.344-4.05-9.762-4.05-.159 0-1.057-.371-1.997-.824-2.295-1.107-3.987-1.546-2.98-.774m15.118 5.916c0 .081 1.681.801 3.735 1.601 2.055.799 9.835 3.876 17.29 6.837a4186.293 4186.293 0 0 0 18.419 7.277 527.083 527.083 0 0 1 8.166 3.256c3.411 1.408 12.981 5.152 13.901 5.438 1.845.573-2.054-1.185-6.264-2.824-2.766-1.078-5.343-2.1-5.725-2.272-.741-.332-4.058-1.644-13.554-5.359-3.249-1.272-6.377-2.53-6.95-2.796-.574-.267-2.45-1.026-4.17-1.688-6.091-2.344-11.478-4.448-12.164-4.752-1.645-.729-5.321-2.178-6.603-2.604-.764-.253-2.293-.866-3.398-1.361-1.919-.86-2.683-1.075-2.683-.753m62.253 24.689c.09.09 2.579 1.114 5.532 2.277a665.998 665.998 0 0 1 6.997 2.791c.895.373 1.755.675 1.911.672.526-.01-.748-.682-2.671-1.409-1.051-.398-2.38-.939-2.954-1.202-3.144-1.445-9.325-3.639-8.815-3.129m14.9 5.85c.181.196 5.655 2.409 13.029 5.267 4.556 1.766 4.757 1.846 7.298 2.912 4.456 1.87 19.711 7.838 21.894 8.566 1.692.564-.586-.561-3.172-1.567a275.909 275.909 0 0 1-4.3-1.71 408.89 408.89 0 0 0-4.865-1.947c-1.816-.716-4.113-1.669-5.104-2.119-.992-.45-1.948-.818-2.124-.818-.177 0-4.995-1.861-10.708-4.135-10.095-4.018-12.314-4.845-11.948-4.449" fill="#d44446"/></g></svg>